<?xml version="1.0" encoding="utf-8"?>
<!-- Generator: Adobe Illustrator 24.2.1, SVG Export Plug-In . SVG Version: 6.00 Build 0)  -->
<svg version="1.1" xmlns="http://www.w3.org/2000/svg" xmlns:xlink="http://www.w3.org/1999/xlink" x="0px" y="0px"
	 viewBox="0 0 759 228" style="enable-background:new 0 0 759 228;" xml:space="preserve">
<style type="text/css">
	.st0{fill:#A6A6A6;}
	.st1{fill:#FFFFFF;}
</style>
<g id="Layer_1">
</g>
<g id="Layer_2">
	<g>
		<path class="st0" d="M732,228H26.6C11.9,228,0,215.9,0,201V27C0,12.1,11.9,0,26.6,0H732c14.7,0,27,12.1,27,26.9V201
			C759,215.9,746.6,228,732,228L732,228z"/>
		<path d="M753.6,201c0,12.1-9.6,21.8-21.6,21.8H26.6C14.7,222.9,5,213.1,5,201V27C5,14.9,14.7,5.1,26.6,5.1H732
			c11.9,0,21.6,9.8,21.6,21.9L753.6,201L753.6,201z"/>
		<g>
			<g>
				<path class="st1" d="M169.4,112.8c-0.2-18.4,14.8-27.3,15.5-27.7c-8.5-12.6-21.7-14.3-26.3-14.4c-11.1-1.2-21.8,6.7-27.4,6.7
					c-5.7,0-14.4-6.6-23.8-6.4c-12,0.2-23.3,7.2-29.5,18.2c-12.7,22.4-3.2,55.2,9,73.3c6.1,8.9,13.2,18.7,22.6,18.4
					c9.1-0.4,12.5-5.9,23.6-5.9c10.9,0,14.1,5.9,23.7,5.7c9.8-0.2,16-8.9,21.9-17.8c7.1-10.1,9.9-20.1,10-20.6
					C188.4,142.1,169.6,134.8,169.4,112.8z"/>
				<path class="st1" d="M151.4,58.8c4.9-6.2,8.3-14.7,7.3-23.3c-7.1,0.3-16,5-21.1,11.1c-4.5,5.4-8.6,14.2-7.5,22.4
					C138.1,69.6,146.3,64.9,151.4,58.8z"/>
			</g>
		</g>
		<g>
			<path class="st1" d="M301.6,179.6h-12.8l-7-22.3h-24.3l-6.7,22.3h-12.4l24.1-75.8h14.9L301.6,179.6z M279.7,148l-6.3-19.8
				c-0.7-2-1.9-6.8-3.8-14.3h-0.2c-0.7,3.2-1.9,8-3.6,14.3l-6.2,19.8H279.7z"/>
			<path class="st1" d="M363.5,151.6c0,9.3-2.5,16.7-7.4,22.1c-4.4,4.8-10,7.2-16.5,7.2c-7.1,0-12.2-2.6-15.3-7.8H324v28.8h-12v-59
				c0-5.8-0.2-11.8-0.4-18h10.5l0.7,8.7h0.2c4-6.5,10.1-9.8,18.2-9.8c6.4,0,11.7,2.5,15.9,7.6C361.4,136.5,363.5,143.2,363.5,151.6z
				 M351.3,152c0-5.3-1.2-9.7-3.6-13.2c-2.6-3.6-6.1-5.4-10.4-5.4c-3,0-5.6,1-8,3c-2.4,2-4,4.6-4.7,7.8c-0.4,1.5-0.6,2.7-0.6,3.7
				v9.1c0,4,1.2,7.3,3.6,10.1c2.4,2.7,5.5,4.1,9.4,4.1c4.5,0,8-1.8,10.5-5.3C350.1,162.4,351.3,157.8,351.3,152z"/>
			<path class="st1" d="M425.6,151.6c0,9.3-2.5,16.7-7.4,22.1c-4.4,4.8-10,7.2-16.5,7.2c-7.1,0-12.2-2.6-15.3-7.8h-0.2v28.8h-12v-59
				c0-5.8-0.2-11.8-0.4-18h10.5l0.7,8.7h0.2c4-6.5,10.1-9.8,18.2-9.8c6.4,0,11.7,2.5,15.9,7.6C423.5,136.5,425.6,143.2,425.6,151.6z
				 M413.4,152c0-5.3-1.2-9.7-3.6-13.2c-2.6-3.6-6.1-5.4-10.4-5.4c-3,0-5.6,1-8.1,3c-2.4,2-4,4.6-4.7,7.8c-0.4,1.5-0.6,2.7-0.6,3.7
				v9.1c0,4,1.2,7.3,3.6,10.1c2.4,2.7,5.5,4.1,9.4,4.1c4.5,0,8-1.8,10.5-5.3C412.1,162.4,413.4,157.8,413.4,152z"/>
			<path class="st1" d="M495,158.3c0,6.5-2.2,11.7-6.6,15.8c-4.9,4.4-11.7,6.6-20.4,6.6c-8.1,0-14.5-1.6-19.4-4.7l2.8-10.1
				c5.3,3.2,11,4.8,17.3,4.8c4.5,0,8-1,10.6-3.1c2.5-2.1,3.8-4.8,3.8-8.3c0-3.1-1-5.7-3.1-7.8c-2.1-2.1-5.5-4.1-10.3-5.9
				c-13.1-5-19.6-12.2-19.6-21.7c0-6.2,2.3-11.3,6.9-15.3c4.6-4,10.7-6,18.3-6c6.8,0,12.5,1.2,17,3.6l-3,9.9
				c-4.2-2.3-9-3.5-14.3-3.5c-4.2,0-7.5,1.1-9.9,3.2c-2,1.9-3,4.2-3,6.9c0,3,1.1,5.5,3.4,7.4c2,1.8,5.6,3.8,10.9,5.9
				c6.4,2.6,11.2,5.7,14.2,9.2C493.5,148.7,495,153.1,495,158.3z"/>
			<path class="st1" d="M534.6,134h-13.2v26.6c0,6.8,2.3,10.1,7,10.1c2.1,0,3.9-0.2,5.3-0.6l0.3,9.2c-2.4,0.9-5.5,1.3-9.3,1.3
				c-4.7,0-8.4-1.5-11.1-4.4c-2.7-2.9-4-7.8-4-14.7V134h-7.9v-9.1h7.9v-10l11.8-3.6v13.6h13.2C534.6,124.9,534.6,134,534.6,134z"/>
			<path class="st1" d="M594.2,151.8c0,8.4-2.4,15.3-7.1,20.7c-5,5.6-11.6,8.3-19.8,8.3c-7.9,0-14.2-2.7-18.9-8
				c-4.7-5.3-7.1-12-7.1-20.1c0-8.5,2.4-15.4,7.3-20.8c4.8-5.4,11.4-8.1,19.6-8.1c7.9,0,14.3,2.7,19.1,8
				C591.9,136.9,594.2,143.6,594.2,151.8z M581.8,152.2c0-5-1.1-9.4-3.2-13c-2.5-4.4-6.1-6.5-10.8-6.5c-4.8,0-8.5,2.2-11,6.5
				c-2.2,3.6-3.2,8-3.2,13.2c0,5,1.1,9.4,3.2,13c2.6,4.4,6.2,6.5,10.9,6.5c4.6,0,8.2-2.2,10.8-6.7
				C580.7,161.6,581.8,157.2,581.8,152.2z"/>
			<path class="st1" d="M633.2,135.6c-1.2-0.2-2.5-0.3-3.8-0.3c-4.2,0-7.5,1.6-9.8,4.8c-2,2.8-3,6.5-3,10.8v28.7h-12l0.1-37.5
				c0-6.3-0.2-12-0.4-17.2h10.4l0.4,10.5h0.3c1.3-3.6,3.3-6.5,6-8.7c2.7-2,5.6-2.9,8.7-2.9c1.1,0,2.1,0.1,3,0.2
				C633.2,124,633.2,135.6,633.2,135.6z"/>
			<path class="st1" d="M686.8,149.6c0,2.2-0.1,4-0.4,5.5h-36c0.1,5.4,1.9,9.5,5.2,12.4c3,2.5,6.9,3.8,11.8,3.8
				c5.3,0,10.2-0.9,14.6-2.6l1.9,8.4c-5.1,2.3-11.1,3.4-18.1,3.4c-8.4,0-14.9-2.5-19.7-7.5c-4.8-5-7.2-11.7-7.2-20.1
				c0-8.2,2.2-15.1,6.7-20.6c4.7-5.8,10.9-8.8,18.9-8.8c7.8,0,13.7,2.9,17.7,8.8C685.2,137.1,686.8,142.8,686.8,149.6z M675.4,146.5
				c0.1-3.6-0.7-6.7-2.3-9.3c-2.1-3.4-5.3-5.1-9.6-5.1c-3.9,0-7.1,1.6-9.5,5c-2,2.6-3.2,5.8-3.5,9.4L675.4,146.5L675.4,146.5z"/>
		</g>
		<g>
			<g>
				<path class="st1" d="M275.8,57.1c0,6.7-2,11.8-5.9,15.1c-3.7,3.1-8.9,4.7-15.6,4.7c-3.4,0-6.2-0.1-8.6-0.4V39.8
					c3.1-0.5,6.5-0.8,10.1-0.8c6.4,0,11.3,1.4,14.6,4.3C273.9,46.5,275.8,51.1,275.8,57.1z M269.6,57.2c0-4.3-1.1-7.7-3.4-10
					c-2.3-2.3-5.6-3.5-10-3.5c-1.9,0-3.4,0.1-4.7,0.4V72c0.7,0.1,2.1,0.2,4,0.2c4.5,0,8-1.3,10.4-3.8
					C268.3,65.8,269.6,62.1,269.6,57.2z"/>
				<path class="st1" d="M308.7,62.9c0,4.1-1.2,7.5-3.5,10.2c-2.4,2.7-5.7,4.1-9.7,4.1c-3.9,0-7-1.3-9.3-3.9
					c-2.3-2.6-3.5-5.9-3.5-9.9c0-4.2,1.2-7.6,3.6-10.2s5.6-4,9.6-4c3.9,0,7,1.3,9.4,3.9C307.6,55.6,308.7,58.9,308.7,62.9z
					 M302.6,63.1c0-2.5-0.5-4.6-1.6-6.4c-1.2-2.1-3-3.2-5.3-3.2c-2.4,0-4.2,1.1-5.4,3.2c-1.1,1.8-1.6,3.9-1.6,6.5
					c0,2.5,0.5,4.6,1.6,6.4c1.3,2.1,3.1,3.2,5.3,3.2c2.2,0,4-1.1,5.3-3.3C302.1,67.7,302.6,65.6,302.6,63.1z"/>
				<path class="st1" d="M352.9,49.7l-8.3,26.9h-5.4l-3.4-11.7c-0.9-2.9-1.6-5.8-2.1-8.7h-0.1c-0.5,3-1.2,5.8-2.1,8.7l-3.6,11.7
					h-5.5l-7.8-26.9h6.1l3,12.8c0.7,3,1.3,5.9,1.8,8.6h0.1c0.4-2.2,1.2-5.1,2.2-8.6l3.8-12.8h4.8l3.6,12.5c0.9,3.1,1.6,6,2.1,8.8
					h0.2c0.4-2.8,1-5.7,1.8-8.8l3.2-12.5L352.9,49.7L352.9,49.7z"/>
				<path class="st1" d="M383.4,76.6h-5.9V61.2c0-4.7-1.8-7.1-5.3-7.1c-1.7,0-3.2,0.6-4.3,2c-1.1,1.3-1.6,2.8-1.6,4.6v15.9h-5.9
					V57.4c0-2.4-0.1-4.9-0.2-7.7h5.2l0.3,4.2h0.2c0.7-1.3,1.7-2.4,3.1-3.2c1.6-1,3.4-1.5,5.3-1.5c2.5,0,4.5,0.8,6.2,2.4
					c2,2,3.1,5,3.1,8.9V76.6z"/>
				<path class="st1" d="M399.7,76.6h-5.9V37.4h5.9V76.6z"/>
				<path class="st1" d="M434.4,62.9c0,4.1-1.2,7.5-3.5,10.2c-2.4,2.7-5.7,4.1-9.7,4.1c-3.9,0-7-1.3-9.3-3.9
					c-2.3-2.6-3.5-5.9-3.5-9.9c0-4.2,1.2-7.6,3.6-10.2s5.6-4,9.6-4c3.9,0,7,1.3,9.4,3.9C433.2,55.6,434.4,58.9,434.4,62.9z
					 M428.2,63.1c0-2.5-0.5-4.6-1.6-6.4c-1.2-2.1-3-3.2-5.3-3.2c-2.4,0-4.2,1.1-5.4,3.2c-1.1,1.8-1.6,3.9-1.6,6.5
					c0,2.5,0.5,4.6,1.6,6.4c1.3,2.1,3.1,3.2,5.3,3.2c2.2,0,4-1.1,5.3-3.3C427.7,67.7,428.2,65.6,428.2,63.1z"/>
				<path class="st1" d="M462.9,76.6h-5.3l-0.4-3.1H457c-1.8,2.5-4.4,3.7-7.7,3.7c-2.5,0-4.5-0.8-6-2.4c-1.4-1.5-2.1-3.3-2.1-5.5
					c0-3.3,1.3-5.8,4.1-7.5c2.7-1.7,6.5-2.6,11.4-2.5v-0.5c0-3.5-1.8-5.3-5.5-5.3c-2.6,0-4.9,0.7-6.9,2l-1.2-3.9
					c2.5-1.5,5.5-2.3,9.1-2.3c6.9,0,10.4,3.7,10.4,11.1v9.9C462.5,72.9,462.6,75,462.9,76.6z M456.8,67.4v-4.1
					c-6.5-0.1-9.7,1.7-9.7,5.4c0,1.4,0.4,2.5,1.1,3.2c0.8,0.7,1.7,1,2.9,1c1.3,0,2.5-0.4,3.6-1.2c1.1-0.8,1.8-1.9,2-3.2
					C456.7,68.1,456.8,67.8,456.8,67.4z"/>
				<path class="st1" d="M496.4,76.6h-5.2l-0.3-4.3h-0.2c-1.7,3.3-4.5,4.9-8.5,4.9c-3.2,0-5.9-1.3-8-3.8c-2.1-2.5-3.2-5.8-3.2-9.9
					c0-4.3,1.1-7.9,3.4-10.6c2.2-2.5,4.9-3.8,8.2-3.8c3.6,0,6,1.2,7.5,3.6h0.1V37.4h5.9v32C496.1,72,496.2,74.4,496.4,76.6z
					 M490.3,65.3v-4.5c0-0.8-0.1-1.4-0.2-1.9c-0.3-1.4-1-2.6-2.1-3.6c-1.1-1-2.4-1.5-3.9-1.5c-2.2,0-3.9,0.9-5.2,2.7
					c-1.3,1.8-1.9,4-1.9,6.8c0,2.7,0.6,4.8,1.8,6.5c1.3,1.8,3,2.7,5.1,2.7c1.9,0,3.5-0.7,4.7-2.2C489.7,68.8,490.3,67.2,490.3,65.3z
					"/>
				<path class="st1" d="M546.7,62.9c0,4.1-1.2,7.5-3.5,10.2c-2.4,2.7-5.7,4.1-9.7,4.1c-3.9,0-7-1.3-9.3-3.9
					c-2.3-2.6-3.5-5.9-3.5-9.9c0-4.2,1.2-7.6,3.6-10.2c2.4-2.7,5.6-4,9.6-4c3.9,0,7,1.3,9.4,3.9C545.6,55.6,546.7,58.9,546.7,62.9z
					 M540.6,63.1c0-2.5-0.5-4.6-1.6-6.4c-1.2-2.1-3-3.2-5.3-3.2c-2.4,0-4.2,1.1-5.4,3.2c-1.1,1.8-1.6,3.9-1.6,6.5
					c0,2.5,0.5,4.6,1.6,6.4c1.3,2.1,3.1,3.2,5.3,3.2c2.2,0,4-1.1,5.3-3.3C540.1,67.7,540.6,65.6,540.6,63.1z"/>
				<path class="st1" d="M578.4,76.6h-5.9V61.2c0-4.7-1.8-7.1-5.3-7.1c-1.7,0-3.2,0.6-4.3,2s-1.6,2.8-1.6,4.6v15.9h-5.9V57.4
					c0-2.4-0.1-4.9-0.2-7.7h5.2l0.3,4.2h0.2c0.7-1.3,1.7-2.4,3.1-3.2c1.6-1,3.4-1.5,5.3-1.5c2.5,0,4.5,0.8,6.2,2.4
					c2,2,3.1,5,3.1,8.9V76.6z"/>
				<path class="st1" d="M618.1,54.2h-6.5v13.1c0,3.3,1.2,5,3.4,5c1.1,0,1.9-0.1,2.6-0.3l0.2,4.5c-1.2,0.4-2.7,0.7-4.6,0.7
					c-2.3,0-4.1-0.7-5.4-2.2c-1.3-1.4-2-3.9-2-7.2V54.2h-3.9v-4.5h3.9v-4.9l5.8-1.8v6.7h6.5L618.1,54.2L618.1,54.2z"/>
				<path class="st1" d="M649.3,76.6h-5.9V61.3c0-4.8-1.8-7.2-5.3-7.2c-2.7,0-4.6,1.4-5.6,4.2c-0.2,0.6-0.3,1.3-0.3,2.1v16.2h-5.9
					V37.4h5.9v16.2h0.1c1.9-2.9,4.5-4.4,8-4.4c2.4,0,4.5,0.8,6.1,2.4c2,2,3,5,3,9C649.3,60.6,649.3,76.6,649.3,76.6z"/>
				<path class="st1" d="M681.5,61.9c0,1.1-0.1,2-0.2,2.7h-17.7c0.1,2.7,0.9,4.7,2.6,6.1c1.5,1.3,3.4,1.9,5.8,1.9
					c2.6,0,5-0.4,7.1-1.3l0.9,4.1c-2.5,1.1-5.5,1.7-8.9,1.7c-4.1,0-7.3-1.2-9.7-3.7c-2.4-2.5-3.5-5.7-3.5-9.9
					c0-4.1,1.1-7.4,3.3-10.1c2.3-2.9,5.4-4.3,9.3-4.3c3.8,0,6.7,1.4,8.7,4.3C680.7,55.7,681.5,58.5,681.5,61.9z M675.8,60.3
					c0-1.8-0.3-3.3-1.1-4.6c-1-1.7-2.6-2.5-4.7-2.5c-1.9,0-3.5,0.8-4.7,2.4c-1,1.3-1.6,2.8-1.7,4.6
					C663.6,60.3,675.8,60.3,675.8,60.3z"/>
			</g>
		</g>
	</g>
</g>
</svg>
