<?xml version="1.0" encoding="utf-8"?>
<!-- Generator: Adobe Illustrator 24.2.1, SVG Export Plug-In . SVG Version: 6.00 Build 0)  -->
<svg version="1.1" xmlns="http://www.w3.org/2000/svg" xmlns:xlink="http://www.w3.org/1999/xlink" x="0px" y="0px"
	 viewBox="0 0 380 120" style="enable-background:new 0 0 380 120;" xml:space="preserve">
<style type="text/css">
	.st0{fill:#893277;}
	.st1{fill:#FFFFFF;}
</style>
<g id="Layer_2">
	<rect y="0.3" class="st0" width="380" height="119.6"/>
</g>
<g id="Layer_1">
	<g id="Layer_1_1_">
	</g>
	<g id="Layer_2_1_">
		<g id="layer1" transform="translate(-81.772198,-140.96621)">
			<g id="g4446" transform="translate(0.1322917,-0.13228886)">
				<path id="path4098" class="st1" d="M246.3,208.3c-6.7,0-11,4.9-11,12.1c0,7.3,4.3,12,10.7,12c6.6,0,11-4.8,11-12
					C256.9,213,252.7,208.3,246.3,208.3 M246.2,229c-3.9,0-6.9-3.5-6.9-8.8c0-5.2,2.6-8.6,6.7-8.6c3.9,0,6.8,3.5,6.8,8.8
					C252.9,225.7,250.5,229,246.2,229 M385.5,200.2c-1.4,0-2.4,1.1-2.4,2.4s1.1,2.4,2.4,2.4s2.4-1.1,2.4-2.4
					C388,201.3,386.9,200.2,385.5,200.2 M224,228.6c-7,0-11.3-5-11.3-12.8c0-7.9,5.3-12.6,11.7-12.6c4.4,0,7.3,1.9,7.6,2.2l1.8-2.9
					c-0.4-0.4-3.4-2.9-9.7-2.9c-8.7,0-15.8,6.2-15.8,16.8c0,10.2,6.7,16.1,15.2,16.1c6.4,0,10.3-2.9,10.6-3.4l-1.8-2.9
					C231.9,226.4,228.5,228.6,224,228.6 M402.8,208.3c-6.7,0-11,4.9-11,12.1c0,7.3,4.3,12,10.7,12c6.6,0,11-4.8,11-12
					C413.4,213,409.3,208.3,402.8,208.3 M402.7,229c-3.9,0-6.9-3.5-6.9-8.8c0-5.2,2.6-8.6,6.7-8.6c3.9,0,6.8,3.5,6.8,8.8
					C409.5,225.6,407,229,402.7,229 M428.5,208.3c-3.9,0-6.8,2.1-7.2,2.4v-1.7h-3.6v22.9h4v-18.1c0.2-0.2,3.1-2,6.1-2
					c1.5,0,2.6,0.5,3.3,1.2c1.2,1.2,1.3,3.1,1.3,6v13.1h4v-13.4c0-3.7-0.1-6.1-2.3-8.2C433.3,209.5,431.7,208.3,428.5,208.3
					 M284.7,208.3c-3.4,0-6.1,1.5-8,2.6c-1.1-1.5-2.7-2.6-5.6-2.6c-3.6,0-6.7,2.2-7,2.4v-1.7h-3.6v22.9h4.1v-18.2
					c0.4-0.2,3.1-1.9,5.9-1.9c1.4,0,2.4,0.5,3,1.1c1.2,1.3,1.2,3.4,1.2,6.4v12.7h4V219c0-1.8,0-4.4-0.4-5.3c0.5-0.4,3.3-1.9,6.1-1.9
					c1.4,0,2.4,0.4,3.2,1.2c1.2,1.3,1.2,4.2,1.2,5.5v13.4h4v-13.4c0-3.7-0.1-6.1-2.3-8.2C289.5,209.5,287.9,208.3,284.7,208.3
					 M334,231.8h4v-22.9h-4V231.8z M336,200.2c-1.4,0-2.4,1.1-2.4,2.4s1.1,2.4,2.4,2.4s2.4-1.1,2.4-2.4
					C338.5,201.3,337.4,200.2,336,200.2 M321.2,208.3c-3.4,0-6.1,1.5-8,2.6c-1-1.5-2.7-2.6-5.6-2.6c-3.6,0-6.7,2.2-7.1,2.4v-1.7
					h-3.6v22.9h4.1v-18.2c0.4-0.2,3.1-1.9,5.9-1.9c1.4,0,2.4,0.5,3,1.1c1.2,1.3,1.2,3.4,1.2,6.4v12.7h4V219c0-1.8,0-4.4-0.4-5.3
					c0.5-0.4,3.3-1.9,6.1-1.9c1.4,0,2.4,0.4,3.2,1.2c1.2,1.3,1.2,4.2,1.2,5.5v13.4h4.1v-13.4c0-3.7-0.1-6.1-2.3-8.2
					C326,209.5,324.3,208.3,321.2,208.3 M347.4,214.5c0-1.7,1.5-3.1,4.3-3.1c2.8,0,5.2,1.4,5.4,1.5l1.5-2.7
					c-0.3-0.2-2.8-2.1-7.3-2.1c-4.7,0-8,2.6-8,6.5c0,7.3,11.3,6.3,11.3,11c0,2.1-1.9,3.4-4.4,3.4c-3.4,0-5.6-1.5-6.2-1.7l-1.5,2.8
					c0.3,0.3,3.4,2.3,7.9,2.3s8.4-2.5,8.4-7C358.9,218.1,347.4,218.9,347.4,214.5 M383.5,231.8h4v-22.9h-4V231.8z M366.9,214.5
					c0-1.7,1.5-3.1,4.3-3.1c2.8,0,5.2,1.4,5.4,1.5l1.5-2.7c-0.3-0.2-2.8-2.1-7.3-2.1c-4.7,0-8,2.6-8,6.5c0,7.3,11.3,6.3,11.3,11
					c0,2.1-1.9,3.4-4.4,3.4c-3.4,0-5.6-1.5-6.2-1.7l-1.5,2.8c0.3,0.3,3.4,2.3,7.9,2.3c4.5,0,8.4-2.5,8.4-7
					C378.4,218.1,366.9,218.9,366.9,214.5"/>
				<path id="path4102" class="st1" d="M223.8,192.1c7.1,0,11.1-3.5,11.5-3.9l-2.8-4.4c-0.5,0.3-3.8,2.5-8,2.5
					c-6,0-9.7-4.3-9.7-10.8c0-6.6,4.4-10.6,10.1-10.6c4.5,0,7.1,2.2,7.4,2.4l2.9-4.4c-0.4-0.4-3.5-3.6-10.6-3.6
					c-9.3,0-16.5,6.3-16.5,16.7C208.2,186,215,192.1,223.8,192.1 M237.2,184.5c0,4.4,2.9,7.4,7.4,7.4c3.6,0,6.1-1.9,6.5-2.2v1.6h5.5
					v-13.9c0-3,0.1-5.3-1.9-7.3c-2.3-2.3-5.5-2.5-7.5-2.5c-5.3,0-8.4,2.2-8.8,2.4l2.1,4.1c0.4-0.2,3.1-1.7,6.2-1.7
					c1.7,0,2.7,0.5,3.3,0.9c0.6,0.6,0.7,1.3,0.7,2.7H250C247.2,176.2,237.2,176.3,237.2,184.5 M250.7,185.7
					c-0.3,0.2-1.8,1.5-4.4,1.5c-1.5,0-3.5-0.6-3.5-3.1c0-2.9,2.9-3.6,7-3.6h1L250.7,185.7L250.7,185.7z"/>
				<path id="path4106" class="st1" d="M265.9,176.3c0.7-1,2.6-3.4,6.4-3.4c0.4,0,1.2,0.1,1.5,0.2l1.5-4.8c-0.2,0-1-0.6-2.6-0.6
					c-4.6,0-7.4,3.3-7.6,3.5v-2.9h-5.3v23h6.3L265.9,176.3L265.9,176.3z M285.8,167.6c-6.5,0-11.1,5.3-11.1,12.3
					c0,6.7,4,12.1,11.5,12.1c5.1,0,8.6-2.4,8.8-2.5l-2.1-4c-1,0.5-3.3,1.6-6.2,1.6c-4.6,0-6-3.5-5.9-5.2h15.1c0-0.4,0.1-1,0.1-2
					C296.2,172.4,292.5,167.6,285.8,167.6 M280.8,177.3c0.5-2.9,2.3-5,5.1-5c3.9,0,4.4,3.7,4.4,5H280.8z M342.7,192
					c3.3,0,6.2-2.1,6.5-2.4v1.7h5.3v-23h-6.3v16.9c-0.4,0.3-2.3,1.5-4.3,1.5c-1.5,0-2.2-0.5-2.4-0.8c-0.8-0.8-1-2.4-1-5.3v-12.1
					h-6.3v12.4c0,3-0.1,6.4,2.4,9.1C338.1,191.3,340.2,192,342.7,192 M371,189.7v1.6h5.4v-13.9c0-3,0.1-5.3-1.9-7.3
					c-2.3-2.3-5.6-2.5-7.5-2.5c-5.3,0-8.4,2.2-8.8,2.4l2.1,4.1c0.4-0.2,3.1-1.7,6.2-1.7c1.7,0,2.8,0.5,3.3,0.9
					c0.6,0.6,0.7,1.3,0.7,2.7h-0.6c-2.8,0-12.9,0.2-12.9,8.3c0,4.4,2.9,7.4,7.4,7.4C368.1,191.8,370.6,190,371,189.7 M362.6,184.1
					c0-2.9,2.9-3.6,7-3.6h1v5.3c-0.3,0.2-1.8,1.5-4.4,1.5C364.6,187,362.6,186.4,362.6,184.1 M385.9,157.4h-6.3v33.9h6.3V157.4z
					 M392.3,165.5c2,0,3.6-1.6,3.6-3.6c0-2-1.6-3.6-3.6-3.6s-3.6,1.6-3.6,3.6C388.7,163.8,390.3,165.5,392.3,165.5 M395.5,168.3
					h-6.3v23h6.3V168.3z M411.9,186.7c-2.8,0-2.9-2.1-2.9-3.9v-9.2h6.5v-5.3H409v-6.4h-6.3v6.4h-4v5.3h4v9c0,3.3,0,5.4,2,7.4
					c1.5,1.5,3.9,2.1,6,2.1c3.4,0,5.6-1.4,5.8-1.5l-1.6-4.4C414.3,186.3,413.4,186.7,411.9,186.7 M421.9,197.1
					c-1.8,0-3.3-0.6-3.5-0.8l-1.9,4.5c0.2,0.1,2.4,1.5,5.8,1.5c3.8,0,5.8-1.4,6.7-2.4c1.6-1.6,2.6-3.7,4.4-8.3l9.2-23.3h-6.3
					l-5.8,16.1l-6.2-16.1h-6.7l9.6,23c-0.4,1-1.2,3.4-2.3,4.6C424.3,196.6,423.3,197.1,421.9,197.1 M331.3,175.5
					c0-9.4-6-16.1-15.3-16.1c-9.1,0-15.3,6.5-15.3,16.1c0,9.8,6.1,16.5,15,16.7l0,0h0.4c4.4,0.1,7.3,1.5,9.2,3.9
					c0.6-0.5,5.3-4.5,5.3-4.5s-1.6-2-5.4-2.4C329.2,186.3,331.3,181.5,331.3,175.5 M316.2,186.6c-4.9,0-8.7-4.1-8.7-10.7
					c0-6.5,3.3-11.1,8.3-11.1c5.3,0,8.8,4.4,8.8,10.7C324.6,180.5,322.7,186.6,316.2,186.6"/>
				<path id="path4110" class="st1" d="M175.8,235.4c12.4-8.8,20.5-23.2,20.5-39.6c0-26.8-21.8-48.5-48.5-48.5
					c-26.8,0-48.5,21.8-48.5,48.5c0,26.8,21.8,48.5,48.5,48.5h1.4c12.9,0.2,21.8,4.5,27.5,11.4c1.9-1.3,15.7-13.1,15.7-13.1
					S187.4,236.7,175.8,235.4 M146.8,231.9c12.3-2.5,22.3-11.2,26.7-22.8h-0.1c-4.8,9.2-14.4,15.6-25.6,15.6
					c-16,0-28.8-12.9-28.8-28.8s12.9-28.8,28.8-28.8c11.1,0,20.8,6.3,25.6,15.6h0.1c-4.4-11.6-14.5-20.3-26.7-22.8
					c0.4,0,0.8,0,1.2,0c19.8,0,35.8,16.1,35.8,36.1S167.7,232,148,232C147.5,231.9,147.2,231.9,146.8,231.9"/>
			</g>
		</g>
	</g>
</g>
</svg>
