<svg xmlns="http://www.w3.org/2000/svg" id="prefix__Group_261" width="73.136" height="63.596" data-name="Group 261" viewBox="0 0 73.136 63.596">
    <defs>
        <style>
            .prefix__cls-1{fill:#fff}
        </style>
    </defs>
    <path id="prefix__Path_567" d="M79.033 237.645v-33.388a1.59 1.59 0 0 0-3.18 0v33.388h-1.59a1.59 1.59 0 0 0 0 3.18h4.77a1.59 1.59 0 1 1 0 3.18h-63.6a1.59 1.59 0 1 1 0-3.18H67.9a1.59 1.59 0 0 0 0-3.18H18.617v-12.719a1.59 1.59 0 1 0-3.18 0v12.719a4.77 4.77 0 1 0 0 9.539h63.6a4.77 4.77 0 1 0 0-9.539z" class="prefix__cls-1" data-name="Path 567" transform="translate(-10.667 -183.589)"/>
    <path id="prefix__Path_568" d="M44.257 110.309a1.59 1.59 0 0 0 1.59-1.59v-4.77a4.77 4.77 0 0 1 4.77-4.77h25.438a1.59 1.59 0 0 0 0-3.18H50.617a7.959 7.959 0 0 0-7.95 7.95v4.77a1.59 1.59 0 0 0 1.59 1.59z" class="prefix__cls-1" data-name="Path 568" transform="translate(-37.897 -92.821)"/>
    <path id="prefix__Path_569" d="M324.108 74.67h-22.259a3.179 3.179 0 0 0-3.179 3.179v9.539a3.179 3.179 0 0 0 3.179 3.179h1.316a1.863 1.863 0 0 1 1.863 1.863 1.865 1.865 0 0 0 3.181 1.318l2.634-2.635a1.863 1.863 0 0 1 1.316-.546h11.948a3.18 3.18 0 0 0 3.181-3.179v-9.539a3.18 3.18 0 0 0-3.18-3.179zm-17.489 9.539a1.59 1.59 0 1 1 1.59-1.59 1.591 1.591 0 0 1-1.59 1.59zm6.36 0a1.59 1.59 0 1 1 1.589-1.59 1.591 1.591 0 0 1-1.589 1.59zm6.359 0a1.59 1.59 0 1 1 1.59-1.59 1.59 1.59 0 0 1-1.59 1.59z" class="prefix__cls-1" data-name="Path 569" transform="translate(-255.742 -74.67)"/>
    <path id="prefix__Path_570" d="M46.769 213.33H24.511a3.18 3.18 0 0 0-3.181 3.181v9.539a3.18 3.18 0 0 0 3.181 3.179h11.948a1.863 1.863 0 0 1 1.316.546l2.634 2.634a1.864 1.864 0 0 0 3.181-1.316 1.863 1.863 0 0 1 1.863-1.863h1.316a3.179 3.179 0 0 0 3.179-3.179v-9.539a3.18 3.18 0 0 0-3.179-3.182zm-17.488 9.54a1.59 1.59 0 1 1 1.589-1.589 1.59 1.59 0 0 1-1.589 1.589zm6.359 0a1.59 1.59 0 1 1 1.59-1.589 1.588 1.588 0 0 1-1.591 1.589zm6.36 0a1.59 1.59 0 1 1 1.59-1.589A1.59 1.59 0 0 1 42 222.87z" class="prefix__cls-1" data-name="Path 570" transform="translate(-19.741 -192.662)"/>
</svg>
