<svg xmlns="http://www.w3.org/2000/svg" id="prefix__Group_97" width="131.206" height="130" data-name="Group 97" viewBox="0 0 131.206 130">
    <defs>
        <style>
            .prefix__cls-3{fill:#fed298}.prefix__cls-6{fill:#fff}
        </style>
    </defs>
    <circle id="prefix__Ellipse_50" cx="64.841" cy="64.841" r="64.841" fill="#e2e2e2" data-name="Ellipse 50"/>
    <path id="prefix__Path_208" fill="#666" d="M150.882 150.13c-5.033-12.7-15.606-24.19-2.3-47.338 5.479-9.533 13.849-15.82 22.5-13.692 8.645-2.128 17.015 4.158 22.494 13.692 13.3 23.147 2.731 34.639-2.3 47.338l-20.192.051-20.192-.051z" data-name="Path 208" transform="translate(-106.037 -66.168)"/>
    <path id="prefix__Path_209" d="M112.053 330.3c-.571.922-1.915 8.107-3.456 14.335a65.017 65.017 0 0 0 74.856 0c-1.541-6.227-2.886-13.411-3.457-14.333-9.7-15.656-24.641-8.821-25.661-26.737 0 0-4.808 3.587-8.48 3.621s-8.145-3.394-8.145-3.394c-1.017 17.9-15.967 10.865-25.656 26.511z" class="prefix__cls-3" data-name="Path 209" transform="translate(-81.024 -226.483)"/>
    <path id="prefix__Path_210" fill="#f0ba7d" d="M239.352 306.086c-.12-.786-.209-1.626-.26-2.531 0 0-4.808 3.587-8.48 3.621s-8.145-3.394-8.145-3.394c-.052.922-.143 1.773-.267 2.568l.283.224v.013c.283.246 4.581 3.942 8.13 3.905 3.55.038 7.848-3.659 8.13-3.905v-.013c.207-.159.409-.323.609-.488z" data-name="Path 210" transform="translate(-165.782 -226.48)"/>
    <path id="prefix__Path_211" d="M197.072 200.417c.283.213 4.581 3.415 8.13 3.382 3.55.032 7.848-3.17 8.13-3.382 5.365-3.128 9.768-12.35 8.773-22.345-.814-8.187-9.671 3.817-15.839-13.075-8.73 18.289-17.022 7.47-17.969 14.4-1.04 7.637 3.248 17.246 8.775 21.02z" class="prefix__cls-3" data-name="Path 211" transform="translate(-140.372 -123.103)"/>
    <path id="prefix__Path_212" fill="#add11f" d="M130.318 353.647c-5.283 2.823-14.949 2.909-18.627 8.82-.588.944-1.988 11.624-3.579 19.123a65.021 65.021 0 0 0 75.1 0c-1.618-7.485-3.165-18.091-3.576-19.125-2.442-6.159-13.747-6.416-19.036-9.256-8.223 29.836-20.479 31.869-30.278.44z" data-name="Path 212" transform="translate(-80.662 -263.529)"/>
    <g id="prefix__Group_96" data-name="Group 96" transform="translate(41.413 87.154)">
        <path id="prefix__Path_213" d="M174.868 343.254c-.344 9.282 1.234 22.432 11.65 25.793-9.805.409-16.169-13.719-23.416-17.419l11.767-8.373z" class="prefix__cls-6" data-name="Path 213" transform="translate(-163.102 -343.254)"/>
        <path id="prefix__Path_214" d="M267.559 343.254c.36 9.282-1.3 22.432-12.234 25.793 10.3.409 16.979-13.719 24.589-17.419l-12.355-8.373z" class="prefix__cls-6" data-name="Path 214" transform="translate(-231.909 -343.254)"/>
    </g>
    <path id="prefix__Path_215" fill="#ff5b62" d="M378.22 30a20.144 20.144 0 0 1 .365 40.285c-4.834 2.277-11.624 5.448-11.547 5.259.065-.16 2.513-3.407 4.718-6.314A20.148 20.148 0 0 1 378.222 30z" data-name="Path 215" transform="translate(-267.159 -22.383)"/>
    <path id="prefix__Path_216" d="M386.844 88.686h27.631v.963h-27.631zm0 9.286h17.237v.963h-17.237zm0-4.643h27.631v.963h-27.631z" class="prefix__cls-6" data-name="Path 216" transform="translate(-288.622 -66.168)"/>
</svg>
