<?xml version="1.0" encoding="utf-8"?>
<!-- Generator: Adobe Illustrator 24.2.1, SVG Export Plug-In . SVG Version: 6.00 Build 0)  -->
<svg version="1.1" xmlns="http://www.w3.org/2000/svg" xmlns:xlink="http://www.w3.org/1999/xlink" x="0px" y="0px"
	 viewBox="0 0 759 228" style="enable-background:new 0 0 759 228;" xml:space="preserve">
<style type="text/css">
	.st0{fill-rule:evenodd;clip-rule:evenodd;}
	.st1{fill-rule:evenodd;clip-rule:evenodd;fill:#A6A6A6;}
	.st2{fill:#FFFFFF;}
	.st3{fill-rule:evenodd;clip-rule:evenodd;fill:#FFFFFF;}
	.st4{fill-rule:evenodd;clip-rule:evenodd;fill:url(#SVGID_1_);}
	.st5{fill-rule:evenodd;clip-rule:evenodd;fill:url(#SVGID_2_);}
	.st6{fill-rule:evenodd;clip-rule:evenodd;fill:url(#SVGID_3_);}
	.st7{fill-rule:evenodd;clip-rule:evenodd;fill:url(#SVGID_4_);}
	.st8{opacity:0.2;fill-rule:evenodd;clip-rule:evenodd;enable-background:new    ;}
	.st9{opacity:0.12;fill-rule:evenodd;clip-rule:evenodd;enable-background:new    ;}
	.st10{opacity:0.25;fill-rule:evenodd;clip-rule:evenodd;fill:#FFFFFF;enable-background:new    ;}
</style>
<g id="Layer_1">
</g>
<g id="Layer_2">
	<path class="st0" d="M730.6,228.8H28.5c-15.5,0-28.1-12.9-28.1-28.6V28.6C0.4,12.8,13,0,28.5,0h702.1c15.5,0,28.1,12.8,28.1,28.6
		v171.6C758.7,215.9,746,228.8,730.6,228.8z"/>
	<path class="st1" d="M730.6,4.6c13,0,23.6,10.8,23.6,24v171.6c0,13.2-10.6,24-23.6,24H28.5c-13,0-23.6-10.8-23.6-24V28.6
		c0-13.2,10.6-24,23.6-24C28.5,4.6,730.6,4.6,730.6,4.6z M730.6,0H28.5C13,0,0.4,12.9,0.4,28.6v171.6c0,15.8,12.6,28.6,28.1,28.6
		h702.1c15.5,0,28.1-12.8,28.1-28.6V28.6C758.7,12.9,746,0,730.6,0z"/>
	<path class="st2" d="M399.9,75.7c-5.1,0-9.3-1.8-12.7-5.4c-3.3-3.5-5.2-8.2-5.1-13.1c0-5.2,1.7-9.6,5.1-13.1
		c3.4-3.6,7.6-5.4,12.7-5.4c5,0,9.3,1.8,12.7,5.4c3.4,3.6,5.1,8,5.1,13.1c-0.1,5.2-1.8,9.6-5.1,13.1
		C409.2,73.9,404.9,75.7,399.9,75.7z M249.2,75.7c-5,0-9.2-1.8-12.8-5.3c-3.5-3.5-5.3-7.9-5.3-13.2s1.8-9.7,5.3-13.2
		c3.4-3.5,7.7-5.3,12.8-5.3c2.5,0,4.8,0.5,7.1,1.5c2.2,1,4.1,2.3,5.4,4l0.3,0.4l-3.8,3.8l-0.4-0.5c-2.1-2.6-5-3.9-8.8-3.9
		c-3.4,0-6.3,1.2-8.7,3.7c-2.4,2.4-3.7,5.6-3.7,9.5s1.2,7.1,3.7,9.5c2.4,2.4,5.4,3.7,8.7,3.7c3.6,0,6.6-1.2,9-3.7
		c1.4-1.4,2.3-3.4,2.6-5.9h-12.1v-5.3h17.3l0.1,0.5c0.1,0.9,0.3,1.8,0.3,2.7c0,4.9-1.5,8.9-4.3,11.8
		C258.6,73.9,254.3,75.7,249.2,75.7z M449.5,74.9h-5.3l-16.4-26.8L428,53v21.9h-5.3V39.5h6.1l0.2,0.3l15.4,25.2l-0.1-4.8V39.5h5.4
		L449.5,74.9L449.5,74.9z M359.7,74.9h-5.4V44.8h-9.4v-5.3h24.2v5.3h-9.4L359.7,74.9L359.7,74.9z M340.5,74.9h-5.4V39.5h5.4V74.9z
		 M310.2,74.9h-5.4V44.8h-9.4v-5.3h24.2v5.3h-9.4V74.9z M292,74.9h-20.7V39.5H292v5.3h-15.3v9.7h13.8v5.3h-13.8v9.7H292V74.9z
		 M391.1,66.6c2.4,2.5,5.3,3.7,8.7,3.7c3.5,0,6.4-1.2,8.7-3.7c2.4-2.4,3.6-5.6,3.6-9.4s-1.2-7-3.6-9.4c-2.4-2.5-5.4-3.7-8.7-3.7
		c-3.5,0-6.4,1.2-8.7,3.7c-2.4,2.4-3.6,5.6-3.6,9.4S388.8,64.2,391.1,66.6L391.1,66.6z"/>
	<path class="st3" d="M381.5,124.4c-13.2,0-23.9,10.2-23.9,24.3c0,14,10.8,24.3,23.9,24.3c13.2,0,23.9-10.3,23.9-24.3
		C405.4,134.6,394.7,124.4,381.5,124.4z M381.5,163.4c-7.2,0-13.4-6.1-13.4-14.7c0-8.8,6.2-14.7,13.4-14.7c7.2,0,13.4,6,13.4,14.7
		C394.9,157.4,388.7,163.4,381.5,163.4z M329.4,124.4c-13.2,0-23.9,10.2-23.9,24.3c0,14,10.8,24.3,23.9,24.3
		c13.2,0,23.9-10.3,23.9-24.3C353.3,134.6,342.6,124.4,329.4,124.4z M329.4,163.4c-7.2,0-13.4-6.1-13.4-14.7
		c0-8.8,6.2-14.7,13.4-14.7c7.2,0,13.4,6,13.4,14.7C342.9,157.4,336.7,163.4,329.4,163.4z M267.5,131.8v10.3h24.2
		c-0.7,5.8-2.6,10-5.5,13c-3.5,3.6-9,7.6-18.7,7.6c-14.9,0-26.5-12.3-26.5-27.5s11.6-27.5,26.5-27.5c8,0,13.9,3.2,18.2,7.4l7.1-7.3
		c-6-5.9-14-10.4-25.3-10.4c-20.4,0-37.5,17-37.5,37.7c0,20.8,17.1,37.7,37.5,37.7c11,0,19.3-3.7,25.8-10.6
		c6.7-6.8,8.8-16.4,8.8-24.1c0-2.4-0.2-4.6-0.6-6.4h-34.1C267.5,131.7,267.5,131.8,267.5,131.8z M520.9,139.9
		c-2-5.5-8-15.5-20.4-15.5c-12.2,0-22.4,9.9-22.4,24.3c0,13.7,10.1,24.3,23.6,24.3c10.9,0,17.2-6.8,19.8-10.8l-8.1-5.5
		c-2.7,4.1-6.4,6.7-11.7,6.7c-5.3,0-9.1-2.5-11.6-7.4l31.8-13.5C522,142.6,520.9,139.9,520.9,139.9z M488.5,148
		c-0.3-9.4,7.1-14.2,12.4-14.2c4.2,0,7.6,2.1,8.8,5.1L488.5,148z M462.6,171.6h10.4v-71.5h-10.4V171.6z M445.5,129.8h-0.4
		c-2.4-2.9-6.8-5.5-12.6-5.5c-11.9,0-22.8,10.7-22.8,24.4c0,13.7,10.9,24.2,22.8,24.2c5.6,0,10.2-2.6,12.6-5.5h0.4v3.5
		c0,9.3-4.9,14.3-12.7,14.3c-6.4,0-10.4-4.7-12-8.6l-9.1,3.9c2.6,6.4,9.6,14.4,21.1,14.4c12.2,0,22.6-7.4,22.6-25.4v-43.7h-9.9
		L445.5,129.8C445.5,129.8,445.5,129.8,445.5,129.8z M433.5,163.4c-7.2,0-13.2-6.2-13.2-14.7c0-8.6,6-14.8,13.2-14.8
		c7.1,0,12.7,6.3,12.7,14.8C446.2,157.3,440.6,163.4,433.5,163.4z M569.8,100.1h-25v71.5h10.4v-27.1h14.5c11.6,0,22.9-8.6,22.9-22.2
		S581.5,100.1,569.8,100.1z M570.2,134.5h-14.9V110h14.9c7.8,0,12.2,6.6,12.2,12.3C582.4,127.9,577.9,134.5,570.2,134.5z
		 M634.7,124.3c-7.6,0-15.4,3.4-18.7,10.9l9.3,3.9c2-3.9,5.6-5.3,9.5-5.3c5.4,0,10.9,3.3,11,9.2v0.8c-1.9-1.1-6-2.7-10.9-2.7
		c-10,0-20.1,5.6-20.1,16.1c0,9.6,8.2,15.8,17.3,15.8c7,0,10.9-3.2,13.3-7h0.4v5.5h10.1v-27.4C655.9,131.3,646.6,124.3,634.7,124.3z
		 M633.4,163.4c-3.4,0-8.2-1.7-8.2-6.1c0-5.5,6-7.6,11.1-7.6c4.6,0,6.8,1,9.5,2.4C645,158.5,639.7,163.4,633.4,163.4z M692.6,125.8
		l-12,31h-0.4l-12.4-31h-11.2l18.7,43.3l-10.6,24.1h10.9l28.7-67.4H692.6z M598.6,171.6H609v-71.5h-10.4V171.6z"/>
	
		<linearGradient id="SVGID_1_" gradientUnits="userSpaceOnUse" x1="1617.5233" y1="-1123.7362" x2="1609.4226" y2="-1119.5547" gradientTransform="matrix(11.64 0 0 22.55 -18705.5957 25391.4199)">
		<stop  offset="0" style="stop-color:#00A0FF"/>
		<stop  offset="6.569999e-03" style="stop-color:#00A1FF"/>
		<stop  offset="0.2601" style="stop-color:#00BEFF"/>
		<stop  offset="0.5122" style="stop-color:#00D2FF"/>
		<stop  offset="0.7604" style="stop-color:#00DFFF"/>
		<stop  offset="1" style="stop-color:#00E3FF"/>
	</linearGradient>
	<path class="st4" d="M58.8,43.1c-1.6,1.8-2.6,4.5-2.6,8.1v126.5c0,3.6,0.9,6.3,2.6,8l0.4,0.4l69.3-70.9v-1.6L59.2,42.7L58.8,43.1z"
		/>
	
		<linearGradient id="SVGID_2_" gradientUnits="userSpaceOnUse" x1="1585.0405" y1="-1135.2695" x2="1570.2399" y2="-1135.2695" gradientTransform="matrix(9.145 0 0 7.7 -14305.5381 8855.9512)">
		<stop  offset="0" style="stop-color:#FFE000"/>
		<stop  offset="0.4087" style="stop-color:#FFBD00"/>
		<stop  offset="0.7754" style="stop-color:#FFA500"/>
		<stop  offset="1" style="stop-color:#FF9C00"/>
	</linearGradient>
	<path class="st5" d="M151.6,138.8l-23.1-23.6v-1.7l23.1-23.6l0.5,0.3l27.3,15.9c7.8,4.5,7.8,12,0,16.5l-27.3,15.9
		C152.1,138.5,151.6,138.8,151.6,138.8z"/>
	
		<linearGradient id="SVGID_3_" gradientUnits="userSpaceOnUse" x1="1650.4395" y1="-1127.361" x2="1641.8431" y2="-1116.2087" gradientTransform="matrix(15.02 0 0 11.5775 -24650.2285 13179.4004)">
		<stop  offset="0" style="stop-color:#FF3A44"/>
		<stop  offset="1" style="stop-color:#C31162"/>
	</linearGradient>
	<path class="st6" d="M152.1,138.5l-23.6-24.1l-69.7,71.3c2.6,2.8,6.8,3.1,11.6,0.4L152.1,138.5"/>
	
		<linearGradient id="SVGID_4_" gradientUnits="userSpaceOnUse" x1="1643.8192" y1="-1137.2064" x2="1647.6578" y2="-1132.2238" gradientTransform="matrix(15.02 0 0 11.5715 -24650.2285 13161.1191)">
		<stop  offset="0" style="stop-color:#32A071"/>
		<stop  offset="6.850000e-02" style="stop-color:#2DA771"/>
		<stop  offset="0.4762" style="stop-color:#15CF74"/>
		<stop  offset="0.8009" style="stop-color:#06E775"/>
		<stop  offset="1" style="stop-color:#00F076"/>
	</linearGradient>
	<path class="st7" d="M152.1,90.2L70.4,42.8c-4.8-2.8-9.1-2.4-11.6,0.4l69.7,71.2L152.1,90.2z"/>
	<path class="st8" d="M151.6,138l-81.2,47.1c-4.5,2.7-8.6,2.5-11.2,0.1l-0.4,0.4l0.4,0.4c2.6,2.4,6.7,2.6,11.2-0.1l81.7-47.5
		L151.6,138z"/>
	<path class="st9" d="M179.5,121.8L151.5,138l0.5,0.5l27.3-15.9c3.9-2.3,5.8-5.3,5.8-8.3C185,117.1,183,119.7,179.5,121.8z"/>
	<path class="st10" d="M70.4,43.6l109.1,63.3c3.5,2,5.5,4.7,5.8,7.4c0-3-1.9-6-5.8-8.3L70.4,42.8c-7.8-4.6-14.2-0.8-14.2,8.4V52
		C56.2,42.8,62.6,39.1,70.4,43.6z"/>
</g>
</svg>
