<svg xmlns="http://www.w3.org/2000/svg" width="75" height="78.075" viewBox="0 0 75 78.075">
    <defs>
        <style>
            .prefix__cls-2{fill:#fed298}.prefix__cls-3{fill:#e8b57f}.prefix__cls-6{fill:#ff878e}
        </style>
    </defs>
    <g id="prefix__Group_608" data-name="Group 608" transform="translate(0 4.1)">
        <circle id="prefix__Ellipse_149" cx="37.5" cy="37.5" r="37.5" fill="#1452b5" data-name="Ellipse 149" transform="translate(0 -1.025)"/>
        <g id="prefix__Group_607" data-name="Group 607" transform="translate(7.64 -4.1)">
            <g id="prefix__Group_603" data-name="Group 603" transform="translate(12.807)">
                <path id="prefix__Path_926" d="M290.623 98.776l1.8-1.67c.7-.344 1.54.595 1.472 1.12l-1.328 2.262c-.211.36-2.023-.846-1.946-1.711z" class="prefix__cls-2" data-name="Path 926" transform="translate(-265.807 -84.353)"/>
                <path id="prefix__Path_927" d="M170.823 60.081c-2.789-5.436-3.681-10.754-.237-15.815l6.6-6.29-2.17-3.758-6.732 2.452-1.316-7.412c-.579-1.025-4.453-.822-4.77 1.011 0 0 .07 6.158-.073 8.735s-8.833 7.792-3.749 22.2c2.04 8.679 12.45-1.123 12.45-1.123z" class="prefix__cls-2" data-name="Path 927" transform="translate(-156.778 -28.643)"/>
            </g>
            <g id="prefix__Group_604" data-name="Group 604" transform="translate(18.282 5.47)">
                <path id="prefix__Path_928" d="M250.489 58.753a1.611 1.611 0 0 1 2.532.018 2.417 2.417 0 0 1 .452 2.959 1.611 1.611 0 0 1-2.532-.019 2.416 2.416 0 0 1-.452-2.959z" class="prefix__cls-3" data-name="Path 928" transform="translate(-238.324 -58.149)"/>
                <path id="prefix__Path_929" d="M211.056 109.706c.864-4.393-1.987-16.143-12.861-15.563s-11.887 13.139-11.887 13.139l6.071 2.31s2.108-6.056 7.006-6.344 3.456 3.952 3.456 3.952l8.214 2.507z" class="prefix__cls-3" data-name="Path 929" transform="translate(-186.308 -87.452)"/>
            </g>
            <path id="prefix__Path_930" d="M262.345 84.278l1.485-2.452c.44-.642 2.06.04 2 .68l-.667 2.817c-.095.419-2.685-.204-2.818-1.045z" class="prefix__cls-2" data-name="Path 930" transform="translate(-229.967 -71.756)"/>
            <path id="prefix__Path_931" fill="#ff5b62" d="M154.8 158.063c11.875 2.969 18.974 23.105 16.393 37.821s-13.554 17.942-23.235 12.778-24.267-10.068-25.3-22.847c-1.794-22.2 9.524-33.407 32.141-27.753z" data-name="Path 931" transform="translate(-116.027 -132.887)"/>
            <path id="prefix__Path_932" fill="#ed4c54" d="M170.647 225.633a42.44 42.44 0 0 1 .549 16.081c-2.582 14.715-13.554 17.942-23.235 12.778s-24.267-10.068-25.3-22.847a43.5 43.5 0 0 1 .653-12.773 38.7 38.7 0 0 1 6.166-6c-12.132 15.689-1.113 30.124 12.726 36.721 5.383 2.566 11.834 5.322 16.9 4.547 11.335-1.732 11.406-15.569 11.538-28.507z" data-name="Path 932" transform="translate(-116.03 -178.717)"/>
            <g id="prefix__Group_605" data-name="Group 605" transform="translate(0 23.516)">
                <path id="prefix__Path_933" d="M307.506 159.043s3.476-5.434 8.924-2.867 2.642 13.722 1.748 14.2.325-1.853-3-5.059-9.261-2.704-7.672-6.274z" class="prefix__cls-6" data-name="Path 933" transform="translate(-266.539 -155.487)"/>
                <path id="prefix__Path_934" d="M98.632 156.29c-13 3.308-12 18.587-9.125 25.552s6.078 6.736 6.05 6.546c-.791-5.487-2.97-16.622 6.166-20.977 4.512-2.151 8.019-4.8 7.666-7.21-.421-2.86-5.556-5.234-10.757-3.911z" class="prefix__cls-6" data-name="Path 934" transform="translate(-87.698 -155.835)"/>
            </g>
            <path id="prefix__Path_935" d="M218.513 124.8l3.259-4.68c4.492-7.29 13.123-4.334 10.42 9.657 0 0-6.376-6.125-13.679-4.977z" class="prefix__cls-2" data-name="Path 935" transform="translate(-194.261 -100.017)"/>
            <path id="prefix__Path_936" d="M209.879 162.021a2.519 2.519 0 0 1 2.6-2.693c2.816-.216 11.46 1.8 12.575 4.012s4.754 3.665 5.146 4.669-2.834-2.316-8.466-2.656-7.347-2-9.5-2.061-4.332-.441-2.348-1.272z" class="prefix__cls-6" data-name="Path 936" transform="translate(-186.592 -135.087)"/>
            <path id="prefix__Path_937" d="M278.967 90.55l1.281-2.034c.61-.583 2.176.239 1.835.864l-.778 2.317c-.123.367-2.283-.364-2.338-1.147z" class="prefix__cls-2" data-name="Path 937" transform="translate(-243.507 -77.253)"/>
            <g id="prefix__Group_606" data-name="Group 606" transform="translate(7.507 30.362)">
                <path id="prefix__Path_938" d="M244.447 227.324a.332.332 0 0 1-.593.3 9.237 9.237 0 0 1-.583-5.849 26.113 26.113 0 0 0 .769-5.133 8.661 8.661 0 0 1-1.97-.958 8.457 8.457 0 0 1-1.6-1.341c-.825-.153-1.931 4.522-2.463 7.026a.326.326 0 0 1-.026.121c-.159.75-.26 1.283-.281 1.393a5.244 5.244 0 0 1-2.159 3.621c-1.792 1.321-1.99 7.774-1.991 7.792a.332.332 0 1 1-.663-.021c0-.019.207-6.792 2.261-8.307a4.524 4.524 0 0 0 1.89-3.148.307.307 0 0 1 .008-.053c.012-.065.066-.342.154-.762l-.141.094-.018.013a6.387 6.387 0 0 1-2.854 1.062c-2.282.446-2.41 1.625-2.41 1.628a.332.332 0 1 1-.661-.067s.181-1.674 2.943-2.214a5.833 5.833 0 0 0 2.609-.96l.02-.012a5.794 5.794 0 0 1 .7-.421c.522-2.32 1.571-6.358 2.718-7.25l-.007-.015-.007-.013a28.4 28.4 0 0 1-2.585-7.215c-1.472.3-1.027 3.7-1.026 3.714a.332.332 0 0 1-.658.083c0-.012-.544-4.154 1.622-4.465 0-.079-.006-.158-.006-.234 0-2.364.728-8.435.977-10.437a2.219 2.219 0 0 1-.869.432 6.26 6.26 0 0 0-1.822.645 2.143 2.143 0 0 0-.926 1.281c-.113.372-.293.861-.5 1.411-.6 1.616-1.4 3.787-1.081 4.32v.007a12.738 12.738 0 0 1 1.209 4.956 18.184 18.184 0 0 1-.493 5.535.332.332 0 1 1-.645-.156 17.512 17.512 0 0 0 .475-5.335 12.89 12.89 0 0 0-1.012-4.467c-3.56.785-2.091 5.671-2.086 5.685a.332.332 0 1 1-.637.187c-.005-.016-1.659-5.515 2.488-6.5-.115-1.027.6-2.968 1.154-4.466.2-.553.386-1.046.485-1.375a2.846 2.846 0 0 1 .881-1.412 3.3 3.3 0 0 0-2.1-1.293 9.585 9.585 0 0 0-4.2.084 9.081 9.081 0 0 1-2.742.265.332.332 0 0 1 .036-.663 8.381 8.381 0 0 0 2.524-.241 10.354 10.354 0 0 1 4.534-.093 3.926 3.926 0 0 1 2.494 1.573 7.845 7.845 0 0 1 1.793-.6 1.9 1.9 0 0 0 1.108-.848.324.324 0 0 1 .068-.1 4.668 4.668 0 0 0 .549-1.439.333.333 0 0 1 .656.112 5.387 5.387 0 0 1-.629 1.64c0 .047.005.11.012.182a.252.252 0 0 1 .005.047c.029.247.105.566.3.659a9.51 9.51 0 0 1 1.7 2.057V197.399l.153.212a24.405 24.405 0 0 0 2.094 2.687 1.264 1.264 0 0 0 1.611.344.333.333 0 1 1 .369.554 1.912 1.912 0 0 1-2.439-.416 21.211 21.211 0 0 1-1.943-2.46 7.266 7.266 0 0 0 .095 2.7 5.251 5.251 0 0 0 1.3 2.89c1.308.9.951 3.472.95 3.479a.332.332 0 1 1-.658-.083c0-.006.3-2.181-.67-2.849a5.819 5.819 0 0 1-1.577-3.307 6.96 6.96 0 0 1 .06-3.52 10.783 10.783 0 0 0-1.348-1.7.876.876 0 0 1-.156-.095c-.285 2.333-.913 7.709-.913 9.894 0 2.686 2.324 7.308 2.58 7.818l.007.014.01.019a1.338 1.338 0 0 0 .154.211.326.326 0 0 1 .073.083 7.745 7.745 0 0 0 1.5 1.25 7.935 7.935 0 0 0 2.02.948.351.351 0 0 1 .046.014l.194.055c2.675.709 3.981 6.1 3.984 6.113a.332.332 0 1 1-.645.161c0-.014-1.161-4.771-3.335-5.576a27.116 27.116 0 0 1-.78 5.1 8.5 8.5 0 0 0 .531 5.389z" class="prefix__cls-6" data-name="Path 938" transform="translate(-207.619 -192.411)"/>
                <path id="prefix__Path_939" d="M139.956 245.043a.284.284 0 0 1-.235.518 7.924 7.924 0 0 1-3.549-3.583 22.4 22.4 0 0 0-2.26-3.836 7.443 7.443 0 0 1-1.831.426 7.265 7.265 0 0 1-1.792-.029c-.633.344 1.155 4.057 2.154 6.013a.281.281 0 0 1 .048.095c.3.586.52 1 .565 1.08a4.5 4.5 0 0 1 .517 3.579c-.481 1.848 2.873 6.257 2.882 6.269a.285.285 0 1 1-.453.344c-.01-.013-3.531-4.638-2.981-6.757a3.88 3.88 0 0 0-.441-3.119.308.308 0 0 1-.023-.04c-.027-.05-.141-.264-.309-.591l-.044.14v.018a5.483 5.483 0 0 1-1.329 2.249c-1.28 1.53-.728 2.385-.727 2.387a.285.285 0 0 1-.477.312s-.784-1.213.766-3.065a5.006 5.006 0 0 0 1.22-2.049l.006-.018a4.937 4.937 0 0 1 .241-.66c-.905-1.828-2.388-5.086-2.105-6.3l-.013-.006-.012-.006c-.161-.072-.78-.351-1.58-.765.048-.19.1-.376.151-.562.838.436 1.5.733 1.662.808l.013.006.017.007a1.117 1.117 0 0 0 .217.057.286.286 0 0 1 .093.016 6.673 6.673 0 0 0 1.675.022 6.81 6.81 0 0 0 1.859-.46l.038-.016.16-.069c2.166-.972 5.947 1.914 5.957 1.922a.285.285 0 0 1-.343.456c-.009-.007-3.35-2.552-5.234-1.915a23.276 23.276 0 0 1 2.233 3.819 7.293 7.293 0 0 0 3.266 3.305z" class="prefix__cls-6" data-name="Path 939" transform="translate(-128.192 -228.803)"/>
            </g>
        </g>
    </g>
</svg>
