<svg xmlns="http://www.w3.org/2000/svg" width="77.265" height="75" viewBox="0 0 77.265 75">
    <defs>
        <style>
            .prefix__cls-2{fill:#ffb3b7}.prefix__cls-4{fill:#ff8087}.prefix__cls-5{fill:#dc4655}.prefix__cls-6{fill:#efefef}.prefix__cls-9{fill:#eef3f7}
        </style>
    </defs>
    <g id="prefix__Group_660" data-name="Group 660" transform="translate(15.463)">
        <circle id="prefix__Ellipse_161" cx="37.5" cy="37.5" r="37.5" fill="#1452b5" data-name="Ellipse 161" transform="translate(-13.198)"/>
        <path id="prefix__Path_1006" d="M155.9 127.743a2.344 2.344 0 0 0 2.261-1.727l2.14-7.845a7.031 7.031 0 0 0-1.158-6.068l-.431-.575a2.328 2.328 0 0 1-.093-2.678c2.314-3.522 8.171-14.017 8.436-30.343a1.662 1.662 0 0 0-1.11-1.6c-1.951-.68-6.509-1.9-14.114-1.9s-12.163 1.219-14.114 1.9a1.662 1.662 0 0 0-1.11 1.6c.266 16.326 6.123 26.821 8.436 30.343a2.328 2.328 0 0 1-.093 2.678l-.431.575a7.031 7.031 0 0 0-1.158 6.068l2.14 7.845a2.344 2.344 0 0 0 2.261 1.727z" class="prefix__cls-2" data-name="Path 1006" transform="translate(-129.794 -64.024)"/>
        <path id="prefix__Path_1007" fill="#e6646e" d="M59.159 47.769a7 7 0 0 0-6.059-4.714c-.282-.027-.57-.041-.87-.041-2.951 0-6.885 1.97-11.441 4.251C34.9 50.216 28.22 53.56 22.037 53.56S9.176 50.216 3.283 47.265c-4.555-2.281-8.49-4.251-11.441-4.251-.3 0-.588.014-.87.041a7 7 0 0 0-6.057 4.714 6.91 6.91 0 0 0 1.866 7.349l4.38 4.084a1.167 1.167 0 0 0 .8.315 1.17 1.17 0 0 0 .857-.373 1.171 1.171 0 0 0-.058-1.656l-4.378-4.082a4.592 4.592 0 0 1-1.247-4.882A4.62 4.62 0 0 1-8.8 45.388q.312-.03.645-.03c2.4 0 6.281 1.944 10.392 4a100.962 100.962 0 0 0 9.663 4.416 4.723 4.723 0 0 1 3.108 4.409v4.527a7 7 0 0 0 2.121 5.025 4.637 4.637 0 0 1 1.395 3.323v4.567a3.793 3.793 0 0 0 1.469 3 2.281 2.281 0 0 1 .875 1.819v7.121a2.339 2.339 0 0 1-.941 1.87 3.483 3.483 0 0 0-1.4 2.795v8.2h7.031v-8.2a3.483 3.483 0 0 0-1.4-2.795 2.339 2.339 0 0 1-.941-1.87V80.5a2.336 2.336 0 0 1 .939-1.868 3.5 3.5 0 0 0 1.4-2.8v-4.773a4.637 4.637 0 0 1 1.395-3.323 7 7 0 0 0 2.121-5.025v-4.528a4.723 4.723 0 0 1 3.108-4.409 100.925 100.925 0 0 0 9.665-4.414c4.11-2.059 7.994-4 10.392-4q.333 0 .645.03A4.627 4.627 0 0 1 55.7 53.4l-4.09 3.793a1.172 1.172 0 1 0 1.59 1.719l4.092-3.8a6.909 6.909 0 0 0 1.867-7.343z" data-name="Path 1007" transform="translate(0 -36.713)"/>
        <ellipse id="prefix__Ellipse_162" cx="5.048" cy="6.169" class="prefix__cls-2" data-name="Ellipse 162" rx="5.048" ry="6.169" transform="rotate(-56.871 17.668 23.503)"/>
        <path id="prefix__Path_1008" d="M29.948 133.867a8.234 8.234 0 0 1 4.119-.99 7.506 7.506 0 0 0-.886-.688c-2.854-1.862-6.4-1.479-7.926.856a5.16 5.16 0 0 0 .659 6 7.643 7.643 0 0 1 4.034-5.178z" class="prefix__cls-4" data-name="Path 1008" transform="translate(-34.165 -111.817)"/>
        <ellipse id="prefix__Ellipse_163" cx="6.169" cy="5.048" class="prefix__cls-2" data-name="Ellipse 163" rx="6.169" ry="5.048" transform="rotate(-33.129 59.854 -55.185)"/>
        <path id="prefix__Path_1009" d="M395.759 133.867a8.234 8.234 0 0 0-4.119-.99 7.506 7.506 0 0 1 .886-.688c2.854-1.862 6.4-1.479 7.926.856a5.16 5.16 0 0 1-.659 6 7.643 7.643 0 0 0-4.034-5.178z" class="prefix__cls-4" data-name="Path 1009" transform="translate(-347.469 -111.817)"/>
        <g id="prefix__Group_657" data-name="Group 657" transform="translate(13.544 15.167)">
            <path id="prefix__Path_1010" d="M222.165 249.319a3.5 3.5 0 0 0 1.4-2.8V243a3.515 3.515 0 0 1-7.031 0v3.316a3.793 3.793 0 0 0 1.469 3 2.281 2.281 0 0 1 .875 1.819v7.121a2.339 2.339 0 0 1-.941 1.87 3.483 3.483 0 0 0-1.4 2.795v3.515a3.515 3.515 0 1 1 7.031 0v-3.516a3.483 3.483 0 0 0-1.4-2.795 2.338 2.338 0 0 1-.941-1.87v-7.068a2.336 2.336 0 0 1 .938-1.868z" class="prefix__cls-5" data-name="Path 1010" transform="translate(-211.561 -222.571)"/>
            <path id="prefix__Path_1011" d="M191.048 105.217a25.9 25.9 0 0 1-8.494-1.68c4.6 2.709 5.933 5.2 8.494 5.2s3.894-2.487 8.494-5.2a25.9 25.9 0 0 1-8.494 1.68z" class="prefix__cls-5" data-name="Path 1011" transform="translate(-182.554 -103.537)"/>
        </g>
        <g id="prefix__Group_658" data-name="Group 658" transform="translate(-1.373 9.464)">
            <path id="prefix__Path_1012" d="M319.476 368.4l2.646 4.744-3.04 1.7-2.646-4.744q.765-.4 1.53-.831t1.51-.865z" class="prefix__cls-6" data-name="Path 1012" transform="translate(-281.908 -323.9)"/>
            <path id="prefix__Path_1013" d="M126.276 77.082a24.313 24.313 0 1 0-10.939 33.87q.782-.367 1.55-.794t1.49-.9a24.315 24.315 0 0 0 7.899-32.176zm-10.925 30.325a21.162 21.162 0 1 1 8.172-28.791 21.164 21.164 0 0 1-8.172 28.791z" class="prefix__cls-6" data-name="Path 1013" transform="translate(-80.726 -64.608)"/>
        </g>
        <path id="prefix__Path_1014" d="M340.16 412.773l-4.355-7.806a1.372 1.372 0 0 0-1.85-.551l-4.655 2.6a1.375 1.375 0 0 0-.5 1.863l4.424 7.93a37.48 37.48 0 0 0 6.941-4.034z" class="prefix__cls-6" data-name="Path 1014" transform="translate(-293.68 -345.034)"/>
        <path id="prefix__Path_1015" fill="#fefefe" d="M332.678 399.366l-1.156-2.074a1.371 1.371 0 0 0-1.85-.55l-4.656 2.6a1.372 1.372 0 0 0-.5 1.863l1.156 2.073 7.01-3.91z" data-name="Path 1015" transform="translate(-290.023 -338.485)"/>
        <path id="prefix__Path_1016" fill="#ecf0f1" d="M332.677 399.371l-1.156-2.073a1.374 1.374 0 0 0-1.767-.593l1.827 3.276zm-7.742.023a1.374 1.374 0 0 0-.424 1.814l1.156 2.073 1.095-.611z" data-name="Path 1016" transform="translate(-290.021 -338.49)"/>
        <g id="prefix__Group_659" data-name="Group 659" transform="translate(1.872 13.73)">
            <path id="prefix__Path_1017" d="M132.33 149.566c-9.574 4.6-21.335.775-26.739-8.915s-2.482-21.706 6.463-27.436a20.2 20.2 0 0 0-2.295 2.531 21.073 21.073 0 0 0 19.212 34.441 20.1 20.1 0 0 0 3.359-.621z" class="prefix__cls-9" data-name="Path 1017" transform="translate(-102.875 -110.362)"/>
            <path id="prefix__Path_1018" d="M219.774 129.174c7.9-5.1 10.287-16.088 5.257-25.1s-15.631-12.767-24.122-8.721c.215-.057.433-.109.65-.158 8.207-2.982 17.907.832 22.648 9.333s2.892 18.759-3.958 24.175q-.233.239-.475.471z" class="prefix__cls-9" data-name="Path 1018" transform="translate(-186.549 -93.73)"/>
        </g>
    </g>
</svg>
