<svg xmlns="http://www.w3.org/2000/svg" id="prefix__Group_110" width="75" height="75" data-name="Group 110" viewBox="0 0 75 75">
    <defs>
        <style>
            .prefix__cls-3{fill:#e8b57f}.prefix__cls-8{fill:#eabb5e}
        </style>
    </defs>
    <circle id="prefix__Ellipse_61" cx="37.5" cy="37.5" r="37.5" fill="#1452b5" data-name="Ellipse 61"/>
    <path id="prefix__Path_259" fill="#fed298" d="M140.371 127.233l-2.921-12.519s10-9.617 8.875-21.944-13.543-20.079-26.151-16.718-14.7 13.461-14.755 15.118 1.494 5.895.372 8.79-5.136 7.425-4.763 8.779 3.829 1.587 3.829 1.587.041 1.31-.419 1.588-.2 1.366.556 1.972a7.68 7.68 0 0 0 2.012 1.017s-1.448.327-1.26 1.354a1.677 1.677 0 0 0 1.774 1.588c1.074.046 1.355-.466 1.541.094s.3.606.3.606-1.073 2.779-.139 4.833 2.382 2.056 4.063 1.635 4.95-1.355 4.95-1.355l.895 4.557a10.87 10.87 0 0 1-3.676 10.112 37.566 37.566 0 0 0 30.547-6.435c-.6-.29-5.42-4.446-5.634-4.66z" data-name="Path 259" transform="translate(-86.209 -64.24)"/>
    <g id="prefix__Group_108" data-name="Group 108" transform="translate(23.326 11.025)">
        <path id="prefix__Path_260" d="M159.239 361.488c.93 1.474 2.248 1.436 3.755 1.059 1.681-.421 4.95-1.355 4.95-1.355l.895 4.557a11.473 11.473 0 0 1-.555 5.659c3.122-4.454.819-7.859 1.231-9.549s6.944-3.289 8.315-4.34 2.353-3.951 2.353-3.951a19.441 19.441 0 0 1-2.832 3.381c-1.462 1.279-12.815 4.614-14.985 5.345a2.584 2.584 0 0 1-3.127-.806z" class="prefix__cls-3" data-name="Path 260" transform="translate(-159.239 -312.798)"/>
        <path id="prefix__Path_261" d="M210.707 77.091c7.852-2.877 17.153-1.325 22.794 4.444 6.723 6.875 8.289 19.384-3.45 32.622L234 127.233l-2.921-12.519s10-9.617 8.875-21.944-13.543-20.079-26.151-16.718a25.391 25.391 0 0 0-3.1 1.039z" class="prefix__cls-3" data-name="Path 261" transform="translate(-203.168 -75.265)"/>
    </g>
    <g id="prefix__Group_109" data-name="Group 109" transform="translate(2.895 37.786)">
        <path id="prefix__Path_262" fill="#d83e32" d="M25.88 260.28l-4.225 1.235-.549-1.879a.622.622 0 0 1 .422-.772l.919-.269 2.112-.617a.623.623 0 0 1 .772.423l.546 1.868z" data-name="Path 262" transform="translate(-20.888 -257.953)"/>
        <path id="prefix__Path_263" fill="#ed5343" d="M31.872 260.269l-3.194.934-.549-1.879a.623.623 0 0 1 .313-.729l2.112-.617a.623.623 0 0 1 .772.423z" data-name="Path 263" transform="translate(-26.882 -257.953)"/>
        <path id="prefix__Path_264" fill="#a4ddd8" d="M87.126 338.15h2.094a.27.27 0 0 0 .27-.27v-2.668a.269.269 0 0 0-.27-.27h-2.094" data-name="Path 264" transform="translate(-77.259 -323.665)"/>
        <path id="prefix__Path_265" fill="#96ccc6" d="M87.126 351.5h2.094a.27.27 0 0 0 .27-.27v-.647h-2.364" data-name="Path 265" transform="translate(-77.259 -337.012)"/>
        <path id="prefix__Path_266" d="M29.724 281.337v3.408a.3.3 0 0 1-.3.3H23.7a1.047 1.047 0 0 1-1-.753l-2.909-9.95a.427.427 0 0 1 .29-.529l1.123-.328 4.063-1.188a.427.427 0 0 1 .53.29l2.472 8.457h1.168a.3.3 0 0 1 .287.293z" class="prefix__cls-8" data-name="Path 266" transform="translate(-19.765 -270.178)"/>
        <path id="prefix__Path_267" fill="#f9cf70" d="M38.057 281.337v3.408a.3.3 0 0 1-.3.3h-4.111a1.047 1.047 0 0 1-1.005-.753l-3.113-10.808 4.063-1.188a.427.427 0 0 1 .53.29l2.472 8.457h1.167a.3.3 0 0 1 .297.294z" data-name="Path 267" transform="translate(-28.098 -270.178)"/>
        <path id="prefix__Path_268" d="M57.143 327.945H53.6l3.329-.714z" class="prefix__cls-8" data-name="Path 268" transform="translate(-48.648 -317.083)"/>
        <path id="prefix__Path_269" fill="#d3c8ba" d="M86.024 332.4v3.408a.3.3 0 0 1-.3.3v-4a.3.3 0 0 1 .3.292z" data-name="Path 269" transform="translate(-76.065 -321.242)"/>
        <path id="prefix__Path_270" d="M25.788 272.583l-6 1.755a.427.427 0 0 1 .29-.529l1.123-.328 4.063-1.188a.427.427 0 0 1 .524.29z" class="prefix__cls-8" data-name="Path 270" transform="translate(-19.765 -270.178)"/>
    </g>
</svg>
