<svg xmlns="http://www.w3.org/2000/svg" width="76.75" height="75" viewBox="0 0 76.75 75">
    <defs>
        <style>
            .prefix__cls-2{fill:#fdd7ad}.prefix__cls-3{fill:#7f8c8d}.prefix__cls-4{fill:#ecf0f1}.prefix__cls-9{fill:#464f5d}.prefix__cls-11{fill:#35495e}
        </style>
    </defs>
    <g id="prefix__Group_662" data-name="Group 662" transform="translate(944 24)">
        <circle id="prefix__Ellipse_164" cx="37.5" cy="37.5" r="37.5" fill="#1452b5" data-name="Ellipse 164" transform="translate(-944 -24)"/>
        <g id="prefix__Page-1" transform="translate(-940.199 -23.994)">
            <g id="prefix___012---Blood-Pressure" data-name="012---Blood-Pressure">
                <path id="prefix__Shape" d="M-830.4 324.589a2.606 2.606 0 0 1-2.616 2.088h-1.119a2.515 2.515 0 0 1 1.923.9 2.515 2.515 0 0 1 .554 2.048 2.606 2.606 0 0 1-2.616 2.088h-1.119a2.515 2.515 0 0 1 1.923.9 2.515 2.515 0 0 1 .555 2.048 2.606 2.606 0 0 1-2.616 2.088h-11.295a3.911 3.911 0 0 1-2.1-.629l-1.861-1.258a3.911 3.911 0 0 0-2.1-.629h-35.33a12.577 12.577 0 0 1-12.577-12.577v-8.8h20.124v3.773a2.523 2.523 0 0 0 2.516 2.515h24.639a3.786 3.786 0 0 0 2.905-1.358l4.025-4.83a3.786 3.786 0 0 1 2.905-1.358h4.515a2.523 2.523 0 0 1 2.515 2.515v2.516h3.773a2.515 2.515 0 0 1 2.515 2.515 2.516 2.516 0 0 1-2.515 2.516 2.515 2.515 0 0 1 1.923.9 2.516 2.516 0 0 1 .555 2.048z" class="prefix__cls-2" transform="translate(903.308 -262.532)"/>
                <path id="prefix__Shape-2" d="M-739.2 124.361a7.554 7.554 0 0 1-7.546-7.547V91.659A1.258 1.258 0 0 0-748 90.4a1.258 1.258 0 0 0-1.258 1.258v10.062a5.031 5.031 0 0 1-5.031 5.031h-4.378v-2.516h4.378a2.516 2.516 0 0 0 2.516-2.515V91.659A3.773 3.773 0 0 1-748 87.886a3.773 3.773 0 0 1 3.773 3.773v25.155a5.031 5.031 0 0 0 5.031 5.031 5.031 5.031 0 0 0 5.031-5.031v-3.447h2.516v3.447a7.554 7.554 0 0 1-7.551 7.547z" class="prefix__cls-3" data-name="Shape" transform="translate(781.959 -71.535)"/>
                <circle id="prefix__Oval" cx="8.804" cy="8.804" r="8.804" class="prefix__cls-4" transform="translate(40.248 1.258)"/>
                <path id="prefix__Shape-3" d="M-880.669-5.3V6.023h-20.124V-5.3a10.062 10.062 0 0 1 10.062-10.062A10.062 10.062 0 0 1-880.669-5.3z" class="prefix__cls-2" data-name="Shape" transform="translate(903.308 16.616)"/>
                <rect id="prefix__Rectangle-path" width="25.155" height="30.186" fill="#3f5c6c" rx="12.577" transform="translate(0 21.382)"/>
                <path id="prefix__Shape-4" fill="#cbb292" d="M-498.731 328.791v2.516h-5.031a1.258 1.258 0 0 1-1.258-1.258 1.258 1.258 0 0 1 1.258-1.258z" data-name="Shape" transform="translate(565.392 -277.224)"/>
                <path id="prefix__Rectangle-path-2" fill="#95a5a5" d="M-622.958 105.094h7.546a2.515 2.515 0 0 1 2.516 2.515 2.516 2.516 0 0 1-2.516 2.516h-7.546a2.516 2.516 0 0 1-2.516-2.516 2.515 2.515 0 0 1 2.516-2.515z" data-name="Rectangle-path" transform="translate(668.236 -86.228)"/>
                <path id="prefix__Shape-5" fill="#393f4a" d="M-618.984 149.571c0 .428-.025.843-.063 1.258a11.643 11.643 0 0 1-.516 2.6 10.624 10.624 0 0 1-1.082 2.428 7.043 7.043 0 0 1-5.886 3.773 7.044 7.044 0 0 1-5.886-3.773 10.631 10.631 0 0 1-1.082-2.428 11.653 11.653 0 0 1-.516-2.6c-.038-.415-.063-.83-.063-1.258s.025-.843.063-1.258a13.371 13.371 0 0 1 .541-2.7 11.22 11.22 0 0 1 1.056-2.327 7.044 7.044 0 0 1 5.886-3.773 7.043 7.043 0 0 1 5.886 3.773 11.208 11.208 0 0 1 1.057 2.327 13.383 13.383 0 0 1 .541 2.7c.039.415.064.83.064 1.258z" data-name="Shape" transform="translate(675.582 -115.612)"/>
                <path id="prefix__Shape-6" d="M-624.262 166.578a1.258 1.258 0 0 1-1.258 1.258h-3.773a1.172 1.172 0 0 1-.654-.189 11.22 11.22 0 0 1 1.056-2.327h3.371a1.258 1.258 0 0 1 1.258 1.258z" class="prefix__cls-9" data-name="Shape" transform="translate(672.056 -137.65)"/>
                <path id="prefix__Shape-7" d="M-568.165 167.647a1.172 1.172 0 0 1-.654.189h-3.773a1.258 1.258 0 0 1-1.258-1.258 1.258 1.258 0 0 1 1.258-1.258h3.371a11.215 11.215 0 0 1 1.056 2.327z" class="prefix__cls-9" data-name="Shape" transform="translate(624.16 -137.65)"/>
                <path id="prefix__Shape-8" d="M-627.788 200.993a1.258 1.258 0 0 1-1.258 1.258h-4.968c-.038-.415-.063-.83-.063-1.258s.025-.843.063-1.258h4.968a1.258 1.258 0 0 1 1.258 1.258z" class="prefix__cls-9" data-name="Shape" transform="translate(675.582 -167.034)"/>
                <path id="prefix__Shape-9" d="M-567.561 200.993c0 .428-.025.843-.063 1.258h-4.968a1.258 1.258 0 0 1-1.258-1.258 1.258 1.258 0 0 1 1.258-1.258h4.968c.037.415.063.83.063 1.258z" class="prefix__cls-9" data-name="Shape" transform="translate(624.16 -167.034)"/>
                <path id="prefix__Shape-10" d="M-624.409 235.407a1.258 1.258 0 0 1-1.258 1.258h-3.371a10.629 10.629 0 0 1-1.082-2.428 1.06 1.06 0 0 1 .44-.088h4.012a1.257 1.257 0 0 1 .889.368 1.258 1.258 0 0 1 .368.889z" class="prefix__cls-9" data-name="Shape" transform="translate(672.203 -196.417)"/>
                <path id="prefix__Shape-11" d="M-568.14 234.237a10.629 10.629 0 0 1-1.082 2.428h-3.371a1.258 1.258 0 0 1-1.258-1.258 1.258 1.258 0 0 1 1.258-1.258h4.012a1.06 1.06 0 0 1 .44.088z" class="prefix__cls-9" data-name="Shape" transform="translate(624.16 -196.417)"/>
                <g id="prefix__Group_661" data-name="Group 661" transform="translate(38.99)">
                    <path id="prefix__Shape-12" d="M-589.8-18.931a1.258 1.258 0 0 1-1.258-1.258V-22.7a1.258 1.258 0 0 1 1.258-1.258 1.258 1.258 0 0 1 1.258 1.258v2.515a1.258 1.258 0 0 1-1.258 1.254z" class="prefix__cls-3" data-name="Shape" transform="translate(599.862 23.962)"/>
                    <path id="prefix__Shape-13" d="M-627.214 1.365A1.259 1.259 0 0 1-628.1 1l-1.212-1.212a1.258 1.258 0 0 1 .015-1.763 1.258 1.258 0 0 1 1.763-.015l1.212 1.212a1.258 1.258 0 0 1 .272 1.37 1.258 1.258 0 0 1-1.162.777z" class="prefix__cls-3" data-name="Shape" transform="translate(632.829 5.507)"/>
                    <path id="prefix__Shape-14" d="M-647.511 38.779h-2.515a1.258 1.258 0 0 1-1.258-1.258 1.258 1.258 0 0 1 1.258-1.258h2.515a1.258 1.258 0 0 1 1.258 1.258 1.258 1.258 0 0 1-1.258 1.258z" class="prefix__cls-3" data-name="Shape" transform="translate(651.284 -27.46)"/>
                    <path id="prefix__Shape-15" d="M-628.516 70.505a1.258 1.258 0 0 1-1.162-.776 1.258 1.258 0 0 1 .273-1.37l1.212-1.212a1.258 1.258 0 0 1 1.763.015 1.258 1.258 0 0 1 .015 1.763l-1.212 1.212a1.257 1.257 0 0 1-.889.369z" class="prefix__cls-3" data-name="Shape" transform="translate(632.918 -53.526)"/>
                    <path id="prefix__Shape-16" d="M-558.075 70.505a1.257 1.257 0 0 1-.889-.369l-1.212-1.212a1.257 1.257 0 0 1 .015-1.763 1.257 1.257 0 0 1 1.763-.015l1.213 1.212a1.258 1.258 0 0 1 .272 1.37 1.258 1.258 0 0 1-1.162.776z" class="prefix__cls-3" data-name="Shape" transform="translate(573.796 -53.526)"/>
                    <path id="prefix__Shape-17" d="M-544.266 38.779h-2.515a1.258 1.258 0 0 1-1.258-1.258 1.258 1.258 0 0 1 1.258-1.258h2.515a1.258 1.258 0 0 1 1.258 1.258 1.258 1.258 0 0 1-1.258 1.258z" class="prefix__cls-3" data-name="Shape" transform="translate(563.132 -27.46)"/>
                    <path id="prefix__Shape-18" d="M-559.376 1.185a1.258 1.258 0 0 1-1.162-.777 1.258 1.258 0 0 1 .272-1.37l1.212-1.212a1.257 1.257 0 0 1 1.223-.343 1.258 1.258 0 0 1 .9.9 1.258 1.258 0 0 1-.343 1.217l-1.213 1.216a1.259 1.259 0 0 1-.889.369z" class="prefix__cls-3" data-name="Shape" transform="translate(573.885 5.688)"/>
                </g>
                <path id="prefix__Shape-19" fill="#e64c3c" d="M-589.8 31.343a1.257 1.257 0 0 1-1.162-.776 1.257 1.257 0 0 1 .272-1.37l1.258-1.258a1.258 1.258 0 0 1 1.223-.343 1.258 1.258 0 0 1 .9.9 1.258 1.258 0 0 1-.343 1.223l-1.258 1.258a1.258 1.258 0 0 1-.89.366z" data-name="Shape" transform="translate(638.851 -20.024)"/>
                <path id="prefix__Shape-20" d="M-890.931 170.752a1.258 1.258 0 0 1-1.258-1.258v-20.123a1.258 1.258 0 0 1 1.258-1.258 1.258 1.258 0 0 1 1.258 1.258v20.124a1.258 1.258 0 0 1-1.258 1.257z" class="prefix__cls-11" data-name="Shape" transform="translate(895.962 -122.958)"/>
                <path id="prefix__Shape-21" d="M-787.686 170.752a1.258 1.258 0 0 1-1.258-1.258v-20.123a1.258 1.258 0 0 1 1.258-1.258 1.258 1.258 0 0 1 1.258 1.258v20.124a1.258 1.258 0 0 1-1.258 1.257z" class="prefix__cls-11" data-name="Shape" transform="translate(807.81 -122.958)"/>
                <path id="prefix__Shape-22" d="M-851.485 202.251h-5.031a1.258 1.258 0 0 1-1.258-1.258 1.258 1.258 0 0 1 1.258-1.258h5.031a1.258 1.258 0 0 1 1.258 1.258 1.258 1.258 0 0 1-1.258 1.258z" class="prefix__cls-4" data-name="Shape" transform="translate(866.578 -167.034)"/>
                <path id="prefix__Shape-23" d="M-845.4 236.666h-2.515a1.258 1.258 0 0 1-1.258-1.258 1.258 1.258 0 0 1 1.258-1.258h2.515a1.258 1.258 0 0 1 1.258 1.258 1.258 1.258 0 0 1-1.258 1.258z" class="prefix__cls-4" data-name="Shape" transform="translate(859.232 -196.418)"/>
                <path id="prefix__Shape-24" fill="#bdc3c7" d="M-641.222-3.838A10.062 10.062 0 0 1-651.284-13.9a10.062 10.062 0 0 1 10.062-10.062A10.062 10.062 0 0 1-631.16-13.9a10.073 10.073 0 0 1-10.062 10.062zm0-17.608a7.547 7.547 0 0 0-7.547 7.547 7.547 7.547 0 0 0 7.547 7.546 7.546 7.546 0 0 0 7.546-7.546 7.554 7.554 0 0 0-7.546-7.548z" data-name="Shape" transform="translate(690.274 23.962)"/>
            </g>
        </g>
    </g>
</svg>
