<svg xmlns="http://www.w3.org/2000/svg" width="95.08" height="75" viewBox="0 0 95.08 75">
    <defs>
        <style>
            .prefix__cls-3{fill:#f0ba7d}.prefix__cls-5{fill:#b4b4b4}.prefix__cls-6{fill:#ebecec}.prefix__cls-7{fill:#0f7986}.prefix__cls-8{fill:#076673}.prefix__cls-9{fill:#fefefe}
        </style>
    </defs>
    <g id="prefix__Group_610" data-name="Group 610" transform="translate(12.972 .397)">
        <circle id="prefix__Ellipse_150" cx="37.5" cy="37.5" r="37.5" fill="#1452b5" data-name="Ellipse 150" transform="translate(-3.541 -.397)"/>
        <g id="prefix__Group_617" data-name="Group 617" transform="rotate(8 -121.792 -48.204)">
            <path id="prefix__Path_940" fill="#fed298" d="M23.383 19.288s-.173-7.93-5.287-8.363c-3.12 0-2.557 1.386-5.677 1.127S-.58 9.928.027 22.494s13.985 12.393 18.405 8.45c0 0 4.636 6.933 19.2 5.287s19.5-6.934 18.287-14.647-8.493-10.4-8.493-10.4 2.643.087 3.943-.91S53.1 8.932 53.1 8.932s1.257.477 1.777-.347a3.4 3.4 0 0 0-1.084-3.943c-1.343-.78-2.426-4.16-3.163-4.16.239-.477-.691-.9-1.083.3a3.964 3.964 0 0 0 .195 2.146 5.572 5.572 0 0 0 .087 2.947 6.3 6.3 0 0 0-3.293-.411c-2.318.152-7.6 2.145-8.082 3.748s-.585 3.6 2.188 6.067c0 0-3.6 0-5.2 1.343s-1.256 1.213-1.256 1.213a8.91 8.91 0 0 0 .8-4.052 39.417 39.417 0 0 0-.8-5.157s-.347-5.157-1.994-5.373c0 0-.39-.065-.563.151a.854.854 0 0 0-1.246.249c-.863-.394-1.122.09-1.267.444a.693.693 0 0 0-.986.6s-.677-.152-.9.162a3.054 3.054 0 0 0-.038 2.156 3.013 3.013 0 0 0 1.95 1.538 3.254 3.254 0 0 0-.239 1.885c.152 1.192-.065 4.16.368 4.94 0 0-5.113.087-5.879 3.91z" data-name="Path 940"/>
            <g id="prefix__Group_609" data-name="Group 609" transform="translate(18.432 7.573)">
                <path id="prefix__Path_941" d="M7.7 0a25.045 25.045 0 0 1 2.823 4.316s3.454-1.611 5.342-.542c.99.252 1.867-.259 2.09.323s-.529.963-.529.963A2.3 2.3 0 0 1 15.8 6.505a19.553 19.553 0 0 0-2.343.843c-1.151 1.51-3.26 3.483-4.3 1.66-.676-1.18-1.597-.489-2.969-2.522-.149-.222-.462 1.214-.718 1.067A15 15 0 0 0 0 3.611S2.643 3.7 3.943 2.7s1.734-1.342 1.734-1.342 1.257.477 1.777-.347A2.086 2.086 0 0 0 7.7 0z" class="prefix__cls-3" data-name="Path 941" transform="translate(28.988)"/>
                <path id="prefix__Path_942" d="M7.854 6.434c-.337-.959-.619-1.66-.619-1.66S6.12-.046 4.531 0c0 0-.378 0-.509.229a.817.817 0 0 0-1.14.426c-.877-.241-1.046.256-1.13.613a.664.664 0 0 0-.841.714s-.663-.04-.83.292a2.925 2.925 0 0 0 .293 2.043 2.885 2.885 0 0 0 2.078 1.157 3.112 3.112 0 0 0 .062 1.818c.173.585.324 1.66.506 2.639 1.665-2.114 5.086-2.173 5.086-2.173a3.657 3.657 0 0 1-.252-1.324z" class="prefix__cls-3" data-name="Path 942" transform="translate(2.725 .046)"/>
                <path id="prefix__Path_943" d="M0 7.528s4.636 6.934 19.2 5.287C32.572 11.3 37.828 6.717 37.653 0 36.177 13.285 9.6 15.225 0 7.528z" class="prefix__cls-3" data-name="Path 943" transform="translate(0 15.844)"/>
                <path id="prefix__Path_944" d="M1.494 0a8.359 8.359 0 0 0-.751 6.42A5.321 5.321 0 0 1 1.494 0z" class="prefix__cls-3" data-name="Path 944" transform="translate(4.184 10.063)"/>
            </g>
        </g>
        <g id="prefix__Group_616" data-name="Group 616" transform="translate(45.323 -.397)">
            <path id="prefix__Path_957" fill="#1fbfd1" d="M143.2 59.01h2.222a3.441 3.441 0 0 1 3.433 3.433v13.166c0 4.969-3.256 8.149-7.422 9.537a16.416 16.416 0 0 1-10.11 0c-4.156-1.385-7.4-4.562-7.4-9.539V62.443a3.423 3.423 0 0 1 1.008-2.425 3.422 3.422 0 0 1 2.423-1.008h2.222v.915h-2.222a2.513 2.513 0 0 0-1.779.739 2.511 2.511 0 0 0-.74 1.778v13.167c0 4.515 2.97 7.406 6.772 8.674a15.507 15.507 0 0 0 9.538 0c3.813-1.27 6.793-4.164 6.793-8.672V62.443a2.526 2.526 0 0 0-2.517-2.517H143.2v-.916z" data-name="Path 957" transform="translate(-123.621 -58.184)"/>
            <path id="prefix__Path_958" d="M147.24 165.527v2.011c0 5.122-3.348 8.4-7.632 9.825a16.72 16.72 0 0 1-10.3 0c-4.274-1.425-7.611-4.7-7.611-9.827v-2.011h1.526v2.011c0 4.362 2.878 7.157 6.562 8.385a15.206 15.206 0 0 0 9.347 0c3.695-1.231 6.583-4.029 6.583-8.383v-2.011z" class="prefix__cls-5" data-name="Path 958" transform="translate(-121.696 -150.113)"/>
            <circle id="prefix__Ellipse_152" cx="4.225" cy="4.225" r="4.225" class="prefix__cls-6" data-name="Ellipse 152" transform="translate(28.336 31.928)"/>
            <circle id="prefix__Ellipse_153" cx="3.686" cy="3.686" r="3.686" class="prefix__cls-7" data-name="Ellipse 153" transform="translate(28.874 32.466)"/>
            <circle id="prefix__Ellipse_154" cx="2.902" cy="2.902" r="2.902" class="prefix__cls-8" data-name="Ellipse 154" transform="translate(29.659 33.251)"/>
            <circle id="prefix__Ellipse_155" cx="2.202" cy="2.202" r="2.202" class="prefix__cls-6" data-name="Ellipse 155" transform="translate(30.359 33.951)"/>
            <path id="prefix__Rectangle_197" d="M0 0H1.18V3.676H0z" class="prefix__cls-9" data-name="Rectangle 197" transform="translate(31.971 37.644)"/>
            <path id="prefix__Path_959" d="M228.831 279.411v3.689a10.877 10.877 0 0 1-21.754 0v-15.315h1.772V283.1a9.1 9.1 0 0 0 18.21 0v-3.687z" class="prefix__cls-5" data-name="Path 959" transform="translate(-195.384 -238.367)"/>
            <g id="prefix__Group_614" data-name="Group 614" transform="translate(4.16)">
                <path id="prefix__Path_960" d="M152.07 53.612h1.188a1.281 1.281 0 1 1 0 1.3h-1.188v-1.3z" class="prefix__cls-8" data-name="Path 960" transform="translate(-152.07 -52.979)"/>
                <path id="prefix__Path_961" d="M248.794 53.612h-1.188a1.281 1.281 0 1 0 0 1.3h1.188v-1.3z" class="prefix__cls-8" data-name="Path 961" transform="translate(-232.464 -52.979)"/>
            </g>
            <path id="prefix__Path_962" fill="#666" d="M208.773 257.589v2.284h-1.8v-2.307q.524.046 1.052.046.375 0 .749-.024z" data-name="Path 962" transform="translate(-195.293 -229.547)"/>
            <g id="prefix__Group_615" data-name="Group 615" transform="translate(5.886 .336)">
                <circle id="prefix__Ellipse_156" cx=".387" cy=".387" r=".387" class="prefix__cls-7" data-name="Ellipse 156" transform="translate(0 .057)"/>
                <circle id="prefix__Ellipse_157" cx=".387" cy=".387" r=".387" class="prefix__cls-7" data-name="Ellipse 157" transform="rotate(-80.783 6.287 -6.479)"/>
            </g>
            <circle id="prefix__Ellipse_158" cx="2.082" cy="2.082" r="2.082" class="prefix__cls-9" data-name="Ellipse 158" transform="translate(30.36 33.951)"/>
        </g>
    </g>
</svg>
