<svg xmlns="http://www.w3.org/2000/svg" width="75" height="75" viewBox="0 0 75 75">
    <defs>
        <style>
            .prefix__cls-2{fill:#f290a6}.prefix__cls-3{opacity:.27}.prefix__cls-4{fill:#c46b82}.prefix__cls-5{fill:#ffcfab}.prefix__cls-9{fill:#223663}.prefix__cls-11{fill:#fff}.prefix__cls-12{fill:#eef3f7}.prefix__cls-13{fill:#d9dada}.prefix__cls-14{fill:#fefefe}.prefix__cls-15{fill:#21d0c3}.prefix__cls-16{fill:#ff5b62}
        </style>
    </defs>
    <g id="prefix__Group_656" data-name="Group 656" transform="translate(816.768 11.206)">
        <circle id="prefix__Ellipse_159" cx="37.5" cy="37.5" r="37.5" fill="#1452b5" data-name="Ellipse 159" transform="translate(-816.768 -11.206)"/>
        <g id="prefix__Group_652" data-name="Group 652" transform="translate(-816.577 -3.579)">
            <g id="prefix__Group_651" data-name="Group 651">
                <g id="prefix__Group_621" data-name="Group 621" transform="translate(22.661 44.995)">
                    <g id="prefix__Group_618" data-name="Group 618">
                        <path id="prefix__Path_963" d="M-653.093 348.1a62.836 62.836 0 0 1 7.6 3.75s1.453-2.338 3.061-2.53c.511-.061.125 6.468-.114 6.7a1.746 1.746 0 0 1-.977.5c-3.675.461-19.591 1.3-16.514-6.681 1.023-2.659 4.068-2.639 6.944-1.739z" class="prefix__cls-2" data-name="Path 963" transform="translate(660.43 -347.553)"/>
                    </g>
                    <g id="prefix__Group_620" class="prefix__cls-3" data-name="Group 620" transform="translate(.011 4.461)">
                        <g id="prefix__Group_619" data-name="Group 619">
                            <path id="prefix__Path_964" d="M-642.485 381.971a1.745 1.745 0 0 1-.977.5c-3.3.414-16.688 1.146-16.9-4.5 0 0 5 2.774 9.12 3.344a86.852 86.852 0 0 0 8.757.656z" class="prefix__cls-4" data-name="Path 964" transform="translate(660.357 -377.966)"/>
                        </g>
                    </g>
                </g>
                <g id="prefix__Group_622" data-name="Group 622" transform="translate(32.701 27.723)">
                    <path id="prefix__Path_965" d="M-591.976 231.779s.85-2.364 2.567-1.924.323 3.145.323 3.145z" class="prefix__cls-5" data-name="Path 965" transform="translate(591.976 -229.8)"/>
                </g>
                <g id="prefix__Group_623" data-name="Group 623" transform="translate(22.631 29.061)">
                    <path id="prefix__Path_966" d="M-657.028 251.217c2.644.365 6.222-2.328 7.278-3.4 2.787-2.837 2.753-4.934 2.627-6.715s-3.072-2.738-3.85-1.827c-1.2 1.41-2.194 3.231-3.117 3.988-1.6 1.313-3.788.645-5.374 1.977-1.998 1.675-1.598 5.42 2.436 5.977z" class="prefix__cls-2" data-name="Path 966" transform="translate(660.635 -238.922)"/>
                </g>
                <g id="prefix__Group_625" class="prefix__cls-3" data-name="Group 625" transform="translate(26.238 34.455)">
                    <g id="prefix__Group_624" data-name="Group 624">
                        <path id="prefix__Path_967" d="M-636.04 282.6c2.644.365 6.222-2.328 7.278-3.4a9.34 9.34 0 0 0 2.325-3.5 53.01 53.01 0 0 1-5.909 4.541c-2.187 1.259-3.694 2.359-3.694 2.359z" class="prefix__cls-4" data-name="Path 967" transform="translate(636.04 -275.696)"/>
                    </g>
                </g>
                <g id="prefix__Group_626" data-name="Group 626" transform="translate(9.802 32.495)">
                    <path id="prefix__Path_968" fill="#ffc4d4" d="M-729.99 266.632c2.619 3.422 3.375 7.37 4.319 10.878a14.523 14.523 0 0 1 .625 5.841c-1.222 8.275-15.037 6.158-19.893 2.845-3.7-2.523-3.452-6.923-2.685-11.171.85-4.7 1.309-11.541 7.482-12.586a11.481 11.481 0 0 1 10.152 4.193z" data-name="Path 968" transform="translate(748.092 -262.332)"/>
                </g>
                <g id="prefix__Group_628" data-name="Group 628" opacity="0.22" transform="translate(9.802 32.602)">
                    <g id="prefix__Group_627" data-name="Group 627">
                        <path id="prefix__Path_969" d="M-738.992 289.168a18.086 18.086 0 0 1-5.947-2.354c-3.7-2.523-3.452-6.923-2.685-11.171.85-4.7 1.309-11.541 7.482-12.586 0 0-2.626 9.192-2.116 15.473a25.553 25.553 0 0 0 3.266 10.638z" class="prefix__cls-2" data-name="Path 969" transform="translate(748.092 -263.057)"/>
                    </g>
                </g>
                <g id="prefix__Group_633" data-name="Group 633" transform="translate(2.487 27.41)">
                    <g id="prefix__Group_629" data-name="Group 629" transform="translate(.166)">
                        <path id="prefix__Path_970" d="M-796.356 230.82s-1.249-2.235.3-3.02 2.679 2.043 2.679 2.043z" class="prefix__cls-5" data-name="Path 970" transform="translate(796.834 -227.662)"/>
                    </g>
                    <g id="prefix__Group_630" data-name="Group 630" transform="translate(0 1.495)">
                        <path id="prefix__Path_971" d="M-788.088 250.327c-2.644.3-6.2-2.475-7.248-3.576-2.765-2.9-2.718-5-2.579-6.782s3.087-2.668 3.858-1.738c1.193 1.44 2.17 3.285 3.087 4.064 1.59 1.352 3.78.734 5.356 2.1 1.985 1.731 1.561 5.469-2.474 5.932z" class="prefix__cls-2" data-name="Path 971" transform="translate(797.965 -237.857)"/>
                    </g>
                    <g id="prefix__Group_632" class="prefix__cls-3" data-name="Group 632" transform="translate(.011 2.113)">
                        <g id="prefix__Group_631" data-name="Group 631">
                            <path id="prefix__Path_972" d="M-788.011 253.93c-2.644.3-6.2-2.475-7.248-3.576-2.766-2.9-2.718-5-2.579-6.782a2.07 2.07 0 0 1 .961-1.5 14.306 14.306 0 0 0 2.768 6.642 21.664 21.664 0 0 0 6.098 5.216z" class="prefix__cls-4" data-name="Path 972" transform="translate(797.888 -242.071)"/>
                        </g>
                    </g>
                </g>
                <g id="prefix__Group_635" data-name="Group 635" transform="translate(4.25 20.958)">
                    <g id="prefix__Group_634" data-name="Group 634">
                        <path id="prefix__Path_973" fill="#000001" d="M-785.072 184.118l-.008-.1a.426.426 0 0 0-.449-.341.432.432 0 0 0-.4.4c0 .037-.007.074-.01.111a.44.44 0 0 0 .472.462.444.444 0 0 0 .4-.527z" data-name="Path 973" transform="translate(785.944 -183.676)"/>
                    </g>
                </g>
                <g id="prefix__Group_637" data-name="Group 637" transform="translate(9.087 9.273)">
                    <g id="prefix__Group_636" data-name="Group 636">
                        <path id="prefix__Path_974" d="M-731.329 108.844s1.722 7.182-.489 11.555c-2.063 4.081-4.588 6.168-9.552 6.548-3.016.231-9.1-.312-11.033-5.124-1.376-3.422.2-12.946.2-12.946l2.542-3.277 16.7-1.588z" class="prefix__cls-5" data-name="Path 974" transform="translate(752.968 -104.012)"/>
                    </g>
                </g>
                <g id="prefix__Group_638" data-name="Group 638" transform="translate(2.985 4.266)">
                    <path id="prefix__Path_975" d="M-792.941 90.018a12.333 12.333 0 0 1-.133-12.01 17.2 17.2 0 0 1 4.409-5.024c2.867-2.3 5.412-2.9 9.892-3.089 8.786-.365 11.6 5.607 11.994 8.135-2.918.1-13.337.616-17.251-.427a17.461 17.461 0 0 1-.651 6.177c-.623-.177-2.152-.609-2.294-.59-.481.065-.848 4.426-1.582 5.94-.276.569 1.331 4.2.654 4.274-2.71.284-5.038-3.386-5.038-3.386z" class="prefix__cls-9" data-name="Path 975" transform="translate(794.57 -69.88)"/>
                </g>
                <g id="prefix__Group_640" data-name="Group 640" transform="translate(4.791 20.783)">
                    <g id="prefix__Group_639" data-name="Group 639">
                        <path id="prefix__Path_976" d="M-775.894 183.462c-1.429-.555-4.136-1.538-5.47-.578a2.2 2.2 0 0 0-.182 3.393c1.624 1.636 4.758 2.333 5.687 2.6" class="prefix__cls-5" data-name="Path 976" transform="translate(782.255 -182.48)"/>
                    </g>
                </g>
                <g id="prefix__Group_644" data-name="Group 644" transform="translate(14.816 51.163)">
                    <g id="prefix__Group_641" data-name="Group 641" transform="translate(.014)">
                        <path id="prefix__Path_977" d="M-705.954 390.716a62.845 62.845 0 0 1 6.91 4.9s1.8-2.079 3.423-2.014c.514.021-.9 6.406-1.173 6.6a1.746 1.746 0 0 1-1.043.336c-3.7-.126-19.55-1.813-15.249-9.209 1.43-2.453 4.434-1.95 7.132-.613z" class="prefix__cls-2" data-name="Path 977" transform="translate(713.82 -389.602)"/>
                    </g>
                    <g id="prefix__Group_643" class="prefix__cls-3" data-name="Group 643" transform="translate(0 3.825)">
                        <g id="prefix__Group_642" data-name="Group 642">
                            <path id="prefix__Path_978" d="M-696.873 422.46a1.745 1.745 0 0 1-1.043.336c-3.324-.113-16.659-1.508-15.971-7.117 0 0 4.494 3.529 8.476 4.744a86.875 86.875 0 0 0 8.538 2.037z" class="prefix__cls-4" data-name="Path 978" transform="translate(713.912 -415.679)"/>
                        </g>
                    </g>
                </g>
                <g id="prefix__Group_645" data-name="Group 645" transform="translate(15.886 30.565)">
                    <path id="prefix__Path_979" d="M-706.614 249.256l.327 5.149 7.313-.113.048-5.117z" class="prefix__cls-5" data-name="Path 979" transform="translate(706.614 -249.175)"/>
                </g>
                <g id="prefix__Group_646" data-name="Group 646">
                    <path id="prefix__Path_980" d="M-806.711 51.117l-8.1-2.511s-.925-2.908 2.621-5.741c3.7-2.952 6.553-1.884 6.553-1.884l2.978 7.267z" class="prefix__cls-9" data-name="Path 980" transform="translate(814.921 -40.794)"/>
                </g>
                <g id="prefix__Group_647" data-name="Group 647" transform="translate(5.174 4.781)">
                    <path id="prefix__Path_981" fill="#ffafbf" d="M-778.3 76.554c-.588.309-1.719.937-1.217 1.908.759 1.47 2.353.417 2.517-.039.738.32 2.221-.413 2.095-1.057-.023-.119.578-.14.882-.329.989-.617.791-1.12.771-1.276-.035-.276 1.186-.5.567-1.635-.727-1.328-2.337-.691-2.876.525a2.164 2.164 0 0 0-1.7.242 1.945 1.945 0 0 0-1.039 1.661z" data-name="Path 981" transform="translate(779.647 -73.387)"/>
                </g>
                <g id="prefix__Group_648" data-name="Group 648" transform="translate(15.774 33.048)">
                    <path id="prefix__Path_982" d="M-698.71 267c.678 1.268 1.6 2.39 1.755 3.872a3.984 3.984 0 0 1-.506 2.446c-.8 1.338-3 1.624-4.543 1.413-3.133-.427-4.486-3.13-4.97-5.979-.069-.408-.361-1.335-.4-1.792-.057-.689.287-.861.287-.861s.2.737.379.849c2.893 1.854 5.988 1.809 6.986.183a2.323 2.323 0 0 0 .058-.808z" class="prefix__cls-11" data-name="Path 982" transform="translate(707.38 -266.099)"/>
                </g>
                <g id="prefix__Group_650" data-name="Group 650" transform="translate(15.686 32.476)">
                    <g id="prefix__Group_649" data-name="Group 649">
                        <path id="prefix__Path_983" d="M-701.715 271.764c-.35 0-.642-.019-.834-.036a5.15 5.15 0 0 1-3.909-2.462c-1.737-2.581-1.778-6.212-1.166-6.918l.1.723a10.654 10.654 0 0 0 1.9 6.126 4.349 4.349 0 0 0 3.137 1.816c1.589.141 3.528-.113 4.2-1.24a3.62 3.62 0 0 0 .457-2.225 9.187 9.187 0 0 0-2.342-4.645v-.7a9.99 9.99 0 0 1 3.055 5.273 4.343 4.343 0 0 1-.555 2.668c-.828 1.384-2.8 1.62-4.043 1.62z" class="prefix__cls-2" data-name="Path 983" transform="translate(707.982 -262.201)"/>
                    </g>
                </g>
            </g>
        </g>
        <g id="prefix__Group_654" data-name="Group 654" transform="translate(-768.892 24.419)">
            <path id="prefix__Path_984" d="M-463.894 258.334h8.476v2.339h-8.476v-2.339z" class="prefix__cls-12" data-name="Path 984" transform="translate(467.698 -254.424)"/>
            <path id="prefix__Path_985" d="M-463.894 258.334h8.476v2.339z" class="prefix__cls-13" data-name="Path 985" transform="translate(467.698 -254.424)"/>
            <path id="prefix__Path_986" d="M-485.805 274.183h8.041a4.033 4.033 0 0 1 4.021 4.021v21.771a1.407 1.407 0 0 1-1.4 1.4h-13.276a1.407 1.407 0 0 1-1.4-1.4V278.2a4.033 4.033 0 0 1 4.014-4.017z" class="prefix__cls-14" data-name="Path 986" transform="translate(489.826 -267.948)"/>
            <g id="prefix__Group_653" data-name="Group 653" transform="translate(0 11.246)">
                <path id="prefix__Path_987" d="M-472.645 455.229a1.405 1.405 0 0 1-1.176.639H-487.1a1.405 1.405 0 0 1-1.176-.639z" class="prefix__cls-12" data-name="Path 987" transform="translate(488.5 -433.684)"/>
                <path id="prefix__Path_988" d="M-489.826 308.344h16.083v20.781h-16.083z" class="prefix__cls-12" data-name="Path 988" transform="translate(489.826 -308.344)"/>
            </g>
            <path id="prefix__Path_989" d="M-471.491 231.674h9.55a.679.679 0 0 1 .677.677v2.692a.679.679 0 0 1-.677.676h-9.55a.678.678 0 0 1-.677-.676v-2.692a.678.678 0 0 1 .677-.677z" class="prefix__cls-15" data-name="Path 989" transform="translate(474.758 -231.674)"/>
            <path id="prefix__Path_990" d="M-460.484 335.62h11.784v14.654h-11.779z" class="prefix__cls-11" data-name="Path 990" transform="translate(464.788 -320.373)"/>
            <path id="prefix__Path_991" d="M-488.227 335.62h-1.6v14.654h1.6z" class="prefix__cls-11" data-name="Path 991" transform="translate(489.826 -320.373)"/>
            <circle id="prefix__Ellipse_160" cx="2.072" cy="2.072" r="2.072" class="prefix__cls-16" data-name="Ellipse 160" transform="translate(10.209 24.757)"/>
            <path id="prefix__Path_992" d="M-414.953 404.672h.79v1.059h1.059v.79h-1.059v1.059h-.79v-1.059h-1.059v-.79h1.059z" class="prefix__cls-14" data-name="Path 992" transform="translate(426.839 -379.297)"/>
        </g>
        <g id="prefix__Group_655" data-name="Group 655" transform="translate(-805.321 20.576)">
            <path id="prefix__Path_993" d="M-636.4 267.222l4.152 4.75a.693.693 0 0 1-.066.975l-19.332 16.9-5.061-5.79 19.332-16.9a.693.693 0 0 1 .975.065z" class="prefix__cls-14" data-name="Path 993" transform="translate(668.657 -257.964)"/>
            <path id="prefix__Path_994" d="M-709.448 346.122l3.373 3.859-18.671 16.319-3.373-3.859z" class="prefix__cls-12" data-name="Path 994" transform="translate(729.595 -325.492)"/>
            <path id="prefix__Path_995" d="M-688.99 369.526l.372.426-18.672 16.322-.372-.426z" class="prefix__cls-13" data-name="Path 995" transform="translate(712.138 -345.463)"/>
            <path id="prefix__Path_996" d="M-661.766 373.774l6.207 7.1a.564.564 0 0 1-.053.794.564.564 0 0 1-.793-.053l-6.207-7.1a.564.564 0 0 1 .053-.793.564.564 0 0 1 .794.053z" class="prefix__cls-15" data-name="Path 996" transform="translate(673.816 -348.925)"/>
            <path id="prefix__Path_997" d="M-509.842 268.295l1.681 1.923 1.954-1.708-1.681-1.923z" class="prefix__cls-12" data-name="Path 997" transform="translate(543.335 -257.623)"/>
            <path id="prefix__Path_998" d="M-475.743 206.018l1.756-.544-10.59 9.258-.491-.562z" class="prefix__cls-11" data-name="Path 998" transform="translate(522.195 -205.474)"/>
            <path id="prefix__Path_999" d="M-502.056 260.521l1.681 1.923 1.953-1.708a.679.679 0 0 0 .064-.955l-.79-.9a.679.679 0 0 0-.955-.064z" class="prefix__cls-16" data-name="Path 999" transform="translate(536.691 -250.847)"/>
            <path id="prefix__Path_1000" fill="#ed4c54" d="M-506.917 270.168l1.945 2.225a.339.339 0 0 0 .477.032.339.339 0 0 0 .032-.477l-1.945-2.225a.339.339 0 0 0-.477-.032.339.339 0 0 0-.032.477z" data-name="Path 1000" transform="translate(540.91 -260.2)"/>
            <path id="prefix__Path_1001" d="M-737.4 448.86l5.088 5.82a.447.447 0 0 1-.042.629.447.447 0 0 1-.629-.042l-5.088-5.82a.447.447 0 0 1 .042-.629.446.446 0 0 1 .629.042z" class="prefix__cls-15" data-name="Path 1001" transform="translate(738.183 -413.031)"/>
            <path id="prefix__Path_1002" fill="#0f7986" d="M-602.17 334.749l4.174 4.775-1.385 1.21-4.174-4.774 1.385-1.211z" data-name="Path 1002" transform="translate(623.302 -315.787)"/>
            <path id="prefix__Path_1003" d="M-583.277 272.174l3.8 4.346a.286.286 0 0 1-.027.4l-10.436 9.123-4.174-4.775 10.436-9.123a.285.285 0 0 1 .4.027z" class="prefix__cls-15" data-name="Path 1003" transform="translate(615.246 -262.308)"/>
            <path id="prefix__Path_1004" fill="#15bdb2" d="M-559 299.269l.4.454a.286.286 0 0 1-.027.4l-10.436 9.123-.585-.669 10.65-9.31z" data-name="Path 1004" transform="translate(594.367 -285.511)"/>
            <path id="prefix__Path_1005" d="M-583.786 275.439l1.626 1.86-.392.343-1.626-1.86zm-9.495 8.3l.951 1.088-.392.343-.951-1.088zm1.373-1.2l1.625 1.86-.392.343-1.626-1.86zm1.334-1.166l.951 1.088-.392.343-.951-1.088zm1.373-1.2l1.626 1.86-.392.343-1.626-1.859zm1.334-1.166l.951 1.088-.392.343-.951-1.088zm1.373-1.2l1.626 1.86-.392.343-1.626-1.86zm1.334-1.166l.951 1.088-.392.343-.951-1.088z" class="prefix__cls-14" data-name="Path 1005" transform="translate(614.87 -265.177)"/>
        </g>
        <path id="prefix__Rectangle_198" d="M0 0H2.7V2.7H0z" class="prefix__cls-15" data-name="Rectangle 198" transform="translate(-778.368 -1.593)"/>
        <path id="prefix__Rectangle_199" d="M0 0H2.7V2.7H0z" class="prefix__cls-15" data-name="Rectangle 199" transform="translate(-773.989 -1.593)"/>
        <path id="prefix__Rectangle_200" d="M0 0H2.7V2.7H0z" class="prefix__cls-15" data-name="Rectangle 200" transform="translate(-769.609 -1.593)"/>
        <path id="prefix__Rectangle_201" d="M0 0H2.7V2.7H0z" class="prefix__cls-15" data-name="Rectangle 201" transform="translate(-765.23 -1.593)"/>
        <path id="prefix__Rectangle_202" d="M0 0H2.7V2.7H0z" class="prefix__cls-15" data-name="Rectangle 202" transform="translate(-760.851 -1.593)"/>
        <path id="prefix__Rectangle_203" d="M0 0H2.7V2.7H0z" class="prefix__cls-15" data-name="Rectangle 203" transform="translate(-778.368 2.766)"/>
        <path id="prefix__Rectangle_204" d="M0 0H2.7V2.7H0z" class="prefix__cls-15" data-name="Rectangle 204" transform="translate(-773.989 2.766)"/>
        <path id="prefix__Rectangle_205" d="M0 0H2.7V2.7H0z" class="prefix__cls-15" data-name="Rectangle 205" transform="translate(-769.609 2.766)"/>
        <path id="prefix__Rectangle_206" d="M0 0H2.7V2.7H0z" class="prefix__cls-15" data-name="Rectangle 206" transform="translate(-765.23 2.766)"/>
        <path id="prefix__Rectangle_207" d="M0 0H2.7V2.7H0z" class="prefix__cls-15" data-name="Rectangle 207" transform="translate(-760.851 2.766)"/>
        <path id="prefix__Rectangle_208" d="M0 0H2.7V2.7H0z" class="prefix__cls-15" data-name="Rectangle 208" transform="translate(-778.368 7.125)"/>
        <path id="prefix__Rectangle_209" d="M0 0H2.7V2.7H0z" class="prefix__cls-15" data-name="Rectangle 209" transform="translate(-773.989 7.125)"/>
        <path id="prefix__Rectangle_210" d="M0 0H2.7V2.7H0z" class="prefix__cls-15" data-name="Rectangle 210" transform="translate(-769.609 7.125)"/>
        <path id="prefix__Rectangle_211" d="M0 0H2.7V2.7H0z" class="prefix__cls-15" data-name="Rectangle 211" transform="translate(-765.23 7.125)"/>
        <path id="prefix__Rectangle_212" d="M0 0H2.7V2.7H0z" class="prefix__cls-15" data-name="Rectangle 212" transform="translate(-760.851 7.125)"/>
        <path id="prefix__Rectangle_213" d="M0 0H2.7V2.7H0z" class="prefix__cls-15" data-name="Rectangle 213" transform="translate(-769.609 11.671)"/>
        <path id="prefix__Rectangle_214" d="M0 0H2.7V2.7H0z" class="prefix__cls-15" data-name="Rectangle 214" transform="translate(-765.23 11.671)"/>
        <path id="prefix__Rectangle_215" d="M0 0H2.7V2.7H0z" class="prefix__cls-15" data-name="Rectangle 215" transform="translate(-760.851 11.671)"/>
    </g>
</svg>
