<svg xmlns="http://www.w3.org/2000/svg" width="125" height="125" viewBox="0 0 125 125">
    <defs>
        <style>
            .prefix__cls-2{fill:#fff}
        </style>
    </defs>
    <g id="prefix__Group_536" data-name="Group 536" transform="translate(-1270.999 -1285.867)">
        <path id="prefix__Path_481" fill="#1452b5" d="M161.72 180.14a62.438 62.438 0 0 1-59.22 62.414c-1.087.057-2.184.086-3.284.086a62.5 62.5 0 1 1 62.5-62.5z" data-name="Path 481" transform="translate(1234.279 1168.227)"/>
        <g id="prefix__Group_241" data-name="Group 241" transform="translate(312.199 1527.048)">
            <g id="prefix__Group_231" data-name="Group 231" transform="translate(1030.457 -197.613)">
                <path id="prefix__Path_502" d="M1569.191-89.462a21.626 21.626 0 0 0-30.6 0 21.631 21.631 0 0 0-3.462 26.087l-2.819 9.129a1.269 1.269 0 0 0 1.609 1.578l8.853-2.925a21.633 21.633 0 0 0 26.422-3.265 21.629 21.629 0 0 0-.003-30.604zm-5.914 18.1a2.447 2.447 0 0 0 .47.792 2.2 2.2 0 0 0 .724.539 2.161 2.161 0 0 0 .929.2 2.6 2.6 0 0 0 .4-.027.907.907 0 0 0 .315-.1 3.1 3.1 0 0 1-.068-.652 3.092 3.092 0 0 1 .113-.834 2.331 2.331 0 0 1 .334-.712 1.674 1.674 0 0 1 .55-.5 1.506 1.506 0 0 1 .754-.186 1.445 1.445 0 0 1 .554.107 1.293 1.293 0 0 1 .45.31 1.48 1.48 0 0 1 .307.512 2.01 2.01 0 0 1 .114.7 2.421 2.421 0 0 1-.094.678 3.4 3.4 0 0 1-.246.61 3.356 3.356 0 0 1-.357.543q-.2.254-.417.473a5.931 5.931 0 0 0 1.289 1.472l-1.3 1.319a6.566 6.566 0 0 1-.937-1.016 6.023 6.023 0 0 1-.648-1.106 3.324 3.324 0 0 1-.6.136 4.832 4.832 0 0 1-.6.038 3.838 3.838 0 0 1-1.084-.156 4.321 4.321 0 0 1-1-.432 4.372 4.372 0 0 1-.86-.671 4.307 4.307 0 0 1-.675-.872 4.464 4.464 0 0 1-.439-1.027 4.054 4.054 0 0 1-.159-1.14 3.93 3.93 0 0 1 .269-1.51 3.018 3.018 0 0 1 .75-1.092 3.177 3.177 0 0 1 1.156-.663 4.732 4.732 0 0 1 1.493-.224h1.206v-1.819h-7.862v3.518h-2.783a2.282 2.282 0 0 0-1.524.459 1.71 1.71 0 0 0-.538 1.376 2.748 2.748 0 0 0 .166.958 2.459 2.459 0 0 0 .47.792 2.215 2.215 0 0 0 .725.539 2.161 2.161 0 0 0 .929.2 2.609 2.609 0 0 0 .4-.027.89.89 0 0 0 .314-.1 3.113 3.113 0 0 1-.068-.652 3.054 3.054 0 0 1 .114-.834 2.315 2.315 0 0 1 .334-.712 1.671 1.671 0 0 1 .549-.5 1.512 1.512 0 0 1 .755-.186 1.439 1.439 0 0 1 .553.107 1.3 1.3 0 0 1 .452.31 1.5 1.5 0 0 1 .307.512 2.008 2.008 0 0 1 .113.7 2.386 2.386 0 0 1-.094.678 3.317 3.317 0 0 1-.246.61 3.35 3.35 0 0 1-.356.543c-.137.169-.276.327-.417.473a5.91 5.91 0 0 0 1.288 1.472l-1.3 1.319a6.517 6.517 0 0 1-.936-1.016 5.957 5.957 0 0 1-.648-1.106 3.336 3.336 0 0 1-.6.136 4.818 4.818 0 0 1-.6.038 3.838 3.838 0 0 1-1.084-.156 4.3 4.3 0 0 1-1-.432 4.377 4.377 0 0 1-.861-.671 4.3 4.3 0 0 1-.674-.872 4.44 4.44 0 0 1-.44-1.027 4.086 4.086 0 0 1-.159-1.14 3.935 3.935 0 0 1 .269-1.51 3.022 3.022 0 0 1 .751-1.092 3.165 3.165 0 0 1 1.156-.663 4.741 4.741 0 0 1 1.494-.224h1.206v-1.819h-7.2v9.6h-1.979V-72h-3.405v1.085c0 .1 0 .205-.011.314a.942.942 0 0 1-.068.3.568.568 0 0 1-.17.228.5.5 0 0 1-.319.09 1.377 1.377 0 0 1-.606-.162 3.732 3.732 0 0 1-.659-.429 5.09 5.09 0 0 1-.641-.611 6.219 6.219 0 0 1-.542-.7 4.174 4.174 0 0 1-.379-.7 1.629 1.629 0 0 1-.145-.619.784.784 0 0 1 .023-.182.305.305 0 0 1 .1-.159.654.654 0 0 1 .219-.114 1.307 1.307 0 0 1 .383-.045h.834v-3.965h-2.654v-1.706h31.351v1.706h-2.313v3.518h-2.782a2.282 2.282 0 0 0-1.524.459 1.707 1.707 0 0 0-.539 1.376 2.748 2.748 0 0 0 .178.958z" class="prefix__cls-2" data-name="Path 502" transform="translate(-1532.249 95.805)"/>
            </g>
            <g id="prefix__Group_233" data-name="Group 233" transform="translate(975.031 -210.461)">
                <g id="prefix__Group_232" data-name="Group 232">
                    <path id="prefix__Path_503" d="M1043.245-221h-44.537a6.575 6.575 0 0 0-6.568 6.568v10.467a6.574 6.574 0 0 0 6.568 6.568h27.2l11.365 9.471a1.628 1.628 0 0 0 1.051.381 1.671 1.671 0 0 0 .7-.154 1.644 1.644 0 0 0 .945-1.488v-8.21h3.284a6.574 6.574 0 0 0 6.568-6.568v-10.467a6.574 6.574 0 0 0-6.576-6.568zm-41.688 15.5l-.546-1.621h-2.841l-.541 1.621h-1.723l2.929-7.867h1.5l2.945 7.867zm4 0h-1.567v-5.846h1.567zm-.149-6.776a.886.886 0 0 1-.635.228.888.888 0 0 1-.635-.228.766.766 0 0 1-.24-.583.774.774 0 0 1 .235-.579.886.886 0 0 1 .64-.227.884.884 0 0 1 .637.227.765.765 0 0 1 .238.579.766.766 0 0 1-.235.579zm6.459 6.776h-1.41l-.076-.622a1.837 1.837 0 0 1-1.5.73 1.984 1.984 0 0 1-1.656-.813 3.634 3.634 0 0 1-.624-2.262 3.527 3.527 0 0 1 .613-2.178 1.992 1.992 0 0 1 1.678-.81 1.789 1.789 0 0 1 1.41.637v-2.982h1.567zm6.306-2.416h-3.723a1.452 1.452 0 0 0 .457.918 1.378 1.378 0 0 0 .965.346 1.685 1.685 0 0 0 1.41-.654l.768.859a2.351 2.351 0 0 1-.951.776 3.116 3.116 0 0 1-1.329.278 2.865 2.865 0 0 1-2.093-.789 2.8 2.8 0 0 1-.809-2.1v-.151a3.535 3.535 0 0 1 .341-1.575 2.5 2.5 0 0 1 .965-1.069 2.7 2.7 0 0 1 1.423-.376 2.423 2.423 0 0 1 1.888.756 3.07 3.07 0 0 1 .69 2.145zm5.537 2.416h-4.852v-.951l2.75-3.636h-2.669v-1.259h4.685v.919l-2.772 3.668h2.858zm4.016-2.74h-3.043v-1.26h3.043zm9.633 2.74h-1.559v-3.728a1.115 1.115 0 0 0-.194-.727.862.862 0 0 0-.687-.23.976.976 0 0 0-.973.67l.006 4.015h-1.562v-3.723a1.1 1.1 0 0 0-.2-.735.872.872 0 0 0-.68-.227 1.011 1.011 0 0 0-.961.551v4.134h-1.562v-5.846h1.464l.048.654a2.055 2.055 0 0 1 1.681-.761 1.559 1.559 0 0 1 1.551.891 2.006 2.006 0 0 1 1.756-.891 1.747 1.747 0 0 1 1.416.553 2.554 2.554 0 0 1 .464 1.668zm5.744-.705a2.611 2.611 0 0 1-2.015.813 2.62 2.62 0 0 1-2.018-.811 3.106 3.106 0 0 1-.754-2.2v-.07a3.462 3.462 0 0 1 .336-1.551 2.444 2.444 0 0 1 .965-1.054 2.811 2.811 0 0 1 1.461-.373 2.663 2.663 0 0 1 1.931.723 2.906 2.906 0 0 1 .835 1.967l.011.4a3.056 3.056 0 0 1-.747 2.152zm3.361.705h-1.564v-5.846h1.567zm-.149-6.776a.883.883 0 0 1-.634.228.884.884 0 0 1-.635-.228.766.766 0 0 1-.24-.583.77.77 0 0 1 .235-.579.883.883 0 0 1 .64-.227.889.889 0 0 1 .637.227.769.769 0 0 1 .238.579.766.766 0 0 1-.236.579z" class="prefix__cls-2" data-name="Path 503" transform="translate(-992.14 221)"/>
                </g>
            </g>
            <g id="prefix__Group_235" data-name="Group 235" transform="translate(973.441 -173.106)">
                <g id="prefix__Group_234" data-name="Group 234">
                    <path id="prefix__Path_504" d="M1022.624 143.01h-39.406a6.574 6.574 0 0 0-6.568 6.568v8a6.575 6.575 0 0 0 6.568 6.568h22.064l11.365 9.471a1.625 1.625 0 0 0 1.051.381 1.666 1.666 0 0 0 .7-.154 1.645 1.645 0 0 0 .946-1.488v-8.21h3.284a6.575 6.575 0 0 0 6.568-6.568v-8a6.574 6.574 0 0 0-6.572-6.568zM988.1 157.428h-1.632l-1.281-5.262-1.281 5.262h-1.632l-1.745-7.867h1.615l1.064 5.587 1.3-5.587h1.372l1.292 5.6 1.059-5.6h1.615zm6.516-.387a2.953 2.953 0 0 1-1.772.495 3.1 3.1 0 0 1-1.305-.262 2.2 2.2 0 0 1-.894-.719 1.663 1.663 0 0 1-.324-.985h1.479a.816.816 0 0 0 .308.637 1.22 1.22 0 0 0 .767.222 1.134 1.134 0 0 0 .678-.17.532.532 0 0 0 .23-.446.5.5 0 0 0-.283-.451 3.225 3.225 0 0 0-.911-.295q-2.084-.437-2.085-1.772a1.605 1.605 0 0 1 .645-1.3 2.6 2.6 0 0 1 1.689-.521 2.808 2.808 0 0 1 1.781.523 1.654 1.654 0 0 1 .667 1.362h-1.562a.759.759 0 0 0-.216-.554.916.916 0 0 0-.675-.219.936.936 0 0 0-.612.179.563.563 0 0 0-.216.454.481.481 0 0 0 .245.419 2.536 2.536 0 0 0 .83.276 6.7 6.7 0 0 1 .983.262 1.616 1.616 0 0 1 1.238 1.572 1.524 1.524 0 0 1-.682 1.293zm6.954-2.482a3.511 3.511 0 0 1-.613 2.164 1.969 1.969 0 0 1-1.656.813 1.819 1.819 0 0 1-1.432-.616v2.755h-1.559v-8.094h1.448l.054.573a1.834 1.834 0 0 1 1.48-.68 1.979 1.979 0 0 1 1.681.8 3.6 3.6 0 0 1 .6 2.2zm5.932 2.869h-1.577a1.752 1.752 0 0 1-.157-.524 1.886 1.886 0 0 1-1.474.632 2.077 2.077 0 0 1-1.424-.5 1.6 1.6 0 0 1-.564-1.254 1.652 1.652 0 0 1 .689-1.426 3.394 3.394 0 0 1 1.991-.5h.718v-.336a.965.965 0 0 0-.208-.649.817.817 0 0 0-.656-.243.927.927 0 0 0-.619.19.641.641 0 0 0-.225.518h-1.561a1.565 1.565 0 0 1 .313-.94 2.074 2.074 0 0 1 .886-.678 3.23 3.23 0 0 1 1.287-.245 2.547 2.547 0 0 1 1.715.543 1.9 1.9 0 0 1 .635 1.526v2.534a2.79 2.79 0 0 0 .232 1.259zm4.253-4.382a4.26 4.26 0 0 0-.561-.043 1.144 1.144 0 0 0-1.163.6v3.826h-1.561v-5.846h1.475l.043.7a1.448 1.448 0 0 1 1.3-.8 1.622 1.622 0 0 1 .487.07zm2.242 2.835a.951.951 0 0 0 .837.4 1.028 1.028 0 0 0 .7-.237.835.835 0 0 0 .28-.632h1.464a1.993 1.993 0 0 1-.324 1.089 2.133 2.133 0 0 1-.872.767 2.733 2.733 0 0 1-1.223.273 2.539 2.539 0 0 1-1.979-.8 3.152 3.152 0 0 1-.723-2.2v-.1a3.117 3.117 0 0 1 .718-2.156 2.51 2.51 0 0 1 1.972-.8 2.458 2.458 0 0 1 1.759.624 2.208 2.208 0 0 1 .672 1.661h-1.464a1.076 1.076 0 0 0-.28-.742 1.044 1.044 0 0 0-1.537.113 2.3 2.3 0 0 0-.278 1.291v.162a2.33 2.33 0 0 0 .281 1.288zm5.825 1.546h-1.567v-5.846h1.567zm-.149-6.776a1 1 0 0 1-1.269 0 .829.829 0 0 1-.005-1.162 1.013 1.013 0 0 1 1.278 0 .826.826 0 0 1 0 1.162zm6.53 4.36h-3.723a1.451 1.451 0 0 0 .457.918 1.38 1.38 0 0 0 .965.346 1.685 1.685 0 0 0 1.41-.654l.768.859a2.344 2.344 0 0 1-.951.776 3.113 3.113 0 0 1-1.329.278 2.867 2.867 0 0 1-2.094-.789 2.8 2.8 0 0 1-.808-2.1v-.151a3.535 3.535 0 0 1 .34-1.575 2.5 2.5 0 0 1 .965-1.069 2.71 2.71 0 0 1 1.424-.376 2.425 2.425 0 0 1 1.888.756 3.074 3.074 0 0 1 .689 2.145z" class="prefix__cls-2" data-name="Path 504" transform="translate(-976.65 -143.01)"/>
                </g>
            </g>
            <g id="prefix__Group_237" data-name="Group 237" transform="translate(1041.758 -179.478)">
                <path id="prefix__Rectangle_115" d="M0 0H3.405V3.965H0z" class="prefix__cls-2" data-name="Rectangle 115"/>
            </g>
            <g id="prefix__Group_238" data-name="Group 238" transform="translate(994.663 -163.384)">
                <path id="prefix__Path_506" d="M1185.589 239.561q0 1.832-1.119 1.832a1.038 1.038 0 0 1-1.021-.578v-2.394a1.022 1.022 0 0 1 1.01-.561.942.942 0 0 1 .84.443 2.293 2.293 0 0 1 .29 1.258z" class="prefix__cls-2" data-name="Path 506" transform="translate(-1183.45 -237.849)"/>
                <path id="prefix__Path_507" d="M1243.727 257.6v1.006a1.013 1.013 0 0 1-.432.413 1.347 1.347 0 0 1-.637.154.8.8 0 0 1-.562-.189.623.623 0 0 1-.205-.48l.005-.092q.076-.81 1.248-.811z" class="prefix__cls-2" data-name="Path 507" transform="translate(-1235.893 -255.563)"/>
                <path id="prefix__Path_508" d="M1425.6 238.841v.125h-2.173a1.635 1.635 0 0 1 .37-.9.978.978 0 0 1 .754-.315 1.009 1.009 0 0 1 .767.285 1.165 1.165 0 0 1 .282.805z" class="prefix__cls-2" data-name="Path 508" transform="translate(-1398.803 -237.75)"/>
            </g>
            <g id="prefix__Group_240" data-name="Group 240" transform="translate(981.498 -200.844)">
                <path id="prefix__Path_513" d="M1057.127-124.345h-1.967l.978-2.945z" class="prefix__cls-2" data-name="Path 513" transform="translate(-1055.16 127.29)"/>
                <path id="prefix__Path_514" d="M1150.439-115.038v2.31a1.043 1.043 0 0 1-1.021.612.933.933 0 0 1-.832-.438 2.305 2.305 0 0 1-.286-1.26q0-1.835 1.13-1.835a1.029 1.029 0 0 1 1.009.611z" class="prefix__cls-2" data-name="Path 514" transform="translate(-1138.742 116.845)"/>
                <path id="prefix__Path_515" d="M1211.921-114.669v.125h-2.172a1.633 1.633 0 0 1 .37-.9.975.975 0 0 1 .753-.315 1.01 1.01 0 0 1 .768.285 1.166 1.166 0 0 1 .281.805z" class="prefix__cls-2" data-name="Path 515" transform="translate(-1193.886 116.943)"/>
                <path id="prefix__Path_516" d="M1459.784-114.044a2.4 2.4 0 0 1-.318 1.394 1.037 1.037 0 0 1-.887.435 1.035 1.035 0 0 1-.9-.44 2.194 2.194 0 0 1-.313-1.275 2.444 2.444 0 0 1 .313-1.383 1.021 1.021 0 0 1 .887-.446 1.037 1.037 0 0 1 .9.449 2.166 2.166 0 0 1 .318 1.266z" class="prefix__cls-2" data-name="Path 516" transform="translate(-1416.095 116.943)"/>
            </g>
        </g>
    </g>
</svg>
