<?xml version="1.0" encoding="utf-8"?>
<!-- Generator: Adobe Illustrator 24.2.1, SVG Export Plug-In . SVG Version: 6.00 Build 0)  -->
<svg version="1.1" id="Layer_1" xmlns="http://www.w3.org/2000/svg" xmlns:xlink="http://www.w3.org/1999/xlink" x="0px" y="0px"
	 viewBox="0 0 150 150" style="enable-background:new 0 0 150 150;" xml:space="preserve">
<style type="text/css">
	.st0{fill:#E2E2E2;}
	.st1{fill:#989898;}
	.st2{fill:#FFFFFF;stroke:#000000;stroke-miterlimit:10;}
</style>
<g id="Layer_1_1_">
	<path class="st0" d="M150,75c0,17.2-5.8,33-15.5,45.6c-0.5,0.6-1,1.3-1.5,1.9c-1.8,2.2-3.7,4.2-5.7,6.2c-2.6,2.6-5.5,5-8.5,7.1
		c-0.3,0.2-0.6,0.4-0.9,0.7c-0.7,0.5-1.4,0.9-2,1.4C104.1,145.5,90.1,150,75,150s-29.1-4.5-40.9-12.1c-0.7-0.5-1.4-0.9-2-1.4
		c-0.3-0.2-0.6-0.4-0.9-0.7c-3.1-2.2-6-4.7-8.7-7.3c-1.1-1.1-2.2-2.2-3.3-3.4l-0.1-0.1c-0.8-0.9-1.6-1.9-2.4-2.8l-0.1-0.1l0,0
		c-0.6-0.8-1.3-1.6-1.9-2.4C5.5,107.1,0,91.7,0,75C0,33.6,33.6,0,75,0S150,33.6,150,75z"/>
</g>
<g id="Layer_2_1_">
	<g id="prefix__Group_550" transform="translate(-331 -2463)">
		<g id="prefix__Group_267" transform="translate(339.256 2472.133)">
			<path id="prefix__Path_615" class="st1" d="M96.1,37.3c0.1-1.2,0.1-2.4,0.1-3.7c0-17.8-10.5-29.6-27-30.7
				C54.8,1.9,44,7.6,39,17.1c-1.7,3.2-2.6,8.6-3,12.9c-0.6,2.3-0.9,4.7-0.9,7h0.1c0,0,0,0,0,0.1h-0.1C33,37.5,32,42,33,47.2
				c0.9,4.7,3,8.4,5,8.7c2.5,6.8,6.3,13,11.4,18.1c2.6,2.6,5.7,4.8,9.2,6.2c4.5,1.9,9.6,1.9,14.1,0c3.6-1.5,6.8-3.7,9.5-6.5
				c4.9-5.1,8.7-11.2,11.1-17.9c1.9-0.6,3.9-4.1,4.7-8.6C98.8,42.3,98,38,96.1,37.3z M92.9,47.8c0,0.2-0.1,0.4-0.1,0.6
				c-0.3,1.8-1.1,3.5-2.3,4.9c-0.2,0.2-0.4,0.3-0.6,0.4c-0.2,0.1-0.4,0.1-0.6,0.1h-0.1c-0.2,0-0.4-0.2-0.5-0.3
				c0,0.1-0.1,0.2-0.1,0.3c-2.3,7-6.6,13.9-12,18.2c-0.8,0.6-1.6,1.2-2.5,1.7c-2.5,1.5-5.4,2.4-8.3,2.4c-0.1,0-0.2,0-0.3,0
				c-3.8-0.2-7.4-1.6-10.4-3.9c-5.6-4.3-10-11.4-12.3-18.6c-0.1,0.1-0.3,0.2-0.5,0.3c0,0-0.1,0-0.2,0.1c-0.2,0-0.3,0-0.5,0
				c-0.4-0.1-0.7-0.3-1-0.6c-1.2-1.5-2-3.4-2.3-5.3c0-0.1,0-0.3-0.1-0.4c0-1.6,0.1-3.2,0.2-4.8c0.1-0.5,0.4-1,0.8-1.3
				c0.1-0.1,0.3-0.1,0.4-0.2c0,0,0,0,0.1,0c0.2,0,0.5,0,0.7,0.1s0.4,0.2,0.5,0.3v-0.1c0.4-2.9,1.5-5.7,3.2-8c1.9-2.5,4.9-4,8.1-4.1
				c0.6,0,1.3,0,1.9,0c3.3,1.1,6.8,1.7,10.2,1.7c2.9,0.1,5.9-0.4,8.7-1.3c0.4,0,0.8,0,1.2,0c0.5,0,1,0,1.5,0c3.4,0.1,5.9,1.8,8.3,3
				c0.2,0.1,0.4,0.2,0.6,0.3c-0.1-1.1-0.9-2.3-1-3.1c0-0.1,0-0.1,0-0.2c0.4,0.1,0.8,0.3,1.2,0.5c1.9,2,3.7,5.4,5.2,10.9
				c0,0.1,0,0.1,0.1,0.2v0.1l0,0l0,0c0.2-0.2,0.4-0.3,0.6-0.3h0.1c0.1,0,0.1,0,0.2,0s0.2,0,0.3,0l0,0c0.1,0,0.2,0,0.3,0.1
				c0.9,0.4,1.4,2.1,1.4,4.4C93.1,46.3,93,47.1,92.9,47.8z"/>
			<path class="st1" d="M124.6,112.3c-0.2-1.4-0.5-2.8-1.1-4.2c-1.2-5.7-3.7-11.1-7.4-15.6c-5.2-6.8-10.8-7.8-13.1-8.3
				c-0.3,0-0.5-0.1-0.7-0.1s-0.5-0.1-0.7-0.1c0.1,0.2,0.2,0.3,0.2,0.4c0.6,1.4,1.1,2.8,1.3,4.2c0.3,0.1,0.7,0.3,1.1,0.5
				c3.8,2,5.2,6.8,3.2,10.6c-2,3.8-6.8,5.2-10.6,3.2c-1.8-1-3.2-2.7-3.8-4.7c-1.2-4.1,1.2-8.5,5.3-9.7c-0.4-2-1.4-3.8-2.8-5.2
				l-1.4-0.1c-1.9-0.1-3.9-0.3-5.8-0.6c-1.9,5.1-11.4,8.8-23.1,8.8S44,87.7,42.1,82.6c-1.9,0.3-3.8,0.5-5.8,0.6
				c-0.4,0.1-0.8,0.1-1.2,0.1c-1.5,1.3-2.7,3-3.3,5c0.7,0.5,1.2,1.1,1.5,1.8c3,1.4,5.7,4.4,7.7,8.7c0.3,0.7,0.4,1.6,0.1,2.3
				c1.2,3,1.8,6.2,1.9,9.5c0,4.1,0,7.9-4.4,8.9c-0.5,0.4-1.1,0.6-1.7,0.6h-3c-1.5,0-2.7-1.2-2.7-2.7v-0.1c0.1-1.4,1.3-2.6,2.7-2.6h3
				c0.3,0,0.6,0.1,0.9,0.2c0.1,0,0.1-0.1,0.2-0.1c0.3-0.6,0.3-3,0.3-4.2c-0.1-2.7-0.6-5.3-1.6-7.8c-0.5-0.3-0.9-0.8-1.2-1.3
				c-1.8-3.8-4.2-6.2-6.2-6.2c-2.1,0-4.6,2.6-6.4,6.5c-0.3,0.7-0.8,1.2-1.4,1.5c-0.9,2.3-1.3,4.8-1.4,7.3c0,1,0,3.6,0.4,4.2
				c0.1,0,0.2,0.1,0.3,0.1c0.3-0.1,0.7-0.2,1-0.2h3c1.4,0,2.6,1,2.7,2.4v0.2c0,1.4-1.2,2.7-2.7,2.7h-3c-0.6,0-1.1-0.2-1.6-0.5
				c-1.5-0.2-2.8-1-3.6-2.3c-0.9-1.4-1.1-3.3-1.1-6.6c0.1-3.2,0.7-6.3,1.9-9.3c-0.1-0.7-0.1-1.4,0.2-2c1.1-2.5,2.7-4.8,4.6-6.8
				c0.9-0.9,2-1.6,3.1-2.2c0.4-0.9,1-1.7,1.9-2.2c0.3-1.4,0.8-2.7,1.5-4c-0.1,0-0.3,0.1-0.5,0.1s-0.4,0-0.7,0.1
				c-4.9,0.8-9.2,3.4-12.3,7.2c-4.1,4.8-6.9,10.5-8.3,16.7c-0.2,0.8-0.3,1.6-0.5,2.4c0.6,0.8,1.3,1.6,1.9,2.4l0.1,0.1
				c0.8,0.9,1.6,1.9,2.4,2.8l0.1,0.1c1.1,1.2,2.2,2.3,3.3,3.4c2.2,2.1,4.6,4.2,7,6.1c0.5,0.4,1.1,0.8,1.7,1.2H23h86.5h1l0,0
				c0.4-0.3,0.8-0.5,1.1-0.8l0,0c0.2-0.1,0.4-0.3,0.5-0.4L124.6,112.3z"/>
			<circle id="prefix__Ellipse_100" class="st1" cx="100.9" cy="95.6" r="4.2"/>
		</g>
	</g>
	<polygon class="st1" points="29.5,134.6 120.5,134.6 115,138.4 109.2,142 102.1,144.9 94.8,147.3 89.2,148.6 80.3,149.8 
		69.7,149.8 64.4,149.2 57.1,147.8 51.2,146.1 45.4,143.9 40.4,141.5 35,138.4 	"/>
</g>
<path class="st1" d="M11.7,123.3"/>
<path class="st1" d="M14.7,117.2"/>
<polygon class="st1" points="15.7,119.7 15.6,120.8 19.7,125.6 21,126.9 22.9,128.9 24.7,130.5 26.9,132.5 29.2,134.3 31.2,135.8 
	32.6,136.9 35.9,139 38.6,140.6 42.3,142.5 45.7,144 49.1,145.4 53.3,146.8 54,147 58.9,148.2 63.1,149.1 67,149.6 70.2,149.7 
	38.8,135.3 23.7,128.4 19.9,123.2 "/>
<path class="st2" d="M109.6,121.1"/>
<path class="st1" d="M135.6,124.9"/>
<polygon class="st1" points="132.9,121.4 133,122.5 130.9,124.9 127.8,128.2 123.4,132.2 120.4,134.6 "/>
<polygon class="st1" points="127.7,128.3 126.6,129.4 125.4,130.5 124.4,131.4 123.3,132.3 121.8,133.6 121.2,134.1 120.5,134.6 
	120.5,134.6 120.4,134.6 118,136.4 114.7,138.6 110.2,141.4 106.9,143 100.8,145.4 97,146.7 95.2,147.2 91.8,148 123,126.3 "/>
<polygon class="st1" points="132.8,120.8 129.1,124.5 129.7,126.2 133,122.5 "/>
<path class="st1" d="M125,124"/>
<polygon class="st1" points="132.7,120.2 128.4,123 126.3,125.7 126.1,127.3 127.6,128.3 133,122.5 "/>
</svg>
