<?xml version="1.0" encoding="utf-8"?>
<!-- Generator: Adobe Illustrator 24.2.1, SVG Export Plug-In . SVG Version: 6.00 Build 0)  -->
<svg version="1.1" xmlns="http://www.w3.org/2000/svg" xmlns:xlink="http://www.w3.org/1999/xlink" x="0px" y="0px"
	 viewBox="0 0 260 146" style="enable-background:new 0 0 260 146;" xml:space="preserve">
<style type="text/css">
	.st0{fill:#FFFFFF;}
	.st1{fill:#048381;}
	.st2{fill:#D21F44;}
</style>
<g id="Layer_1">
</g>
<g id="Layer_3">
	<rect class="st0" width="260" height="146"/>
</g>
<g id="Layer_2">
	<path class="st1" d="M23.8,57.1c-9.1,0-16.4,7.4-16.4,16.4c0,9.1,7.4,16.4,16.4,16.4c9.1,0,16.4-7.4,16.4-16.4
		C40.2,64.5,32.9,57.1,23.8,57.1z M23.8,87c-7.4,0-13.4-6-13.4-13.4c0-7.4,6-13.4,13.4-13.4c7.4,0,13.4,6,13.4,13.4
		C37.2,81,31.2,87,23.8,87z"/>
	<path class="st2" d="M19.7,72.1c0.2-2.2,3.1-3.5,4.3-1.4c1.2-2.1,4.2-0.9,4.3,1.4h4.7c0.8-4-2.1-6.7-5-6.7c-1.5,0-3,0.5-4,2.3
		c-1-1.8-2.5-2.3-4-2.3c-2.9,0-5.8,2.8-5,6.8H19.7L19.7,72.1z"/>
	<path class="st2" d="M27.8,74.1c-0.1,0.1-0.1,0.2-0.2,0.2c-1,1.4-2.2,2.1-3.6,3c-1.4-0.9-2.7-1.6-3.6-3c-0.1-0.1-0.1-0.2-0.2-0.2
		h-4.6c0.2,0.4,0.5,0.9,0.7,1.3c1,1.5,2.1,2.6,3.4,3.6c0,0,0.1,0.1,0.2,0.2c3,2.3-0.6,4.2-0.5,4.2l0,0c2.1-0.1,9.2-3.6,12.1-8
		c0.3-0.5,0.6-0.9,0.8-1.3L27.8,74.1C27.8,74.1,27.8,74.1,27.8,74.1z"/>
	<path class="st1" d="M23.8,57.1c-9.1,0-16.4,7.4-16.4,16.4c0,9.1,7.4,16.4,16.4,16.4c9.1,0,16.4-7.4,16.4-16.4
		C40.2,64.5,32.9,57.1,23.8,57.1z M23.8,87c-7.4,0-13.4-6-13.4-13.4c0-7.4,6-13.4,13.4-13.4c7.4,0,13.4,6,13.4,13.4
		C37.2,81,31.2,87,23.8,87z"/>
	<path class="st2" d="M19.7,72.1c0.2-2.2,3.1-3.5,4.3-1.4c1.2-2.1,4.2-0.9,4.3,1.4h4.7c0.8-4-2.1-6.7-5-6.7c-1.5,0-3,0.5-4,2.3
		c-1-1.8-2.5-2.3-4-2.3c-2.9,0-5.8,2.8-5,6.8H19.7L19.7,72.1z"/>
	<path class="st2" d="M27.8,74.1c-0.1,0.1-0.1,0.2-0.2,0.2c-1,1.4-2.2,2.1-3.6,3c-1.4-0.9-2.7-1.6-3.6-3c-0.1-0.1-0.1-0.2-0.2-0.2
		h-4.6c0.2,0.4,0.5,0.9,0.7,1.3c1,1.5,2.1,2.6,3.4,3.6c0,0,0.1,0.1,0.2,0.2c3,2.3-0.6,4.2-0.5,4.2l0,0c2.1-0.1,9.2-3.6,12.1-8
		c0.3-0.5,0.6-0.9,0.8-1.3L27.8,74.1C27.8,74.1,27.8,74.1,27.8,74.1z"/>
	<path class="st1" d="M48.7,64.2h2.2v1.1c0,0.3,0,0.6,0,0.6h0c0.5-0.9,1.6-1.9,3-1.9c1.4,0,2.3,0.7,2.7,1.9h0c0.5-1,1.7-1.9,3.2-1.9
		c1.9,0,3,1.1,3,3.5v6h-2.3V68c0-1.1-0.2-1.9-1.3-1.9c-1.2,0-2,0.9-2.2,2.1c-0.1,0.4-0.1,0.8-0.1,1.2v4.1h-2.3V68
		c0-1-0.2-1.9-1.3-1.9c-1.2,0-2,0.9-2.3,2.1C51,68.6,51,69,51,69.4v4.1h-2.3L48.7,64.2L48.7,64.2z"/>
	<path class="st1" d="M64.7,75c0,0,0.5,0.4,1,0.4c0.6,0,1.3-0.4,1.6-1.2l0.3-0.8l-3.9-9.1h2.6l1.9,5.3c0.2,0.5,0.3,1.3,0.3,1.3h0
		c0,0,0.1-0.7,0.3-1.2l1.8-5.4h2.5l-4.1,10.7c-0.7,1.7-1.9,2.4-3.3,2.4c-1.1,0-1.9-0.6-1.9-0.6L64.7,75z"/>
	<path class="st1" d="M74.9,60.6h2.3v5.5h5.9v-5.5h2.3v12.9h-2.3v-5.4h-5.9v5.4h-2.3L74.9,60.6L74.9,60.6z"/>
	<path class="st1" d="M92,64c2.7,0,4.1,1.9,4.1,4.4c0,0.3-0.1,0.9-0.1,0.9h-6.4c0.1,1.6,1.4,2.4,2.8,2.4c1.5,0,2.7-1,2.7-1l0.9,1.7
		c0,0-1.4,1.3-3.7,1.3c-3.1,0-5-2.2-5-4.8C87.3,66,89.2,64,92,64z M93.8,67.7c0-1.3-0.8-1.9-1.8-1.9c-1.2,0-2,0.7-2.2,1.9H93.8z"/>
	<path class="st1" d="M102.6,67.7h0.3v-0.1c0-1.2-0.8-1.6-1.8-1.6c-1.3,0-2.5,0.9-2.5,0.9l-0.9-1.7c0,0,1.4-1.1,3.6-1.1
		c2.4,0,3.9,1.3,3.9,3.7v5.8h-2.1v-0.8c0-0.4,0-0.7,0-0.7h0c0,0-0.7,1.6-2.8,1.6c-1.7,0-3.1-1-3.1-2.9
		C97.1,67.9,101.1,67.7,102.6,67.7z M100.9,71.9c1.2,0,2.1-1.3,2.1-2.4v-0.2h-0.4c-1.2,0-3.1,0.2-3.1,1.5
		C99.5,71.3,99.9,71.9,100.9,71.9z"/>
	<path class="st1" d="M107,60.6h2.3v9.7c0,1,0.3,1.3,0.9,1.3c0.2,0,0.3,0,0.3,0v2c0,0-0.3,0.1-0.7,0.1c-1.3,0-2.9-0.3-2.9-3
		L107,60.6L107,60.6z"/>
	<path class="st1" d="M112.6,66.2h-1.2v-1.8h1.3v-2.7h2.2v2.7h2.1v1.8h-2.1v3.6c0,1.5,1.2,1.7,1.8,1.7c0.3,0,0.4,0,0.4,0v2
		c0,0-0.3,0.1-0.7,0.1c-1.3,0-3.8-0.4-3.8-3.5L112.6,66.2L112.6,66.2z"/>
	<path class="st1" d="M118.9,60.6h2.3v4.5c0,0.5,0,0.8,0,0.8h0c0.5-0.9,1.6-1.8,3.2-1.8c2.1,0,3.2,1.1,3.2,3.5v6h-2.3V68
		c0-1.1-0.3-1.9-1.5-1.9c-1.2,0-2.2,0.8-2.5,1.9c-0.1,0.4-0.1,0.8-0.1,1.2v4.3h-2.3L118.9,60.6L118.9,60.6z"/>
	<path class="st1" d="M130.6,70.2c0,0,1.4,1.4,3.2,1.4c1,0,1.9-0.5,1.9-1.6c0-2.3-6.1-1.9-6.1-5.9c0-2.1,1.8-3.7,4.3-3.7
		c2.5,0,3.8,1.4,3.8,1.4l-1,1.9c0,0-1.2-1.1-2.8-1.1c-1.1,0-1.9,0.6-1.9,1.5c0,2.3,6.1,1.7,6.1,5.8c0,2.1-1.6,3.8-4.2,3.8
		c-2.9,0-4.4-1.8-4.4-1.8L130.6,70.2z"/>
	<path class="st1" d="M139.6,64.2h2.1v0.7c0,0.3,0,0.6,0,0.6h0c0,0,0.8-1.5,3-1.5c2.5,0,4.1,2,4.1,4.8c0,2.9-1.8,4.8-4.2,4.8
		c-1.8,0-2.7-1.3-2.7-1.3h0c0,0,0,0.3,0,0.8v3.9h-2.3V64.2z M144.1,71.8c1.3,0,2.3-1,2.3-2.9c0-1.8-0.9-2.9-2.3-2.9
		c-1.2,0-2.3,0.9-2.3,2.9C141.8,70.3,142.6,71.8,144.1,71.8z"/>
	<path class="st1" d="M154.6,64c2.7,0,4.1,1.9,4.1,4.4c0,0.3-0.1,0.9-0.1,0.9h-6.4c0.1,1.6,1.4,2.4,2.8,2.4c1.5,0,2.7-1,2.7-1
		l0.9,1.7c0,0-1.4,1.3-3.7,1.3c-3.1,0-5-2.2-5-4.8C149.9,66,151.9,64,154.6,64z M156.4,67.7c0-1.3-0.8-1.9-1.8-1.9
		c-1.2,0-2,0.7-2.2,1.9H156.4z"/>
	<path class="st1" d="M165.3,64c2.4,0,3.6,1.4,3.6,1.4l-1,1.6c0,0-1-1-2.4-1c-1.7,0-2.8,1.3-2.8,2.9c0,1.6,1.1,2.9,2.9,2.9
		c1.6,0,2.7-1.2,2.7-1.2l0.9,1.6c0,0-1.3,1.5-3.8,1.5c-3.1,0-5-2.2-5-4.8C160.2,66.2,162.2,64,165.3,64z"/>
	<path class="st1" d="M170.7,60.6h2.3v2.1h-2.3V60.6z M170.7,64.2h2.3v9.3h-2.3V64.2z"/>
	<path class="st1" d="M180.5,67.7h0.3v-0.1c0-1.2-0.8-1.6-1.8-1.6c-1.3,0-2.5,0.9-2.5,0.9l-0.9-1.7c0,0,1.4-1.1,3.6-1.1
		c2.4,0,3.9,1.3,3.9,3.7v5.8H181v-0.8c0-0.4,0-0.7,0-0.7h0c0,0-0.7,1.6-2.8,1.6c-1.7,0-3.1-1-3.1-2.9C175,67.9,179,67.7,180.5,67.7z
		 M178.7,71.9c1.2,0,2.1-1.3,2.1-2.4v-0.2h-0.4c-1.2,0-3.1,0.2-3.1,1.5C177.3,71.3,177.8,71.9,178.7,71.9z"/>
	<path class="st1" d="M185.6,60.6h2.3v9.7c0,1,0.3,1.3,0.9,1.3c0.2,0,0.3,0,0.3,0v2c0,0-0.3,0.1-0.7,0.1c-1.3,0-2.9-0.3-2.9-3
		L185.6,60.6L185.6,60.6z"/>
	<path class="st1" d="M191.2,60.6h2.3v2.1h-2.3V60.6z M191.2,64.2h2.3v9.3h-2.3V64.2z"/>
	<path class="st1" d="M196.2,70.7c0,0,1,1,2.5,1c0.7,0,1.2-0.3,1.2-0.8c0-1.4-4.5-1.2-4.5-4.2c0-1.7,1.5-2.7,3.5-2.7
		c2.1,0,3.1,1.1,3.1,1.1l-0.9,1.7c0,0-0.9-0.8-2.3-0.8c-0.6,0-1.2,0.3-1.2,0.8c0,1.3,4.5,1.1,4.5,4.1c0,1.5-1.3,2.8-3.5,2.8
		c-2.3,0-3.6-1.4-3.6-1.4L196.2,70.7z"/>
	<path class="st1" d="M204.4,66.2h-1.2v-1.8h1.3v-2.7h2.3v2.7h2.1v1.8h-2.1v3.6c0,1.5,1.2,1.7,1.8,1.7c0.3,0,0.4,0,0.4,0v2
		c0,0-0.3,0.1-0.7,0.1c-1.3,0-3.9-0.4-3.9-3.5L204.4,66.2L204.4,66.2z"/>
	<path class="st2" d="M210.3,67.6h2.3v2.3h-2.3V67.6z"/>
	<path class="st1" d="M219.7,64c2.4,0,3.6,1.4,3.6,1.4l-1,1.6c0,0-1-1-2.4-1c-1.7,0-2.8,1.3-2.8,2.9c0,1.6,1.1,2.9,2.9,2.9
		c1.6,0,2.7-1.2,2.7-1.2l0.9,1.6c0,0-1.3,1.5-3.8,1.5c-3.1,0-5-2.2-5-4.8C214.7,66.2,216.6,64,219.7,64z"/>
	<path class="st1" d="M229.6,64c2.8,0,5.1,2,5.1,4.8c0,2.9-2.3,4.8-5.1,4.8c-2.8,0-5.1-2-5.1-4.8C224.5,66,226.7,64,229.6,64z
		 M229.6,71.7c1.5,0,2.7-1.2,2.7-2.9c0-1.7-1.3-2.9-2.7-2.9c-1.5,0-2.8,1.2-2.8,2.9C226.8,70.6,228.1,71.7,229.6,71.7z"/>
	<path class="st1" d="M236.1,64.2h2.2v1.1c0,0.3,0,0.6,0,0.6h0c0.5-0.9,1.6-1.9,3-1.9c1.4,0,2.3,0.7,2.7,1.9h0
		c0.5-1,1.7-1.9,3.2-1.9c1.9,0,3,1.1,3,3.5v6h-2.3V68c0-1.1-0.2-1.9-1.3-1.9c-1.2,0-2,0.9-2.2,2.1c-0.1,0.4-0.1,0.8-0.1,1.2v4.1H242
		V68c0-1-0.2-1.9-1.3-1.9c-1.2,0-2,0.9-2.3,2.1c-0.1,0.3-0.1,0.8-0.1,1.2v4.1h-2.3L236.1,64.2L236.1,64.2z"/>
	<g>
		<path class="st1" d="M244.8,56.4c0.2-0.3,0.4-0.6,0.6-0.9c0.3-0.3,0.6-0.5,0.9-0.6c0.3-0.1,0.7-0.2,1.1-0.2c0.4,0,0.8,0.1,1.1,0.2
			c0.3,0.1,0.6,0.3,0.9,0.6c0.3,0.3,0.5,0.5,0.6,0.9c0.2,0.3,0.2,0.7,0.2,1.1c0,0.4-0.1,0.8-0.2,1.1c-0.2,0.3-0.4,0.6-0.6,0.9
			s-0.6,0.5-0.9,0.6c-0.3,0.1-0.7,0.2-1.1,0.2c-0.4,0-0.8-0.1-1.1-0.2c-0.3-0.1-0.6-0.3-0.9-0.6c-0.3-0.3-0.5-0.6-0.6-0.9
			c-0.2-0.3-0.2-0.7-0.2-1.1C244.6,57.1,244.7,56.8,244.8,56.4z M245.3,58.5c0.1,0.3,0.3,0.6,0.5,0.8c0.2,0.2,0.5,0.4,0.7,0.5
			c0.3,0.1,0.6,0.2,0.9,0.2c0.3,0,0.6-0.1,0.9-0.2c0.3-0.1,0.5-0.3,0.7-0.5c0.2-0.2,0.4-0.5,0.5-0.8c0.1-0.3,0.2-0.6,0.2-1
			c0-0.3-0.1-0.7-0.2-0.9c-0.1-0.3-0.3-0.5-0.5-0.8c-0.2-0.2-0.5-0.4-0.7-0.5c-0.3-0.1-0.6-0.2-0.9-0.2c-0.3,0-0.6,0.1-0.9,0.2
			c-0.3,0.1-0.5,0.3-0.7,0.5c-0.2,0.2-0.4,0.5-0.5,0.8c-0.1,0.3-0.2,0.6-0.2,0.9C245.1,57.9,245.2,58.2,245.3,58.5z M247.6,55.9
			c0.4,0,0.7,0.1,0.9,0.2c0.2,0.2,0.3,0.4,0.3,0.7c0,0.3-0.1,0.5-0.2,0.7c-0.2,0.1-0.4,0.2-0.6,0.2l0.9,1.5h-0.6l-0.9-1.4h-0.5v1.4
			h-0.5v-3.3H247.6L247.6,55.9z M247.4,57.4c0.1,0,0.2,0,0.3,0c0.1,0,0.2,0,0.3-0.1c0.1,0,0.1-0.1,0.2-0.2c0-0.1,0.1-0.2,0.1-0.3
			c0-0.1,0-0.2-0.1-0.3c0-0.1-0.1-0.1-0.2-0.2c-0.1,0-0.1-0.1-0.2-0.1c-0.1,0-0.2,0-0.3,0h-0.7v1L247.4,57.4L247.4,57.4z"/>
	</g>
	<g>
		<path class="st1" d="M53.3,85.5c0,0.1-0.1,0.2-0.2,0.2c-0.7,0-1.1-0.2-1.8-1.2l-0.7-0.9h-1v1.8c0,0.1-0.1,0.2-0.2,0.2h-0.4
			c-0.1,0-0.2-0.1-0.2-0.2v-4.9c0-0.1,0.1-0.2,0.2-0.2h0.9c0.8,0,1.3,0.2,1.7,0.5c0.3,0.3,0.5,0.7,0.5,1.1c0,0.6-0.2,1.1-0.9,1.4
			l0.6,0.8c0.5,0.6,0.8,0.8,1.2,0.9c0.1,0,0.2,0.1,0.1,0.2L53.3,85.5z M51.5,82.1c0-0.3-0.1-0.6-0.3-0.8c-0.3-0.2-0.6-0.3-1.1-0.3
			h-0.4v2.1c0,0,0.4,0,0.8,0c0.3,0,0.5-0.1,0.7-0.3C51.4,82.6,51.5,82.4,51.5,82.1z"/>
		<path class="st1" d="M58.4,83.8h-2.3c0,0.9,0.5,1.4,1.4,1.4c0.6,0,0.9-0.2,1-0.2c0.1,0,0.1,0,0.1,0.2l0,0.2c0,0.1,0,0.2-0.1,0.2
			c-0.3,0.1-0.7,0.2-1.1,0.2c-1.3,0-2-0.8-2-2c0-1.1,0.7-1.9,1.7-1.9c0.9,0,1.5,0.6,1.4,1.8C58.6,83.8,58.5,83.8,58.4,83.8z
			 M57.1,82.4c-0.5,0-0.9,0.3-1,1l1.8,0C58,82.7,57.6,82.4,57.1,82.4z"/>
		<path class="st1" d="M61.2,83.8c0-1.3,0.8-2,1.8-2c0.2,0,0.5,0,0.8,0.1c0.1,0,0.2,0.1,0.2,0.2l0,0.2c0,0.1-0.1,0.1-0.1,0.1
			c-0.1,0-0.3-0.1-0.8-0.1c-0.7,0-1.2,0.4-1.2,1.3c0,0.9,0.5,1.4,1.2,1.4c0.4,0,0.7-0.2,0.8-0.2c0.1,0,0.1,0,0.1,0.1l0,0.2
			c0,0.1,0,0.2-0.2,0.2c-0.3,0.1-0.6,0.2-0.8,0.2C61.9,85.7,61.2,85,61.2,83.8z"/>
		<path class="st1" d="M68.5,85.7c-1,0-1.8-0.7-1.8-2c0-1.2,0.8-1.9,1.8-1.9c1,0,1.7,0.7,1.7,1.9C70.3,85,69.5,85.7,68.5,85.7z
			 M68.5,82.4c-0.6,0-1.1,0.5-1.1,1.3c0,0.8,0.4,1.4,1.1,1.4h0.1c0.6,0,1.1-0.6,1.1-1.4C69.6,83,69.2,82.4,68.5,82.4z"/>
		<path class="st1" d="M78,85.7c-0.1,0-0.2-0.1-0.2-0.2v-1.8c0-0.1,0-0.3,0-0.5c0-0.5-0.3-0.8-0.8-0.8c-0.3,0-0.6,0.1-0.9,0.5
			c0,0.2,0,0.4,0,0.6v1.9c0,0.1-0.1,0.2-0.2,0.2h-0.3c-0.1,0-0.2-0.1-0.2-0.2v-1.8c0-0.1,0-0.3,0-0.5c0-0.4-0.3-0.7-0.8-0.7
			c-0.3,0-0.6,0.1-0.9,0.4v2.6c0,0.1-0.1,0.2-0.2,0.2h-0.3c-0.1,0-0.2-0.1-0.2-0.2v-3.4c0-0.1,0.1-0.2,0.2-0.2l0.3,0
			c0.1,0,0.2,0,0.2,0.1l0,0.3c0.3-0.4,0.7-0.5,1.1-0.5c0.5,0,0.9,0.2,1.1,0.6c0.3-0.4,0.8-0.6,1.3-0.6c0.6,0,1,0.3,1.2,0.7
			c0.1,0.3,0.1,0.7,0.1,1.1v1.9c0,0.1-0.1,0.2-0.2,0.2L78,85.7L78,85.7z"/>
		<path class="st1" d="M86.3,85.7c-0.1,0-0.2-0.1-0.2-0.2v-1.8c0-0.1,0-0.3,0-0.5c0-0.5-0.3-0.8-0.8-0.8c-0.3,0-0.6,0.1-0.9,0.5
			c0,0.2,0,0.4,0,0.6v1.9c0,0.1-0.1,0.2-0.2,0.2h-0.3c-0.1,0-0.2-0.1-0.2-0.2v-1.8c0-0.1,0-0.3,0-0.5c0-0.4-0.3-0.7-0.8-0.7
			c-0.3,0-0.6,0.1-0.9,0.4v2.6c0,0.1-0.1,0.2-0.2,0.2h-0.3c-0.1,0-0.2-0.1-0.2-0.2v-3.4c0-0.1,0.1-0.2,0.2-0.2l0.3,0
			c0.1,0,0.2,0,0.2,0.1l0,0.3c0.3-0.4,0.7-0.5,1.1-0.5c0.5,0,0.9,0.2,1.1,0.6c0.3-0.4,0.8-0.6,1.3-0.6c0.6,0,1,0.3,1.2,0.7
			c0.1,0.3,0.1,0.7,0.1,1.1v1.9c0,0.1-0.1,0.2-0.2,0.2L86.3,85.7L86.3,85.7z"/>
		<path class="st1" d="M92.4,83.8h-2.3c0,0.9,0.5,1.4,1.4,1.4c0.6,0,0.9-0.2,1-0.2c0.1,0,0.1,0,0.1,0.2l0,0.2c0,0.1,0,0.2-0.1,0.2
			c-0.3,0.1-0.7,0.2-1.1,0.2c-1.3,0-2-0.8-2-2c0-1.1,0.7-1.9,1.7-1.9c0.9,0,1.5,0.6,1.4,1.8C92.6,83.8,92.5,83.8,92.4,83.8z
			 M91.1,82.4c-0.5,0-0.9,0.3-1,1l1.8,0C92,82.7,91.6,82.4,91.1,82.4z"/>
		<path class="st1" d="M98,85.7c-0.1,0-0.2-0.1-0.2-0.2v-1.8c0-0.1,0-0.3,0-0.5c0-0.5-0.3-0.8-0.8-0.8c-0.3,0-0.6,0.1-0.9,0.4v2.6
			c0,0.1-0.1,0.2-0.2,0.2h-0.3c-0.1,0-0.2-0.1-0.2-0.2v-3.4c0-0.1,0.1-0.2,0.2-0.2l0.3,0c0.1,0,0.2,0,0.2,0.1l0,0.3
			c0.3-0.4,0.7-0.5,1.1-0.5c0.6,0,1,0.3,1.2,0.7c0.1,0.3,0.1,0.7,0.1,1.1v1.9c0,0.1-0.1,0.2-0.2,0.2C98.3,85.7,98,85.7,98,85.7z"/>
		<path class="st1" d="M104.1,85.7c-0.1,0-0.2,0-0.2-0.1l0-0.3c-0.3,0.4-0.7,0.5-1.1,0.5c-0.9,0-1.5-0.6-1.5-1.9c0-1.2,0.7-2,2-2
			c0.2,0,0.5,0,0.7,0.1v-1.8c0-0.1,0.1-0.2,0.2-0.2l0.3,0c0.1,0,0.2,0,0.2,0.2v5.4c0,0.1-0.1,0.2-0.2,0.2L104.1,85.7z M103.8,82.6
			c-0.2-0.1-0.5-0.1-0.7-0.1c-0.8,0-1.3,0.5-1.3,1.4c0,1,0.5,1.4,1,1.4c0.3,0,0.6-0.1,1-0.5L103.8,82.6L103.8,82.6z"/>
		<path class="st1" d="M107.2,84.8c0-0.6,0.4-1.2,2.2-1.2v-0.1c0-0.2,0-0.4-0.1-0.6c-0.1-0.2-0.3-0.4-0.7-0.4c-0.6,0-0.9,0.2-1,0.2
			c-0.1,0-0.1,0-0.1-0.1l0-0.2c0-0.1,0-0.2,0.1-0.2c0.3-0.2,0.7-0.2,1.1-0.2c0.6,0,1,0.2,1.2,0.5c0.2,0.3,0.2,0.6,0.2,1v1.4
			c0,0.4,0.1,0.5,0.4,0.5c0.1,0,0.2,0.1,0.2,0.2l0,0.1c0,0.1-0.1,0.2-0.2,0.2c-0.1,0-0.2,0-0.3,0c-0.3,0-0.6-0.1-0.7-0.4
			c-0.3,0.3-0.7,0.5-1.1,0.5C107.6,85.7,107.2,85.4,107.2,84.8z M109.3,84.9V84c-1.2,0-1.5,0.4-1.5,0.7c0,0.3,0.2,0.5,0.7,0.5
			C108.8,85.2,109.1,85.1,109.3,84.9z"/>
		<path class="st1" d="M115,85.4c0,0.1,0,0.2-0.1,0.2c-0.2,0.1-0.4,0.1-0.6,0.1c-0.6,0-1.2-0.3-1.2-1.2v-2h-0.4
			c-0.1,0-0.2-0.1-0.2-0.2v-0.1c0-0.1,0.1-0.2,0.2-0.2l0.4-0.1l0.1-0.6c0-0.1,0.1-0.2,0.2-0.2l0.2,0c0.1,0,0.2,0.1,0.2,0.2V82h1
			c0.1,0,0.2,0.1,0.2,0.2l0,0.2c0,0.1-0.1,0.2-0.2,0.2h-0.9v1.9c0,0.6,0.3,0.7,0.6,0.7c0.2,0,0.4-0.1,0.5-0.1c0.1,0,0.1,0.1,0.1,0.2
			L115,85.4z"/>
		<path class="st1" d="M118.4,80.7c0,0.3-0.2,0.4-0.5,0.4c-0.3,0-0.4-0.2-0.4-0.5c0-0.3,0.2-0.4,0.5-0.4
			C118.2,80.3,118.4,80.4,118.4,80.7z M117.8,85.7c-0.1,0-0.2-0.1-0.2-0.2v-3.3c0-0.1,0.1-0.2,0.2-0.2l0.3,0c0.1,0,0.2,0,0.2,0.2
			v3.4c0,0.1-0.1,0.2-0.2,0.2C118.1,85.7,117.8,85.7,117.8,85.7z"/>
		<path class="st1" d="M122.8,85.7c-1,0-1.8-0.7-1.8-2c0-1.2,0.8-1.9,1.8-1.9c1,0,1.7,0.7,1.7,1.9C124.6,85,123.7,85.7,122.8,85.7z
			 M122.8,82.4c-0.6,0-1.1,0.5-1.1,1.3c0,0.8,0.4,1.4,1.1,1.4h0.1c0.6,0,1.1-0.6,1.1-1.4C123.9,83,123.5,82.4,122.8,82.4z"/>
		<path class="st1" d="M129.9,85.7c-0.1,0-0.2-0.1-0.2-0.2v-1.8c0-0.1,0-0.3,0-0.5c0-0.5-0.3-0.8-0.8-0.8c-0.3,0-0.6,0.1-0.9,0.4
			v2.6c0,0.1-0.1,0.2-0.2,0.2h-0.3c-0.1,0-0.2-0.1-0.2-0.2v-3.4c0-0.1,0.1-0.2,0.2-0.2l0.3,0c0.1,0,0.2,0,0.2,0.1l0,0.3
			c0.3-0.4,0.7-0.5,1.1-0.5c0.6,0,1,0.3,1.2,0.7c0.1,0.3,0.1,0.7,0.1,1.1v1.9c0,0.1-0.1,0.2-0.2,0.2
			C130.2,85.7,129.9,85.7,129.9,85.7z"/>
		<path class="st1" d="M134.2,85.7c-0.3,0-0.6-0.1-0.8-0.1c-0.2-0.1-0.2-0.1-0.2-0.2l0-0.2c0-0.1,0.1-0.2,0.1-0.2
			c0.1,0,0.4,0.2,0.9,0.2c0.5,0,0.7-0.3,0.7-0.6c0-0.2-0.1-0.4-0.6-0.6l-0.3-0.1c-0.6-0.2-0.8-0.6-0.8-1c0-0.4,0.4-1.1,1.3-1.1
			c0.3,0,0.6,0.1,0.8,0.1c0.1,0,0.2,0.1,0.2,0.2l0,0.2c0,0.1-0.1,0.1-0.1,0.1c-0.1,0-0.4-0.1-0.8-0.1c-0.5,0-0.7,0.3-0.7,0.5
			c0,0.2,0.1,0.4,0.6,0.5l0.3,0.1c0.7,0.2,0.9,0.7,0.9,1C135.6,85.1,135.2,85.7,134.2,85.7z"/>
		<path class="st1" d="M143.6,80.4c0,0.1-0.1,0.2-0.1,0.2c-0.1,0-0.2-0.1-0.5-0.1c-0.5,0-0.8,0.2-0.8,0.8c0,0.1,0,0.2,0,0.5V82h0.8
			c0.1,0,0.2,0.1,0.2,0.2l0,0.2c0,0.1-0.1,0.2-0.2,0.2h-0.8v2.9c0,0.1-0.1,0.2-0.2,0.2h-0.3c-0.1,0-0.2-0.1-0.2-0.2v-2.9H141
			c-0.1,0-0.2-0.1-0.2-0.2v-0.1c0-0.1,0.1-0.2,0.2-0.2l0.4-0.1v-0.2c0-0.4,0-0.6,0.1-0.9c0.2-0.7,0.7-1,1.4-1c0.1,0,0.3,0,0.5,0.1
			c0.1,0,0.1,0.1,0.1,0.2L143.6,80.4z"/>
		<path class="st1" d="M147.6,82.4c0,0.1,0,0.1-0.1,0.1c-0.1,0-0.1,0-0.3,0c-0.3,0-0.6,0.1-0.8,0.5v2.5c0,0.1-0.1,0.2-0.2,0.2h-0.3
			c-0.1,0-0.2-0.1-0.2-0.2v-3.4c0-0.1,0.1-0.2,0.2-0.2l0.3,0c0.1,0,0.2,0,0.2,0.2l0,0.4c0.3-0.5,0.6-0.6,0.9-0.6c0.1,0,0.2,0,0.3,0
			c0.1,0,0.1,0.1,0.1,0.2L147.6,82.4z"/>
		<path class="st1" d="M151.8,85.7c-1,0-1.8-0.7-1.8-2c0-1.2,0.8-1.9,1.8-1.9c1,0,1.7,0.7,1.7,1.9C153.6,85,152.8,85.7,151.8,85.7z
			 M151.8,82.4c-0.6,0-1.1,0.5-1.1,1.3c0,0.8,0.4,1.4,1.1,1.4h0.1c0.6,0,1.1-0.6,1.1-1.4C152.9,83,152.5,82.4,151.8,82.4z"/>
		<path class="st1" d="M161.2,85.7c-0.1,0-0.2-0.1-0.2-0.2v-1.8c0-0.1,0-0.3,0-0.5c0-0.5-0.3-0.8-0.8-0.8c-0.3,0-0.6,0.1-0.9,0.5
			c0,0.2,0,0.4,0,0.6v1.9c0,0.1-0.1,0.2-0.2,0.2h-0.3c-0.1,0-0.2-0.1-0.2-0.2v-1.8c0-0.1,0-0.3,0-0.5c0-0.4-0.3-0.7-0.8-0.7
			c-0.3,0-0.6,0.1-0.9,0.4v2.6c0,0.1-0.1,0.2-0.2,0.2h-0.3c-0.1,0-0.2-0.1-0.2-0.2v-3.4c0-0.1,0.1-0.2,0.2-0.2l0.3,0
			c0.1,0,0.2,0,0.2,0.1l0,0.3c0.3-0.4,0.7-0.5,1.1-0.5c0.5,0,0.9,0.2,1.1,0.6c0.3-0.4,0.8-0.6,1.3-0.6c0.6,0,1,0.3,1.2,0.7
			c0.1,0.3,0.1,0.7,0.1,1.1v1.9c0,0.1-0.1,0.2-0.2,0.2L161.2,85.7L161.2,85.7z"/>
		<path class="st1" d="M170.3,85.7c-0.1,0-0.2,0-0.2-0.1l0-0.3c-0.3,0.4-0.7,0.5-1.1,0.5c-0.9,0-1.5-0.6-1.5-1.9c0-1.2,0.7-2,2-2
			c0.2,0,0.5,0,0.7,0.1v-1.8c0-0.1,0.1-0.2,0.2-0.2l0.3,0c0.1,0,0.2,0,0.2,0.2v5.4c0,0.1-0.1,0.2-0.2,0.2L170.3,85.7z M170.1,82.6
			c-0.3-0.1-0.5-0.1-0.7-0.1c-0.8,0-1.3,0.5-1.3,1.4c0,1,0.5,1.4,1,1.4c0.3,0,0.6-0.1,1-0.5V82.6L170.1,82.6z"/>
		<path class="st1" d="M175.2,85.7c-1,0-1.8-0.7-1.8-2c0-1.2,0.8-1.9,1.8-1.9c1,0,1.7,0.7,1.7,1.9C177,85,176.2,85.7,175.2,85.7z
			 M175.2,82.4c-0.6,0-1.1,0.5-1.1,1.3c0,0.8,0.4,1.4,1.1,1.4h0.1c0.6,0,1.1-0.6,1.1-1.4C176.4,83,175.9,82.4,175.2,82.4z"/>
		<path class="st1" d="M179.6,83.8c0-1.3,0.8-2,1.8-2c0.2,0,0.5,0,0.8,0.1c0.1,0,0.2,0.1,0.2,0.2l0,0.2c0,0.1-0.1,0.1-0.1,0.1
			c-0.1,0-0.3-0.1-0.8-0.1c-0.7,0-1.2,0.4-1.2,1.3c0,0.9,0.5,1.4,1.2,1.4c0.4,0,0.7-0.2,0.8-0.2c0.1,0,0.1,0,0.1,0.1l0,0.2
			c0,0.1,0,0.2-0.2,0.2c-0.3,0.1-0.6,0.2-0.8,0.2C180.3,85.7,179.6,85,179.6,83.8z"/>
		<path class="st1" d="M187.2,85.4c0,0.1,0,0.2-0.1,0.2c-0.2,0.1-0.4,0.1-0.6,0.1c-0.6,0-1.2-0.3-1.2-1.2v-2h-0.4
			c-0.1,0-0.2-0.1-0.2-0.2v-0.1c0-0.1,0.1-0.2,0.2-0.2l0.4-0.1l0.1-0.6c0-0.1,0.1-0.2,0.2-0.2l0.2,0c0.1,0,0.2,0.1,0.2,0.2V82h1
			c0.1,0,0.2,0.1,0.2,0.2l0,0.2c0,0.1-0.1,0.2-0.2,0.2H186v1.9c0,0.6,0.3,0.7,0.6,0.7c0.2,0,0.4-0.1,0.5-0.1c0.1,0,0.1,0.1,0.1,0.2
			L187.2,85.4z"/>
		<path class="st1" d="M191.4,85.7c-1,0-1.8-0.7-1.8-2c0-1.2,0.8-1.9,1.8-1.9c1,0,1.7,0.7,1.7,1.9C193.2,85,192.4,85.7,191.4,85.7z
			 M191.4,82.4c-0.6,0-1.1,0.5-1.1,1.3c0,0.8,0.4,1.4,1.1,1.4h0.1c0.6,0,1.1-0.6,1.1-1.4C192.5,83,192.1,82.4,191.4,82.4z"/>
		<path class="st1" d="M197.9,82.4c0,0.1,0,0.1-0.1,0.1c-0.1,0-0.1,0-0.3,0c-0.3,0-0.6,0.1-0.8,0.5v2.5c0,0.1-0.1,0.2-0.2,0.2h-0.3
			c-0.1,0-0.2-0.1-0.2-0.2v-3.4c0-0.1,0.1-0.2,0.2-0.2l0.3,0c0.1,0,0.2,0,0.2,0.2l0,0.4c0.3-0.5,0.6-0.6,0.9-0.6c0.1,0,0.2,0,0.3,0
			c0.1,0,0.1,0.1,0.1,0.2L197.9,82.4z"/>
		<path class="st1" d="M201.4,85.7c-0.3,0-0.6-0.1-0.8-0.1c-0.2-0.1-0.2-0.1-0.2-0.2l0-0.2c0-0.1,0.1-0.2,0.1-0.2
			c0.1,0,0.4,0.2,0.9,0.2c0.5,0,0.7-0.3,0.7-0.6c0-0.2-0.1-0.4-0.6-0.6l-0.3-0.1c-0.6-0.2-0.8-0.6-0.8-1c0-0.4,0.4-1.1,1.3-1.1
			c0.3,0,0.6,0.1,0.8,0.1c0.1,0,0.2,0.1,0.2,0.2l0,0.2c0,0.1-0.1,0.1-0.1,0.1c-0.1,0-0.4-0.1-0.8-0.1c-0.5,0-0.7,0.3-0.7,0.5
			c0,0.2,0.1,0.4,0.6,0.5l0.3,0.1c0.7,0.2,0.9,0.7,0.9,1C202.8,85.1,202.4,85.7,201.4,85.7z"/>
		<path class="st1" d="M212.8,85.5c0,0.1-0.1,0.1-0.2,0.1l-0.5,0c-0.1,0-0.2,0-0.2-0.1l-0.9-2.8l-0.9,2.7c0,0.1-0.1,0.1-0.2,0.1
			l-0.5,0c-0.1,0-0.2,0-0.2-0.1l-1.1-3.4c0-0.1,0-0.2,0.1-0.2h0.4c0.1,0,0.2,0,0.2,0.1l0.7,2.4l0.1,0.5c0,0,0.1-0.2,0.2-0.5l0.8-2.4
			c0-0.1,0.1-0.1,0.2-0.1h0.4c0.1,0,0.2,0,0.2,0.1l0.8,2.3c0.1,0.3,0.2,0.5,0.2,0.6c0,0,0.1-0.2,0.2-0.5l0.7-2.4
			c0-0.1,0.1-0.1,0.2-0.1h0.3c0.1,0,0.2,0.1,0.1,0.2L212.8,85.5z"/>
		<path class="st1" d="M219.1,85.7c-0.1,0-0.2-0.1-0.2-0.2v-1.8c0-0.1,0-0.3,0-0.5c0-0.5-0.3-0.8-0.8-0.8c-0.3,0-0.6,0.1-0.9,0.4
			v2.6c0,0.1-0.1,0.2-0.2,0.2h-0.3c-0.1,0-0.2-0.1-0.2-0.2v-5.3c0-0.1,0.1-0.2,0.2-0.2l0.3,0c0.1,0,0.2,0,0.2,0.2v1.7
			c0,0.3,0,0.4,0,0.5c0.3-0.4,0.7-0.5,1.1-0.5c0.6,0,1,0.3,1.2,0.7c0.1,0.3,0.1,0.7,0.1,1.1v1.9c0,0.1-0.1,0.2-0.2,0.2H219.1z"/>
		<path class="st1" d="M224.1,85.7c-1,0-1.8-0.7-1.8-2c0-1.2,0.8-1.9,1.8-1.9c1,0,1.7,0.7,1.7,1.9C225.9,85,225.1,85.7,224.1,85.7z
			 M224.1,82.4c-0.6,0-1.1,0.5-1.1,1.3c0,0.8,0.4,1.4,1.1,1.4h0.1c0.6,0,1.1-0.6,1.1-1.4C225.2,83,224.8,82.4,224.1,82.4z"/>
		<path class="st1" d="M231.4,83.8c0-1.3,0.8-2,1.8-2c0.2,0,0.5,0,0.8,0.1c0.1,0,0.2,0.1,0.2,0.2l0,0.2c0,0.1-0.1,0.1-0.1,0.1
			c-0.1,0-0.3-0.1-0.8-0.1c-0.7,0-1.2,0.4-1.2,1.3c0,0.9,0.5,1.4,1.2,1.4c0.4,0,0.7-0.2,0.8-0.2c0.1,0,0.1,0,0.1,0.1l0,0.2
			c0,0.1,0,0.2-0.2,0.2c-0.3,0.1-0.6,0.2-0.8,0.2C232.1,85.7,231.4,85,231.4,83.8z"/>
		<path class="st1" d="M236.8,84.8c0-0.6,0.4-1.2,2.2-1.2v-0.1c0-0.2,0-0.4-0.1-0.6c-0.1-0.2-0.3-0.4-0.7-0.4c-0.6,0-0.9,0.2-1,0.2
			c-0.1,0-0.1,0-0.1-0.1l0-0.2c0-0.1,0-0.2,0.1-0.2c0.3-0.2,0.7-0.2,1.1-0.2c0.6,0,1,0.2,1.2,0.5c0.2,0.3,0.2,0.6,0.2,1v1.4
			c0,0.4,0.1,0.5,0.4,0.5c0.1,0,0.2,0.1,0.2,0.2l0,0.1c0,0.1-0.1,0.2-0.2,0.2c-0.1,0-0.2,0-0.3,0c-0.3,0-0.6-0.1-0.7-0.4
			c-0.3,0.3-0.7,0.5-1.1,0.5C237.3,85.7,236.8,85.4,236.8,84.8z M239,84.9V84c-1.2,0-1.5,0.4-1.5,0.7c0,0.3,0.2,0.5,0.7,0.5
			C238.4,85.2,238.7,85.1,239,84.9z"/>
		<path class="st1" d="M244.7,82.4c0,0.1,0,0.1-0.1,0.1c-0.1,0-0.1,0-0.3,0c-0.3,0-0.6,0.1-0.8,0.5v2.5c0,0.1-0.1,0.2-0.2,0.2h-0.3
			c-0.1,0-0.2-0.1-0.2-0.2v-3.4c0-0.1,0.1-0.2,0.2-0.2l0.3,0c0.1,0,0.2,0,0.2,0.2l0,0.4c0.3-0.5,0.6-0.6,0.9-0.6c0.1,0,0.2,0,0.3,0
			c0.1,0,0.1,0.1,0.1,0.2L244.7,82.4z"/>
		<path class="st1" d="M250,83.8h-2.3c0,0.9,0.5,1.4,1.4,1.4c0.6,0,0.9-0.2,1-0.2c0.1,0,0.1,0,0.1,0.2l0,0.2c0,0.1,0,0.2-0.1,0.2
			c-0.3,0.1-0.7,0.2-1.1,0.2c-1.3,0-2-0.8-2-2c0-1.1,0.7-1.9,1.7-1.9c0.9,0,1.5,0.6,1.4,1.8C250.2,83.8,250.1,83.8,250,83.8z
			 M248.7,82.4c-0.5,0-0.9,0.3-1,1l1.8,0C249.6,82.7,249.2,82.4,248.7,82.4z"/>
	</g>
</g>
</svg>
