<?xml version="1.0" encoding="utf-8"?>
<!-- Generator: Adobe Illustrator 24.2.1, SVG Export Plug-In . SVG Version: 6.00 Build 0)  -->
<svg version="1.1" id="Layer_1" xmlns="http://www.w3.org/2000/svg" xmlns:xlink="http://www.w3.org/1999/xlink" x="0px" y="0px"
	 viewBox="0 0 290 117" style="enable-background:new 0 0 290 117;" xml:space="preserve">
<style type="text/css">
	.st0{fill:#FCFCFC;}
	.st1{fill:#005EB8;}
</style>
<g id="Layer_2_1_">
	<rect x="1" y="-0.2" class="st0" width="289.8" height="117.2"/>
	<g transform="scale(3.75)">
		<path class="st1" d="M7.8,2.9h8.5l5.1,17.5l0,0l3.5-17.5h6.4L26,28.1h-8.3l-5.3-17.5l0,0L8.9,28.1H2.5L7.8,2.9z"/>
		<path class="st1" d="M33.8,2.9h6.7l-1.9,9.7h7.9l1.9-9.7h6.7l-5.3,25.2h-6.7l2.3-10.8h-7.9l-2.3,10.8h-6.7L33.8,2.9z"/>
		<path class="st1" d="M73,8.7c-1.8-0.9-3.5-1.2-5.5-1.2c-2.6,0-4.8,0.4-4.8,2.5c0,3.5,9.7,2.3,9.7,9.9c0,6.9-6.5,8.8-12.4,8.8
			c-2.6,0-5.3-0.5-7.8-1.2l1.6-5.1c1.4,0.9,4.1,1.4,6.2,1.4s5.3-0.4,5.3-3c0-4.1-9.7-2.5-9.7-9.7c0-6.5,5.7-8.5,11.3-8.5
			c3.2,0,6,0.4,7.8,1.1L73,8.7z"/>
	</g>
</g>
</svg>
