<svg xmlns="http://www.w3.org/2000/svg" width="23.752" height="46.317" viewBox="0 0 23.752 46.317">
    <path id="prefix__Path_565" fill="#1452b5" d="M134.432 8.46H116.52a2.92 2.92 0 0 0-2.92 2.92v2.96h23.752v-2.96a2.92 2.92 0 0 0-2.92-2.92zm-14.076 3.626a.662.662 0 1 1 .667-.662.663.663 0 0 1-.667.662zm8.07-.175h-5.9a.487.487 0 1 1 0-.973h5.9a.487.487 0 1 1 0 .973zM113.6 51.856a2.92 2.92 0 0 0 2.92 2.92h17.911a2.923 2.923 0 0 0 2.92-2.92v-5.15H113.6zm11.876-3.018a2.09 2.09 0 1 1-2.088 2.088 2.091 2.091 0 0 1 2.088-2.087zM113.6 15.313v28.96h23.752v-28.96zm16.062 17.571l-3.67 3.67a.755.755 0 0 1-.234.156.018.018 0 0 0-.015 0 .747.747 0 0 1-.531 0 .015.015 0 0 0-.01 0 .7.7 0 0 1-.243-.165l-3.67-3.665a.731.731 0 0 1 1.037-1.032l2.424 2.424V27.2a.73.73 0 1 1 1.46 0v7.077l2.424-2.424a.734.734 0 0 1 1.032 0 .726.726 0 0 1-.004 1.031z" data-name="Path 565" transform="translate(-113.6 -8.46)"/>
</svg>
