<svg xmlns="http://www.w3.org/2000/svg" width="125" height="125" viewBox="0 0 125 125">
    <defs>
        <style>
            .prefix__cls-2{fill:#fff}
        </style>
    </defs>
    <g id="prefix__Icon" transform="translate(-526 -1285.867)">
        <path id="prefix__Path_478" fill="#1452b5" d="M161.72 180.14a62.438 62.438 0 0 1-59.22 62.414c-1.087.057-2.184.086-3.284.086a62.5 62.5 0 1 1 62.5-62.5z" data-name="Path 478" transform="translate(489.28 1168.227)"/>
        <g id="prefix__Group_224" data-name="Group 224" transform="translate(-34.489 1530.08)">
            <path id="prefix__Path_494" d="M595.875-137.673a8.136 8.136 0 0 1-8.126-8.126v-36.824h-8.219a4.045 4.045 0 0 1-4.04-4.04 4.106 4.106 0 0 1 1.192-2.874l45.4-43.52a1.987 1.987 0 0 1 1.382-.555 1.987 1.987 0 0 1 1.382.555l45.35 43.47a4.148 4.148 0 0 1 1.237 2.924 4.044 4.044 0 0 1-4.04 4.04h-8.22v36.823a8.136 8.136 0 0 1-8.127 8.126zm71.64-48.944l-44.057-42.231-44.058 42.231h10.344a2 2 0 0 1 2 2v38.817a4.137 4.137 0 0 0 4.133 4.133h55.166a4.138 4.138 0 0 0 4.133-4.133v-38.821a2 2 0 0 1 2-2" class="prefix__cls-2" data-name="Path 494"/>
            <g id="prefix__Group_223" data-name="Group 223" transform="translate(596.662 -209.962)">
                <path id="prefix__Path_495" d="M822.2-26.031a8.79 8.79 0 0 0 2.6-6.3 9.387 9.387 0 0 0-4.756-8.146 5.858 5.858 0 0 0-5.724-4.667h-16.337a3.468 3.468 0 0 1-3.479-3.523 1.166 1.166 0 0 0-1.145-1.145 8.165 8.165 0 0 0-8.19 8.146 8.114 8.114 0 0 0 2.906 6.208 9.166 9.166 0 0 0-.573 3.126 8.973 8.973 0 0 0 2.6 6.3 4.29 4.29 0 0 0-2.6 3.831v2.994a4.526 4.526 0 0 0 4.667 4.359 4.929 4.929 0 0 0 2.29-.616 32.1 32.1 0 0 0 1.631 3.264c2.422 4.227 5.812 7.838 10.083 7.838 4.227 0 7.618-3.611 10.039-7.838a32.1 32.1 0 0 0 1.629-3.258 4.929 4.929 0 0 0 2.29.616 4.526 4.526 0 0 0 4.667-4.359V-22.2a4.29 4.29 0 0 0-2.598-3.831zm-30.03 8.85a2.16 2.16 0 0 1-2.333-2.026V-22.2a2.156 2.156 0 0 1 2.333-1.981h.044a28.958 28.958 0 0 0 1.409 6.517 2.223 2.223 0 0 1-1.452.484zm25.495-6.385a11.869 11.869 0 0 1-.264 1.585 13.348 13.348 0 0 1-.4 1.541 19.915 19.915 0 0 1-1.189 3.567c-.132.264-.22.616-.352.925-2.114 6.209-6.341 9.2-10 9.2-3.7 0-7.133-5.372-8.63-9.2-.44-1.1-.793-2.069-1.1-2.906a13.3 13.3 0 0 1-.66-2.422 39.615 39.615 0 0 1-.44-5.636v-.044a3.294 3.294 0 0 1 .176-.7 11.232 11.232 0 0 1 3.038-5.856h16.6a10.987 10.987 0 0 1 3.171 6.209 1.289 1.289 0 0 1 .088.4 26.771 26.771 0 0 1-.037 3.338zm4.8 4.359a2.189 2.189 0 0 1-2.333 2.026 2.311 2.311 0 0 1-1.453-.484 24.819 24.819 0 0 0 1.409-6.517 2.146 2.146 0 0 1 2.378 1.981z" class="prefix__cls-2" data-name="Path 495" transform="translate(-779.363 49.808)"/>
                <path id="prefix__Path_496" d="M758.682 312.3a27.668 27.668 0 0 0-12.776 2.937c-3.411 1.82-5.864 4.427-5.864 7.548v6.99a1.158 1.158 0 0 0 1.165 1.165h51.261a1.157 1.157 0 0 0 1.165-1.165v-6.99c0-3.121-2.453-5.728-5.864-7.548a27.67 27.67 0 0 0-12.777-2.937 1.172 1.172 0 0 0-1.165 1.165 6.99 6.99 0 0 1-13.98 0 1.172 1.172 0 0 0-1.165-1.165zm18.64 11.65a1.165 1.165 0 0 1 1.165 1.165 1.165 1.165 0 0 1-1.165 1.165 1.165 1.165 0 0 1-1.165-1.165 1.165 1.165 0 0 1 1.165-1.165zm4.66 0a1.165 1.165 0 0 1 1.165 1.165 1.165 1.165 0 0 1-1.165 1.165 1.165 1.165 0 0 1-1.165-1.165 1.165 1.165 0 0 1 1.165-1.165zm4.66 0a1.165 1.165 0 0 1 1.165 1.165 1.165 1.165 0 0 1-1.165 1.165 1.165 1.165 0 0 1-1.165-1.165 1.165 1.165 0 0 1 1.165-1.165z" class="prefix__cls-2" data-name="Path 496" transform="translate(-740.042 -265.708)"/>
            </g>
        </g>
    </g>
</svg>
