<?xml version="1.0" encoding="utf-8"?>
<!-- Generator: Adobe Illustrator 24.2.1, SVG Export Plug-In . SVG Version: 6.00 Build 0)  -->
<svg version="1.1" id="Layer_1" xmlns="http://www.w3.org/2000/svg" xmlns:xlink="http://www.w3.org/1999/xlink" x="0px" y="0px"
	 viewBox="0 0 125 125" style="enable-background:new 0 0 125 125;" xml:space="preserve">
<style type="text/css">
	.st0{fill:#1452B5;}
	.st1{fill:#FFFFFF;}
</style>
<g id="prefix__Group_535" transform="translate(-1022.999 -1285.867)">
	<path id="prefix__Path_480" class="st0" d="M1148,1348.4c0,33.3-26,60.7-59.2,62.4c-1.1,0.1-2.2,0.1-3.3,0.1
		c-34.5,0-62.5-28-62.5-62.5s28-62.5,62.5-62.5S1148,1313.8,1148,1348.4L1148,1348.4L1148,1348.4z"/>
	<g id="prefix__Group_229" transform="translate(-972.619 1542.921)">
		<g id="prefix__Group_230">
			<path id="prefix__Path_501" class="st1" d="M2058.1-146.5c-0.7,0-1.3-0.1-1.9-0.4c-11.2-4.6-20.9-12.4-27.6-22.6
				c-6.8-10.1-10.4-22-10.4-34.2v-17.6c0-2.1,1.2-4,3.2-4.7l34.8-14.5c0.6-0.3,1.3-0.4,2-0.4c0.7,0,1.3,0.1,2,0.4l34.8,14.5
				c1.9,0.8,3.2,2.7,3.2,4.7v17.6c0,12.2-3.6,24.1-10.4,34.2c-6.8,10.1-16.4,18-27.6,22.6C2059.4-146.6,2058.8-146.5,2058.1-146.5
				L2058.1-146.5z M2028.4-203.6c0,20,11.6,38.1,29.7,46.4c18.1-8.3,29.7-26.4,29.7-46.4v-14.2l-29.7-12.4l-29.7,12.4V-203.6z"/>
		</g>
	</g>
</g>
</svg>
